Public Sans-Black.ufo
<glyph name="exclam" format="2">
	<advance width="634"/>
	<unicode hex="0021"/>
	<outline>
		<contour>
			<point x="173" y="530" type="line"/>
			<point x="417" y="530" type="line"/>
			<point x="665" y="1481" type="line"/>
			<point x="206" y="1481" type="line"/>
		</contour>
		<contour>
			<point x="1" y="0" type="line"/>
			<point x="419" y="0" type="line"/>
			<point x="478" y="393" type="line"/>
			<point x="62" y="393" type="line"/>
		</contour>
	</outline>
</glyph>
<glyph name="numbersign" format="2">
	<advance width="1254"/>
	<unicode hex="0023"/>
	<outline>
		<contour>
			<point x="863" y="-6" type="line"/>
			<point x="1076" y="1466" type="line"/>
			<point x="884" y="1485" type="line"/>
			<point x="669" y="18" type="line"/>
		</contour>
		<contour>
			<point x="56" y="442" type="line"/>
			<point x="1175" y="442" type="line"/>
			<point x="1175" y="635" type="line"/>
			<point x="56" y="635" type="line"/>
		</contour>
		<contour>
			<point x="415" y="-6" type="line"/>
			<point x="628" y="1466" type="line"/>
			<point x="437" y="1485" type="line"/>
			<point x="222" y="18" type="line"/>
		</contour>
		<contour>
			<point x="122" y="862" type="line"/>
			<point x="1240" y="862" type="line"/>
			<point x="1240" y="1055" type="line"/>
			<point x="122" y="1055" type="line"/>
		</contour>
	</outline>
</glyph>
<glyph name="dollar" format="2">
	<advance width="1427"/>
	<unicode hex="0024"/>
	<outline>
		<contour>
			<point x="665" y="-20" type="curve" smooth="yes"/>
			<point x="1033" y="-20"/>
			<point x="1289" y="147"/>
			<point x="1330" y="420" type="curve" smooth="yes"/>
			<point x="1367" y="670"/>
			<point x="1271" y="840"/>
			<point x="996" y="899" type="curve" smooth="yes"/>
			<point x="773" y="946" type="line" smooth="yes"/>
			<point x="648" y="973"/>
			<point x="622" y="1008"/>
			<point x="632" y="1075" type="curve" smooth="yes"/>
			<point x="640" y="1128"/>
			<point x="695" y="1192"/>
			<point x="851" y="1192" type="curve" smooth="yes"/>
			<point x="988" y="1192"/>
			<point x="1002" y="1122"/>
			<point x="996" y="1032" type="curve"/>
			<point x="1398" y="1032" type="line"/>
			<point x="1453" y="1296"/>
			<point x="1248" y="1499"/>
			<point x="890" y="1499" type="curve" smooth="yes"/>
			<point x="550" y="1499"/>
			<point x="243" y="1325"/>
			<point x="202" y="1026" type="curve" smooth="yes"/>
			<point x="167" y="774"/>
			<point x="296" y="627"/>
			<point x="521" y="590" type="curve" smooth="yes"/>
			<point x="744" y="551" type="line" smooth="yes"/>
			<point x="865" y="530"/>
			<point x="925" y="510"/>
			<point x="910" y="420" type="curve" smooth="yes"/>
			<point x="900" y="348"/>
			<point x="833" y="285"/>
			<point x="710" y="285" type="curve" smooth="yes"/>
			<point x="570" y="285"/>
			<point x="488" y="346"/>
			<point x="482" y="451" type="curve"/>
			<point x="71" y="451" type="line"/>
			<point x="46" y="121"/>
			<point x="273" y="-20"/>
		</contour>
		<contour>
			<point x="470" y="-178" type="line"/>
			<point x="802" y="-178" type="line"/>
			<point x="843" y="88" type="line"/>
			<point x="511" y="88" type="line"/>
		</contour>
		<contour>
			<point x="712" y="1417" type="line"/>
			<point x="1043" y="1417" type="line"/>
			<point x="1084" y="1683" type="line"/>
			<point x="753" y="1683" type="line"/>
		</contour>
	</outline>
</glyph>
<glyph name="percent" format="2">
	<advance width="1845"/>
	<unicode hex="0025"/>
	<outline>
		<contour>
			<point x="1302" y="-20" type="curve" smooth="yes"/>
			<point x="1508" y="-20"/>
			<point x="1693" y="178"/>
			<point x="1723" y="393" type="curve" smooth="yes"/>
			<point x="1754" y="610"/>
			<point x="1623" y="817"/>
			<point x="1418" y="817" type="curve" smooth="yes"/>
			<point x="1215" y="817"/>
			<point x="1025" y="610"/>
			<point x="994" y="393" type="curve" smooth="yes"/>
			<point x="964" y="178"/>
			<point x="1095" y="-20"/>
		</contour>
		<contour>
			<point x="468" y="668" type="curve" smooth="yes"/>
			<point x="673" y="668"/>
			<point x="857" y="864"/>
			<point x="888" y="1079" type="curve" smooth="yes"/>
			<point x="919" y="1298"/>
			<point x="785" y="1503"/>
			<point x="585" y="1503" type="curve" smooth="yes"/>
			<point x="382" y="1503"/>
			<point x="189" y="1298"/>
			<point x="159" y="1079" type="curve" smooth="yes"/>
			<point x="130" y="864"/>
			<point x="259" y="668"/>
		</contour>
		<contour>
			<point x="493" y="862" type="curve" smooth="yes"/>
			<point x="417" y="862"/>
			<point x="404" y="936"/>
			<point x="425" y="1079" type="curve" smooth="yes"/>
			<point x="445" y="1229"/>
			<point x="482" y="1311"/>
			<point x="556" y="1311" type="curve" smooth="yes"/>
			<point x="630" y="1311"/>
			<point x="642" y="1231"/>
			<point x="622" y="1079" type="curve" smooth="yes"/>
			<point x="601" y="936"/>
			<point x="570" y="862"/>
		</contour>
		<contour>
			<point x="1326" y="176" type="curve" smooth="yes"/>
			<point x="1252" y="176"/>
			<point x="1242" y="250"/>
			<point x="1261" y="391" type="curve" smooth="yes"/>
			<point x="1283" y="541"/>
			<point x="1316" y="623"/>
			<point x="1390" y="623" type="curve" smooth="yes"/>
			<point x="1463" y="623"/>
			<point x="1476" y="543"/>
			<point x="1455" y="391" type="curve" smooth="yes"/>
			<point x="1435" y="250"/>
			<point x="1404" y="176"/>
		</contour>
		<component base="fraction" xScale="0.92" yxScale="0.1405" xOffset="647"/>
	</outline>
</glyph>
<glyph name="ampersand" format="2">
	<advance width="1729"/>
	<unicode hex="0026"/>
	<guideline x="330" y="298" angle="130.8357"/>
	<guideline x="418" y="441" angle="310.2049"/>
	<outline>
		<contour>
			<point x="524" y="-10" type="curve" smooth="yes"/>
			<point x="664" y="-10"/>
			<point x="848" y="18"/>
			<point x="1032" y="127" type="curve"/>
			<point x="1122" y="0" type="line"/>
			<point x="1573" y="0" type="line"/>
			<point x="1303" y="387" type="line"/>
			<point x="1407" y="543"/>
			<point x="1585" y="725"/>
			<point x="1679" y="881" type="curve"/>
			<point x="1268" y="881" type="line"/>
			<point x="1235" y="793"/>
			<point x="1182" y="680"/>
			<point x="1153" y="612" type="curve"/>
			<point x="1034" y="786" type="line"/>
			<point x="1217" y="897"/>
			<point x="1374" y="1020"/>
			<point x="1399" y="1176" type="curve" smooth="yes"/>
			<point x="1427" y="1368"/>
			<point x="1237" y="1503"/>
			<point x="956" y="1503" type="curve" smooth="yes"/>
			<point x="668" y="1503"/>
			<point x="449" y="1348"/>
			<point x="416" y="1139" type="curve" smooth="yes"/>
			<point x="395" y="1008"/>
			<point x="461" y="944"/>
			<point x="541" y="834" type="curve"/>
			<point x="262" y="696"/>
			<point x="111" y="582"/>
			<point x="80" y="371" type="curve" smooth="yes"/>
			<point x="45" y="150"/>
			<point x="168" y="-10"/>
		</contour>
		<contour>
			<point x="672" y="287" type="curve" smooth="yes"/>
			<point x="616" y="287"/>
			<point x="539" y="319"/>
			<point x="530" y="399" type="curve" smooth="yes"/>
			<point x="522" y="494"/>
			<point x="612" y="567"/>
			<point x="696" y="612" type="curve"/>
			<point x="879" y="356" type="line"/>
			<point x="815" y="305"/>
			<point x="719" y="287"/>
		</contour>
		<contour>
			<point x="903" y="977" type="curve"/>
			<point x="864" y="1026" type="line"/>
			<point x="817" y="1087"/>
			<point x="803" y="1130"/>
			<point x="809" y="1167" type="curve"/>
			<point x="817" y="1227"/>
			<point x="870" y="1270"/>
			<point x="940" y="1274" type="curve" smooth="yes"/>
			<point x="1016" y="1278"/>
			<point x="1067" y="1235"/>
			<point x="1055" y="1155" type="curve" smooth="yes"/>
			<point x="1047" y="1094"/>
			<point x="1004" y="1040"/>
		</contour>
	</outline>
</glyph>
<glyph name="quotesingle" format="1">
  <advance width="544"/>
  <unicode hex="0027"/>
  <outline>
    <contour>
      <point x="215" y="802" type="line"/>
      <point x="397" y="802" type="line"/>
      <point x="585" y="1446" type="line"/>
      <point x="221" y="1446" type="line"/>
    </contour>
  </outline>
</glyph>
<glyph name="parenleft" format="2">
	<advance width="745"/>
	<unicode hex="0028"/>
	<outline>
		<contour>
			<point x="263" y="-330" type="curve"/>
			<point x="544" y="-330" type="line"/>
			<point x="441" y="-18"/>
			<point x="402" y="254"/>
			<point x="450" y="567" type="curve" smooth="yes"/>
			<point x="499" y="895"/>
			<point x="636" y="1212"/>
			<point x="818" y="1481" type="curve"/>
			<point x="536" y="1481" type="line"/>
			<point x="321" y="1225"/>
			<point x="161" y="911"/>
			<point x="108" y="569" type="curve" smooth="yes"/>
			<point x="54" y="217"/>
			<point x="134" y="-41"/>
		</contour>
	</outline>
</glyph>
<glyph name="asterisk" format="2">
	<advance width="1117"/>
	<unicode hex="002A"/>
	<outline>
		<contour>
			<point x="440" y="557" type="line"/>
			<point x="618" y="860" type="line"/>
			<point x="797" y="561" type="line"/>
			<point x="1001" y="702" type="line"/>
			<point x="778" y="965" type="line"/>
			<point x="1098" y="1051" type="line"/>
			<point x="1026" y="1276" type="line"/>
			<point x="711" y="1135" type="line"/>
			<point x="745" y="1481" type="line"/>
			<point x="500" y="1481" type="line"/>
			<point x="526" y="1137" type="line"/>
			<point x="217" y="1278" type="line"/>
			<point x="135" y="1055" type="line"/>
			<point x="465" y="965" type="line"/>
			<point x="238" y="700" type="line"/>
		</contour>
	</outline>
</glyph>
<glyph name="plus" format="2">
	<advance width="1265"/>
	<unicode hex="002B"/>
	<outline>
		<contour>
			<point x="444" y="225" type="line"/>
			<point x="725" y="225" type="line"/>
			<point x="883" y="1268" type="line"/>
			<point x="602" y="1268" type="line"/>
		</contour>
		<contour>
			<point x="123" y="604" type="line"/>
			<point x="1159" y="604" type="line"/>
			<point x="1202" y="887" type="line"/>
			<point x="166" y="887" type="line"/>
		</contour>
	</outline>
</glyph>
<glyph name="comma" format="2">
	<advance width="639"/>
	<unicode hex="002C"/>
	<outline>
		<contour>
			<point x="-16" y="-313" type="line"/>
			<point x="115" y="-313" type="line"/>
			<point x="401" y="41" type="line"/>
			<point x="449" y="348" type="line"/>
			<point x="88" y="348" type="line"/>
			<point x="35" y="2" type="line"/>
			<point x="152" y="-12" type="line"/>
		</contour>
	</outline>
</glyph>
<glyph name="hyphen" format="1">
  <advance width="817"/>
  <unicode hex="002D"/>
  <outline>
    <contour>
      <point x="90" y="376" type="line"/>
      <point x="666" y="376" type="line"/>
      <point x="706" y="650" type="line"/>
      <point x="130" y="650" type="line"/>
    </contour>
  </outline>
</glyph>
<glyph name="period" format="1">
  <advance width="621"/>
  <unicode hex="002E"/>
  <outline>
    <contour>
      <point x="17" y="0" type="line"/>
      <point x="423" y="0" type="line"/>
      <point x="483" y="392" type="line"/>
      <point x="77" y="392" type="line"/>
    </contour>
  </outline>
</glyph>
<glyph name="slash" format="1">
  <advance width="830"/>
  <unicode hex="002F"/>
  <outline>
    <contour>
      <point x="-53" y="0" type="line"/>
      <point x="205" y="0" type="line"/>
      <point x="931" y="1446" type="line"/>
      <point x="673" y="1446" type="line"/>
    </contour>
  </outline>
</glyph>
<glyph name="zero" format="1">
  <advance width="1303"/>
  <unicode hex="0030"/>
  <outline>
    <contour>
      <point x="571" y="-16" type="curve" smooth="yes"/>
      <point x="947" y="-16"/>
      <point x="1199" y="252"/>
      <point x="1271" y="720" type="curve" smooth="yes"/>
      <point x="1341" y="1190"/>
      <point x="1165" y="1468"/>
      <point x="795" y="1468" type="curve" smooth="yes"/>
      <point x="425" y="1468"/>
      <point x="161" y="1190"/>
      <point x="89" y="720" type="curve" smooth="yes"/>
      <point x="19" y="252"/>
      <point x="193" y="-16"/>
    </contour>
    <contour>
      <point x="615" y="288" type="curve" smooth="yes"/>
      <point x="473" y="288"/>
      <point x="441" y="404"/>
      <point x="489" y="718" type="curve" smooth="yes"/>
      <point x="539" y="1042"/>
      <point x="609" y="1168"/>
      <point x="749" y="1168" type="curve" smooth="yes"/>
      <point x="887" y="1168"/>
      <point x="921" y="1044"/>
      <point x="871" y="718" type="curve" smooth="yes"/>
      <point x="823" y="402"/>
      <point x="757" y="288"/>
    </contour>
  </outline>
</glyph>
<glyph name="one" format="1">
  <advance width="880"/>
  <unicode hex="0031"/>
  <outline>
    <contour>
      <point x="223" y="0" type="line"/>
      <point x="611" y="0" type="line"/>
      <point x="831" y="1446" type="line"/>
      <point x="583" y="1446" type="line"/>
      <point x="543" y="1316"/>
      <point x="409" y="1226"/>
      <point x="171" y="1226" type="curve"/>
      <point x="141" y="1022" type="line"/>
      <point x="379" y="1022" type="line"/>
    </contour>
  </outline>
</glyph>
<glyph name="two" format="2">
	<advance width="1363"/>
	<unicode hex="0032"/>
	<outline>
		<contour>
			<point x="17" y="0" type="line"/>
			<point x="1185" y="0" type="line"/>
			<point x="1236" y="328" type="line"/>
			<point x="509" y="328" type="line"/>
			<point x="509" y="328" type="line" smooth="yes"/>
			<point x="544" y="565"/>
			<point x="1273" y="512"/>
			<point x="1353" y="1030" type="curve" smooth="yes"/>
			<point x="1394" y="1311"/>
			<point x="1205" y="1501"/>
			<point x="843" y="1501" type="curve" smooth="yes"/>
			<point x="423" y="1501"/>
			<point x="187" y="1266"/>
			<point x="140" y="958" type="curve"/>
			<point x="513" y="958" type="line"/>
			<point x="568" y="1122"/>
			<point x="679" y="1180"/>
			<point x="788" y="1180" type="curve" smooth="yes"/>
			<point x="894" y="1180"/>
			<point x="949" y="1114"/>
			<point x="937" y="1026" type="curve" smooth="yes"/>
			<point x="898" y="774"/>
			<point x="136" y="786"/>
			<point x="58" y="266" type="curve" smooth="yes"/>
			<point x="44" y="176" type="line"/>
		</contour>
	</outline>
</glyph>
<glyph name="three" format="1">
  <advance width="1322"/>
  <unicode hex="0033"/>
  <outline>
    <contour>
      <point x="554" y="-20" type="curve" smooth="yes"/>
      <point x="892" y="-20"/>
      <point x="1212" y="118"/>
      <point x="1258" y="420" type="curve" smooth="yes"/>
      <point x="1290" y="622"/>
      <point x="1158" y="720"/>
      <point x="1030" y="756" type="curve"/>
      <point x="1224" y="818"/>
      <point x="1308" y="922"/>
      <point x="1328" y="1064" type="curve" smooth="yes"/>
      <point x="1372" y="1352"/>
      <point x="1128" y="1466"/>
      <point x="786" y="1466" type="curve" smooth="yes"/>
      <point x="450" y="1466"/>
      <point x="170" y="1318"/>
      <point x="120" y="980" type="curve"/>
      <point x="484" y="980" type="line"/>
      <point x="522" y="1134"/>
      <point x="610" y="1174"/>
      <point x="732" y="1174" type="curve" smooth="yes"/>
      <point x="834" y="1174"/>
      <point x="930" y="1136"/>
      <point x="916" y="1046" type="curve" smooth="yes"/>
      <point x="902" y="956"/>
      <point x="828" y="908"/>
      <point x="704" y="898" type="curve" smooth="yes"/>
      <point x="576" y="888" type="line"/>
      <point x="532" y="588" type="line"/>
      <point x="674" y="580" type="line" smooth="yes"/>
      <point x="798" y="574"/>
      <point x="864" y="514"/>
      <point x="852" y="436" type="curve" smooth="yes"/>
      <point x="838" y="348"/>
      <point x="748" y="284"/>
      <point x="600" y="284" type="curve" smooth="yes"/>
      <point x="498" y="284"/>
      <point x="414" y="324"/>
      <point x="408" y="476" type="curve"/>
      <point x="44" y="476" type="line"/>
      <point x="-4" y="162"/>
      <point x="164" y="-20"/>
    </contour>
  </outline>
</glyph>
<glyph name="four" format="1">
  <advance width="1295"/>
  <unicode hex="0034"/>
  <outline>
    <contour>
      <point x="610" y="0" type="line"/>
      <point x="978" y="0" type="line"/>
      <point x="1020" y="276" type="line"/>
      <point x="1228" y="276" type="line"/>
      <point x="1276" y="594" type="line"/>
      <point x="1070" y="594" type="line"/>
      <point x="1198" y="1446" type="line"/>
      <point x="824" y="1446" type="line"/>
      <point x="52" y="580" type="line"/>
      <point x="6" y="276" type="line"/>
      <point x="654" y="276" type="line"/>
    </contour>
    <contour>
      <point x="406" y="594" type="line"/>
      <point x="766" y="996" type="line"/>
      <point x="706" y="594" type="line"/>
    </contour>
  </outline>
</glyph>
<glyph name="five" format="1">
  <advance width="1366"/>
  <unicode hex="0035"/>
  <outline>
    <contour>
      <point x="620" y="-20" type="curve" smooth="yes"/>
      <point x="986" y="-20"/>
      <point x="1242" y="162"/>
      <point x="1290" y="472" type="curve" smooth="yes"/>
      <point x="1334" y="770"/>
      <point x="1148" y="944"/>
      <point x="836" y="944" type="curve" smooth="yes"/>
      <point x="738" y="944"/>
      <point x="666" y="926"/>
      <point x="546" y="894" type="curve"/>
      <point x="604" y="1134" type="line"/>
      <point x="1274" y="1134" type="line"/>
      <point x="1338" y="1446" type="line"/>
      <point x="356" y="1446" type="line"/>
      <point x="180" y="728" type="line"/>
      <point x="420" y="586" type="line" smooth="yes"/>
      <point x="446" y="572"/>
      <point x="448" y="572"/>
      <point x="478" y="584" type="curve" smooth="yes"/>
      <point x="570" y="622"/>
      <point x="618" y="636"/>
      <point x="680" y="636" type="curve" smooth="yes"/>
      <point x="830" y="636"/>
      <point x="898" y="548"/>
      <point x="884" y="458" type="curve" smooth="yes"/>
      <point x="870" y="362"/>
      <point x="764" y="284"/>
      <point x="620" y="284" type="curve" smooth="yes"/>
      <point x="466" y="284"/>
      <point x="404" y="376"/>
      <point x="336" y="486" type="curve"/>
      <point x="18" y="290" type="line"/>
      <point x="96" y="112"/>
      <point x="320" y="-20"/>
    </contour>
  </outline>
</glyph>
<glyph name="six" format="1">
  <advance width="1348"/>
  <unicode hex="0036"/>
  <outline>
    <contour>
      <point x="610" y="-12" type="curve" smooth="yes"/>
      <point x="950" y="-12"/>
      <point x="1228" y="194"/>
      <point x="1272" y="472" type="curve" smooth="yes"/>
      <point x="1310" y="726"/>
      <point x="1136" y="902"/>
      <point x="836" y="902" type="curve" smooth="yes"/>
      <point x="732" y="902"/>
      <point x="622" y="884"/>
      <point x="538" y="836" type="curve"/>
      <point x="534" y="1004"/>
      <point x="644" y="1166"/>
      <point x="806" y="1166" type="curve" smooth="yes"/>
      <point x="908" y="1166"/>
      <point x="964" y="1120"/>
      <point x="980" y="1012" type="curve"/>
      <point x="1330" y="1012" type="line"/>
      <point x="1372" y="1298"/>
      <point x="1140" y="1466"/>
      <point x="842" y="1466" type="curve" smooth="yes"/>
      <point x="452" y="1466"/>
      <point x="158" y="1176"/>
      <point x="84" y="690" type="curve" smooth="yes"/>
      <point x="20" y="270"/>
      <point x="212" y="-12"/>
    </contour>
    <contour>
      <point x="636" y="270" type="curve" smooth="yes"/>
      <point x="526" y="270"/>
      <point x="460" y="348"/>
      <point x="484" y="516" type="curve"/>
      <point x="490" y="552"/>
      <point x="602" y="622"/>
      <point x="692" y="622" type="curve" smooth="yes"/>
      <point x="784" y="622"/>
      <point x="882" y="578"/>
      <point x="864" y="454" type="curve" smooth="yes"/>
      <point x="846" y="346"/>
      <point x="738" y="270"/>
    </contour>
  </outline>
</glyph>
<glyph name="seven" format="1">
  <advance width="1214"/>
  <unicode hex="0037"/>
  <outline>
    <contour>
      <point x="227" y="0" type="curve"/>
      <point x="643" y="0" type="line"/>
      <point x="689" y="356"/>
      <point x="1033" y="910"/>
      <point x="1267" y="1134" type="curve"/>
      <point x="1315" y="1446" type="line"/>
      <point x="183" y="1446" type="line"/>
      <point x="137" y="1134" type="line"/>
      <point x="873" y="1134" type="line"/>
      <point x="447" y="696"/>
      <point x="259" y="208"/>
    </contour>
  </outline>
</glyph>
<glyph name="eight" format="1">
  <advance width="1296"/>
  <unicode hex="0038"/>
  <outline>
    <contour>
      <point x="569" y="-16" type="curve" smooth="yes"/>
      <point x="933" y="-16"/>
      <point x="1201" y="144"/>
      <point x="1241" y="410" type="curve" smooth="yes"/>
      <point x="1267" y="574"/>
      <point x="1151" y="720"/>
      <point x="1035" y="748" type="curve"/>
      <point x="1149" y="804"/>
      <point x="1255" y="906"/>
      <point x="1277" y="1048" type="curve" smooth="yes"/>
      <point x="1319" y="1320"/>
      <point x="1105" y="1462"/>
      <point x="793" y="1462" type="curve" smooth="yes"/>
      <point x="481" y="1462"/>
      <point x="225" y="1320"/>
      <point x="185" y="1048" type="curve" smooth="yes"/>
      <point x="163" y="906"/>
      <point x="239" y="804"/>
      <point x="335" y="748" type="curve"/>
      <point x="209" y="720"/>
      <point x="51" y="574"/>
      <point x="25" y="410" type="curve" smooth="yes"/>
      <point x="-15" y="144"/>
      <point x="205" y="-16"/>
    </contour>
    <contour>
      <point x="611" y="264" type="curve" smooth="yes"/>
      <point x="485" y="264"/>
      <point x="423" y="328"/>
      <point x="437" y="424" type="curve" smooth="yes"/>
      <point x="451" y="522"/>
      <point x="533" y="588"/>
      <point x="661" y="588" type="curve" smooth="yes"/>
      <point x="787" y="588"/>
      <point x="849" y="522"/>
      <point x="835" y="424" type="curve" smooth="yes"/>
      <point x="819" y="328"/>
      <point x="739" y="264"/>
    </contour>
    <contour>
      <point x="707" y="892" type="curve" smooth="yes"/>
      <point x="615" y="892"/>
      <point x="551" y="954"/>
      <point x="567" y="1054" type="curve" smooth="yes"/>
      <point x="581" y="1154"/>
      <point x="665" y="1216"/>
      <point x="757" y="1216" type="curve" smooth="yes"/>
      <point x="847" y="1216"/>
      <point x="911" y="1154"/>
      <point x="897" y="1054" type="curve" smooth="yes"/>
      <point x="881" y="954"/>
      <point x="799" y="892"/>
    </contour>
  </outline>
</glyph>
<glyph name="nine" format="1">
  <advance width="1263"/>
  <unicode hex="0039"/>
  <outline>
    <contour>
      <point x="525" y="-16" type="curve" smooth="yes"/>
      <point x="885" y="-16"/>
      <point x="1151" y="214"/>
      <point x="1227" y="760" type="curve" smooth="yes"/>
      <point x="1287" y="1182"/>
      <point x="1109" y="1462"/>
      <point x="741" y="1462" type="curve" smooth="yes"/>
      <point x="427" y="1462"/>
      <point x="175" y="1258"/>
      <point x="135" y="978" type="curve" smooth="yes"/>
      <point x="97" y="706"/>
      <point x="275" y="528"/>
      <point x="553" y="528" type="curve" smooth="yes"/>
      <point x="683" y="528"/>
      <point x="781" y="564"/>
      <point x="849" y="630" type="curve"/>
      <point x="835" y="366"/>
      <point x="701" y="284"/>
      <point x="549" y="284" type="curve" smooth="yes"/>
      <point x="455" y="284"/>
      <point x="405" y="344"/>
      <point x="403" y="438" type="curve"/>
      <point x="67" y="438" type="line"/>
      <point x="31" y="164"/>
      <point x="249" y="-16"/>
    </contour>
    <contour>
      <point x="665" y="828" type="curve" smooth="yes"/>
      <point x="581" y="828"/>
      <point x="505" y="884"/>
      <point x="521" y="996" type="curve" smooth="yes"/>
      <point x="537" y="1106"/>
      <point x="623" y="1182"/>
      <point x="717" y="1182" type="curve" smooth="yes"/>
      <point x="819" y="1182"/>
      <point x="881" y="1104"/>
      <point x="857" y="934" type="curve"/>
      <point x="851" y="898"/>
      <point x="747" y="828"/>
    </contour>
  </outline>
</glyph>
<glyph name="colon" format="1">
  <advance width="629"/>
  <unicode hex="003A"/>
  <outline>
    <contour>
      <point x="114" y="640" type="line"/>
      <point x="522" y="640" type="line"/>
      <point x="580" y="1024" type="line"/>
      <point x="172" y="1024" type="line"/>
    </contour>
    <contour>
      <point x="18" y="6" type="line"/>
      <point x="426" y="6" type="line"/>
      <point x="484" y="390" type="line"/>
      <point x="76" y="390" type="line"/>
    </contour>
  </outline>
</glyph>
<glyph name="semicolon" format="2">
	<advance width="652"/>
	<unicode hex="003B"/>
	<outline>
		<contour>
			<point x="-30" y="-338" type="line"/>
			<point x="126" y="-338" type="line"/>
			<point x="452" y="45" type="line"/>
			<point x="505" y="395" type="line"/>
			<point x="87" y="395" type="line"/>
			<point x="28" y="0" type="line"/>
			<point x="169" y="0" type="line"/>
		</contour>
		<contour>
			<point x="124" y="641" type="line"/>
			<point x="542" y="641" type="line"/>
			<point x="601" y="1042" type="line"/>
			<point x="185" y="1042" type="line"/>
		</contour>
	</outline>
</glyph>
<glyph name="less" format="2">
	<advance width="1242"/>
	<unicode hex="003C"/>
	<outline>
		<contour>
			<point x="1064" y="147" type="line"/>
			<point x="1113" y="479" type="line"/>
			<point x="556" y="694" type="line"/>
			<point x="1181" y="920" type="line"/>
			<point x="1230" y="1247" type="line"/>
			<point x="161" y="856" type="line"/>
			<point x="114" y="539" type="line"/>
		</contour>
	</outline>
</glyph>
<glyph name="equal" format="2">
	<advance width="1272"/>
	<unicode hex="003D"/>
	<outline>
		<contour>
			<point x="157" y="797" type="line"/>
			<point x="1193" y="797" type="line"/>
			<point x="1236" y="1079" type="line"/>
			<point x="200" y="1079" type="line"/>
		</contour>
		<contour>
			<point x="83" y="315" type="line"/>
			<point x="1119" y="315" type="line"/>
			<point x="1162" y="598" type="line"/>
			<point x="126" y="598" type="line"/>
		</contour>
	</outline>
</glyph>
<glyph name="greater" format="2">
	<advance width="1245"/>
	<unicode hex="003E"/>
	<outline>
		<contour>
			<point x="59" y="147" type="line"/>
			<point x="1130" y="539" type="line"/>
			<point x="1178" y="856" type="line"/>
			<point x="225" y="1247" type="line"/>
			<point x="176" y="920" type="line"/>
			<point x="735" y="694" type="line"/>
			<point x="111" y="479" type="line"/>
		</contour>
	</outline>
</glyph>
<glyph name="question" format="2">
	<advance width="1108"/>
	<unicode hex="003F"/>
	<outline>
		<contour>
			<point x="367" y="537" type="curve"/>
			<point x="676" y="537" type="line"/>
			<point x="721" y="823"/>
			<point x="1104" y="838"/>
			<point x="1151" y="1159" type="curve" smooth="yes"/>
			<point x="1180" y="1339"/>
			<point x="997" y="1501"/>
			<point x="690" y="1501" type="curve" smooth="yes"/>
			<point x="416" y="1501"/>
			<point x="209" y="1372"/>
			<point x="84" y="1128" type="curve"/>
			<point x="403" y="1057" type="line"/>
			<point x="467" y="1176"/>
			<point x="557" y="1241"/>
			<point x="647" y="1241" type="curve" smooth="yes"/>
			<point x="717" y="1241"/>
			<point x="772" y="1200"/>
			<point x="762" y="1137" type="curve" smooth="yes"/>
			<point x="737" y="979"/>
			<point x="424" y="905"/>
		</contour>
		<contour>
			<point x="231" y="0" type="line"/>
			<point x="649" y="0" type="line"/>
			<point x="709" y="393" type="line"/>
			<point x="291" y="393" type="line"/>
		</contour>
	</outline>
</glyph>
<glyph name="at" format="1">
  <advance width="1601"/>
  <unicode hex="0040"/>
  <outline>
    <contour>
      <point x="693" y="-220" type="curve" smooth="yes"/>
      <point x="923" y="-220"/>
      <point x="1115" y="-144"/>
      <point x="1213" y="-68" type="curve"/>
      <point x="1131" y="74" type="line"/>
      <point x="1025" y="10"/>
      <point x="935" y="-40"/>
      <point x="755" y="-40" type="curve" smooth="yes"/>
      <point x="407" y="-40"/>
      <point x="203" y="144"/>
      <point x="259" y="516" type="curve" smooth="yes"/>
      <point x="307" y="826"/>
      <point x="507" y="1092"/>
      <point x="937" y="1092" type="curve" smooth="yes"/>
      <point x="1199" y="1092"/>
      <point x="1421" y="990"/>
      <point x="1369" y="648" type="curve" smooth="yes"/>
      <point x="1337" y="444"/>
      <point x="1243" y="360"/>
      <point x="1175" y="360" type="curve" smooth="yes"/>
      <point x="1141" y="360"/>
      <point x="1119" y="382"/>
      <point x="1145" y="458" type="curve" smooth="yes"/>
      <point x="1277" y="876" type="line"/>
      <point x="1071" y="876" type="line"/>
      <point x="1063" y="852" type="line" smooth="yes"/>
      <point x="1059" y="838"/>
      <point x="1051" y="836"/>
      <point x="1045" y="844" type="curve" smooth="yes"/>
      <point x="1005" y="886"/>
      <point x="965" y="926"/>
      <point x="855" y="926" type="curve" smooth="yes"/>
      <point x="605" y="926"/>
      <point x="419" y="708"/>
      <point x="385" y="476" type="curve" smooth="yes"/>
      <point x="351" y="266"/>
      <point x="461" y="130"/>
      <point x="639" y="130" type="curve" smooth="yes"/>
      <point x="743" y="130"/>
      <point x="839" y="176"/>
      <point x="907" y="240" type="curve" smooth="yes"/>
      <point x="921" y="254"/>
      <point x="923" y="256"/>
      <point x="933" y="242" type="curve" smooth="yes"/>
      <point x="953" y="214"/>
      <point x="995" y="158"/>
      <point x="1117" y="158" type="curve" smooth="yes"/>
      <point x="1349" y="158"/>
      <point x="1535" y="364"/>
      <point x="1581" y="660" type="curve" smooth="yes"/>
      <point x="1647" y="1102"/>
      <point x="1327" y="1288"/>
      <point x="967" y="1288" type="curve" smooth="yes"/>
      <point x="463" y="1288"/>
      <point x="103" y="930"/>
      <point x="39" y="510" type="curve" smooth="yes"/>
      <point x="-21" y="108"/>
      <point x="213" y="-220"/>
    </contour>
    <contour>
      <point x="743" y="348" type="curve" smooth="yes"/>
      <point x="657" y="348"/>
      <point x="631" y="426"/>
      <point x="643" y="504" type="curve" smooth="yes"/>
      <point x="661" y="620"/>
      <point x="755" y="710"/>
      <point x="843" y="710" type="curve" smooth="yes"/>
      <point x="927" y="710"/>
      <point x="957" y="630"/>
      <point x="945" y="552" type="curve" smooth="yes"/>
      <point x="929" y="452"/>
      <point x="841" y="348"/>
    </contour>
  </outline>
</glyph>
<glyph name="A" format="1">
  <advance width="1454"/>
  <unicode hex="0041"/>
  <outline>
    <contour>
      <point x="-53" y="0" type="line"/>
      <point x="333" y="0" type="line"/>
      <point x="473" y="280" type="line"/>
      <point x="927" y="280" type="line"/>
      <point x="979" y="0" type="line"/>
      <point x="1361" y="0" type="line"/>
      <point x="1071" y="1446" type="line"/>
      <point x="677" y="1446" type="line"/>
    </contour>
    <contour>
      <point x="605" y="612" type="line"/>
      <point x="819" y="1074" type="line"/>
      <point x="889" y="612" type="line"/>
    </contour>
    <contour>
      <point x="655" y="0" type="move" name="bottom"/>
    </contour>
    <contour>
      <point x="1317" y="10" type="move" name="ogonek"/>
    </contour>
    <contour>
      <point x="875" y="1446" type="move" name="top"/>
    </contour>
  </outline>
</glyph>
<glyph name="B" format="1">
  <advance width="1378"/>
  <unicode hex="0042"/>
  <outline>
    <contour>
      <point x="47" y="0" type="line"/>
      <point x="653" y="0" type="line" smooth="yes"/>
      <point x="1069" y="0"/>
      <point x="1249" y="124"/>
      <point x="1291" y="394" type="curve"/>
      <point x="1307" y="502"/>
      <point x="1319" y="668"/>
      <point x="1077" y="744" type="curve"/>
      <point x="1267" y="832"/>
      <point x="1339" y="930"/>
      <point x="1359" y="1064" type="curve" smooth="yes"/>
      <point x="1395" y="1310"/>
      <point x="1241" y="1446"/>
      <point x="841" y="1446" type="curve" smooth="yes"/>
      <point x="265" y="1446" type="line"/>
    </contour>
    <contour>
      <point x="479" y="292" type="line"/>
      <point x="523" y="582" type="line"/>
      <point x="765" y="582" type="line"/>
      <point x="861" y="582"/>
      <point x="917" y="522"/>
      <point x="905" y="442" type="curve" smooth="yes"/>
      <point x="893" y="366"/>
      <point x="823" y="292"/>
      <point x="711" y="292" type="curve"/>
    </contour>
    <contour>
      <point x="567" y="882" type="line"/>
      <point x="609" y="1154" type="line"/>
      <point x="837" y="1154" type="line" smooth="yes"/>
      <point x="929" y="1154"/>
      <point x="993" y="1100"/>
      <point x="979" y="1014" type="curve" smooth="yes"/>
      <point x="967" y="938"/>
      <point x="901" y="882"/>
      <point x="811" y="882" type="curve" smooth="yes"/>
    </contour>
  </outline>
</glyph>
<glyph name="C" format="1">
  <advance width="1520"/>
  <unicode hex="0043"/>
  <outline>
    <contour>
      <point x="724" y="-20" type="curve" smooth="yes"/>
      <point x="1184" y="-20"/>
      <point x="1348" y="240"/>
      <point x="1434" y="540" type="curve"/>
      <point x="1030" y="540" type="line"/>
      <point x="988" y="406"/>
      <point x="890" y="292"/>
      <point x="758" y="292" type="curve" smooth="yes"/>
      <point x="640" y="292"/>
      <point x="561" y="372"/>
      <point x="561" y="574" type="curve" smooth="yes"/>
      <point x="561" y="818"/>
      <point x="636" y="1154"/>
      <point x="888" y="1154" type="curve" smooth="yes"/>
      <point x="1022" y="1154"/>
      <point x="1088" y="1070"/>
      <point x="1090" y="936" type="curve"/>
      <point x="1494" y="936" type="line"/>
      <point x="1494" y="1272"/>
      <point x="1285" y="1466"/>
      <point x="950" y="1466" type="curve" smooth="yes"/>
      <point x="415" y="1466"/>
      <point x="141" y="1025"/>
      <point x="141" y="593" type="curve" smooth="yes"/>
      <point x="141" y="231"/>
      <point x="357" y="-20"/>
    </contour>
    <contour>
      <point x="728" y="0" type="move" name="bottom"/>
    </contour>
    <contour>
      <point x="946" y="1446" type="move" name="top"/>
    </contour>
  </outline>
</glyph>
<glyph name="D" format="1">
  <advance width="1538"/>
  <unicode hex="0044"/>
  <outline>
    <contour>
      <point x="77" y="0" type="line"/>
      <point x="600" y="0" type="line" smooth="yes"/>
      <point x="1327" y="0"/>
      <point x="1456" y="585"/>
      <point x="1456" y="856" type="curve" smooth="yes"/>
      <point x="1456" y="1427"/>
      <point x="980" y="1446"/>
      <point x="479" y="1446" type="curve" smooth="yes"/>
      <point x="386" y="1446"/>
      <point x="307" y="1446"/>
      <point x="288" y="1446" type="curve"/>
    </contour>
    <contour>
      <point x="511" y="306" type="line"/>
      <point x="637" y="1140" type="line"/>
      <point x="786" y="1140" type="line" smooth="yes"/>
      <point x="955" y="1140"/>
      <point x="1056" y="1044"/>
      <point x="1056" y="854" type="curve" smooth="yes"/>
      <point x="1056" y="564"/>
      <point x="873" y="306"/>
      <point x="640" y="306" type="curve" smooth="yes"/>
    </contour>
    <contour>
      <point x="541" y="0" type="move" name="bottom"/>
    </contour>
    <contour>
      <point x="791" y="724" type="move" name="center"/>
    </contour>
    <contour>
      <point x="1002" y="1446" type="move" name="top"/>
    </contour>
  </outline>
</glyph>
<glyph name="E" format="1">
  <advance width="1311"/>
  <unicode hex="0045"/>
  <outline>
    <contour>
      <point x="77" y="0" type="line"/>
      <point x="1139" y="0" type="line"/>
      <point x="1189" y="324" type="line"/>
      <point x="513" y="324" type="line"/>
      <point x="551" y="570" type="line"/>
      <point x="1113" y="570" type="line"/>
      <point x="1161" y="884" type="line"/>
      <point x="601" y="884" type="line"/>
      <point x="637" y="1124" type="line"/>
      <point x="1307" y="1124" type="line"/>
      <point x="1357" y="1446" type="line"/>
      <point x="297" y="1446" type="line"/>
    </contour>
    <contour>
      <point x="607" y="0" type="move" name="bottom"/>
    </contour>
    <contour>
      <point x="1141" y="20" type="move" name="ogonek"/>
    </contour>
    <contour>
      <point x="805" y="1446" type="move" name="top"/>
    </contour>
  </outline>
</glyph>
<glyph name="F" format="1">
  <advance width="1258"/>
  <unicode hex="0046"/>
  <outline>
    <contour>
      <point x="47" y="0" type="line"/>
      <point x="435" y="0" type="line"/>
      <point x="519" y="558" type="line"/>
      <point x="1073" y="558" type="line"/>
      <point x="1121" y="868" type="line"/>
      <point x="565" y="868" type="line"/>
      <point x="605" y="1128" type="line"/>
      <point x="1269" y="1128" type="line"/>
      <point x="1319" y="1446" type="line"/>
      <point x="267" y="1446" type="line"/>
    </contour>
  </outline>
</glyph>
<glyph name="G" format="1">
  <advance width="1603"/>
  <unicode hex="0047"/>
  <outline>
    <contour>
      <point x="714" y="-20" type="curve" smooth="yes"/>
      <point x="952" y="-20"/>
      <point x="1068" y="86"/>
      <point x="1152" y="160" type="curve"/>
      <point x="1128" y="0" type="line"/>
      <point x="1382" y="0" type="line"/>
      <point x="1498" y="764" type="line"/>
      <point x="840" y="768" type="line"/>
      <point x="800" y="506" type="line"/>
      <point x="1050" y="506" type="line"/>
      <point x="1026" y="454" type="line"/>
      <point x="996" y="388"/>
      <point x="906" y="318"/>
      <point x="796" y="318" type="curve" smooth="yes"/>
      <point x="672" y="318"/>
      <point x="516" y="376"/>
      <point x="570" y="730" type="curve" smooth="yes"/>
      <point x="618" y="1042"/>
      <point x="762" y="1144"/>
      <point x="906" y="1144" type="curve" smooth="yes"/>
      <point x="1040" y="1144"/>
      <point x="1100" y="1054"/>
      <point x="1108" y="936" type="curve"/>
      <point x="1512" y="936" type="line"/>
      <point x="1548" y="1206"/>
      <point x="1350" y="1466"/>
      <point x="964" y="1466" type="curve" smooth="yes"/>
      <point x="550" y="1466"/>
      <point x="216" y="1168"/>
      <point x="148" y="718" type="curve" smooth="yes"/>
      <point x="80" y="282"/>
      <point x="306" y="-20"/>
    </contour>
    <contour>
      <point x="722" y="0" type="move" name="bottom"/>
    </contour>
    <contour>
      <point x="950" y="1446" type="move" name="top"/>
    </contour>
  </outline>
</glyph>
<glyph name="H" format="1">
  <advance width="1516"/>
  <unicode hex="0048"/>
  <outline>
    <contour>
      <point x="77" y="0" type="line"/>
      <point x="465" y="0" type="line"/>
      <point x="553" y="580" type="line"/>
      <point x="987" y="580" type="line"/>
      <point x="899" y="0" type="line"/>
      <point x="1287" y="0" type="line"/>
      <point x="1507" y="1446" type="line"/>
      <point x="1119" y="1446" type="line"/>
      <point x="1037" y="898" type="line"/>
      <point x="601" y="898" type="line"/>
      <point x="685" y="1446" type="line"/>
      <point x="297" y="1446" type="line"/>
    </contour>
    <contour>
      <point x="673" y="0" type="move" name="bottom"/>
    </contour>
    <contour>
      <point x="901" y="1446" type="move" name="top"/>
    </contour>
  </outline>
</glyph>
<glyph name="I" format="1">
  <advance width="642"/>
  <unicode hex="0049"/>
  <outline>
    <contour>
      <point x="47" y="0" type="line"/>
      <point x="435" y="0" type="line"/>
      <point x="653" y="1446" type="line"/>
      <point x="265" y="1446" type="line"/>
    </contour>
    <contour>
      <point x="261" y="0" type="move" name="bottom"/>
    </contour>
    <contour>
      <point x="387" y="6" type="move" name="ogonek"/>
    </contour>
    <contour>
      <point x="461" y="1446" type="move" name="top"/>
    </contour>
  </outline>
</glyph>
<glyph name="J" format="1">
  <advance width="860"/>
  <unicode hex="004A"/>
  <outline>
    <contour>
      <point x="235" y="-20" type="curve" smooth="yes"/>
      <point x="581" y="-20"/>
      <point x="683" y="138"/>
      <point x="731" y="458" type="curve" smooth="yes"/>
      <point x="881" y="1446" type="line"/>
      <point x="495" y="1446" type="line"/>
      <point x="359" y="558" type="line" smooth="yes"/>
      <point x="337" y="408"/>
      <point x="293" y="340"/>
      <point x="155" y="340" type="curve" smooth="yes"/>
      <point x="113" y="340"/>
      <point x="65" y="346"/>
      <point x="29" y="350" type="curve"/>
      <point x="-23" y="0" type="line"/>
      <point x="35" y="-12"/>
      <point x="153" y="-20"/>
    </contour>
    <contour>
      <point x="679" y="1446" type="move" name="top"/>
    </contour>
  </outline>
</glyph>
<glyph name="K" format="1">
  <advance width="1466"/>
  <unicode hex="004B"/>
  <outline>
    <contour>
      <point x="47" y="0" type="line"/>
      <point x="449" y="0" type="line"/>
      <point x="507" y="378" type="line"/>
      <point x="721" y="610" type="line"/>
      <point x="949" y="0" type="line"/>
      <point x="1363" y="0" type="line"/>
      <point x="1039" y="894" type="line"/>
      <point x="1519" y="1446" type="line"/>
      <point x="1085" y="1446" type="line"/>
      <point x="581" y="862" type="line"/>
      <point x="669" y="1446" type="line"/>
      <point x="267" y="1446" type="line"/>
    </contour>
    <contour>
      <point x="629" y="0" type="move" name="bottom"/>
    </contour>
    <contour>
      <point x="873" y="1446" type="move" name="top"/>
    </contour>
  </outline>
</glyph>
<glyph name="L" format="1">
  <advance width="1165"/>
  <unicode hex="004C"/>
  <outline>
    <contour>
      <point x="77" y="0" type="line"/>
      <point x="1039" y="0" type="line"/>
      <point x="1087" y="320" type="line"/>
      <point x="513" y="320" type="line"/>
      <point x="683" y="1446" type="line"/>
      <point x="297" y="1446" type="line"/>
    </contour>
    <contour>
      <point x="551" y="0" type="move" name="bottom"/>
    </contour>
    <contour>
      <point x="481" y="1446" type="move" name="top"/>
    </contour>
    <contour>
      <point x="1133" y="1446" type="move" name="topright"/>
    </contour>
  </outline>
</glyph>
<glyph name="M" format="1">
  <advance width="1868"/>
  <unicode hex="004D"/>
  <outline>
    <contour>
      <point x="47" y="0" type="line"/>
      <point x="433" y="0" type="line"/>
      <point x="593" y="1048" type="line"/>
      <point x="715" y="0" type="line"/>
      <point x="993" y="0" type="line"/>
      <point x="1431" y="1048" type="line"/>
      <point x="1273" y="0" type="line"/>
      <point x="1661" y="0" type="line"/>
      <point x="1879" y="1446" type="line"/>
      <point x="1307" y="1446" type="line"/>
      <point x="939" y="564" type="line"/>
      <point x="841" y="1446" type="line"/>
      <point x="265" y="1446" type="line"/>
    </contour>
  </outline>
</glyph>
<glyph name="N" format="1">
  <advance width="1564"/>
  <unicode hex="004E"/>
  <outline>
    <contour>
      <point x="37" y="0" type="line"/>
      <point x="425" y="0" type="line"/>
      <point x="555" y="862" type="line"/>
      <point x="1025" y="0" type="line"/>
      <point x="1375" y="0" type="line"/>
      <point x="1595" y="1446" type="line"/>
      <point x="1207" y="1446" type="line"/>
      <point x="1085" y="640" type="line"/>
      <point x="647" y="1446" type="line"/>
      <point x="257" y="1446" type="line"/>
    </contour>
    <contour>
      <point x="705" y="0" type="move" name="bottom"/>
    </contour>
    <contour>
      <point x="925" y="1446" type="move" name="top"/>
    </contour>
  </outline>
</glyph>
<glyph name="O" format="1">
  <advance width="1633"/>
  <unicode hex="004F"/>
  <outline>
    <contour>
      <point x="735" y="-20" type="curve" smooth="yes"/>
      <point x="1157" y="-20"/>
      <point x="1473" y="272"/>
      <point x="1541" y="720" type="curve" smooth="yes"/>
      <point x="1609" y="1172"/>
      <point x="1377" y="1466"/>
      <point x="959" y="1466" type="curve" smooth="yes"/>
      <point x="541" y="1466"/>
      <point x="217" y="1172"/>
      <point x="149" y="720" type="curve" smooth="yes"/>
      <point x="81" y="270"/>
      <point x="307" y="-20"/>
    </contour>
    <contour>
      <point x="781" y="292" type="curve" smooth="yes"/>
      <point x="623" y="292"/>
      <point x="523" y="402"/>
      <point x="569" y="714" type="curve" smooth="yes"/>
      <point x="619" y="1036"/>
      <point x="753" y="1154"/>
      <point x="913" y="1154" type="curve" smooth="yes"/>
      <point x="1071" y="1154"/>
      <point x="1169" y="1036"/>
      <point x="1119" y="714" type="curve" smooth="yes"/>
      <point x="1073" y="402"/>
      <point x="941" y="292"/>
    </contour>
    <contour>
      <point x="739" y="0" type="move" name="bottom"/>
    </contour>
    <contour>
      <point x="1389" y="1094" type="move" name="horn"/>
    </contour>
    <contour>
      <point x="919" y="20" type="move" name="ogonek"/>
    </contour>
    <contour>
      <point x="937" y="1446" type="move" name="top"/>
    </contour>
  </outline>
</glyph>
<glyph name="P" format="1">
  <advance width="1413"/>
  <unicode hex="0050"/>
  <outline>
    <contour>
      <point x="77" y="0" type="line"/>
      <point x="465" y="0" type="line"/>
      <point x="541" y="498" type="line"/>
      <point x="771" y="498" type="line" smooth="yes"/>
      <point x="1087" y="498"/>
      <point x="1311" y="670"/>
      <point x="1355" y="956" type="curve" smooth="yes"/>
      <point x="1403" y="1270"/>
      <point x="1183" y="1446"/>
      <point x="865" y="1446" type="curve" smooth="yes"/>
      <point x="297" y="1446" type="line"/>
    </contour>
    <contour>
      <point x="581" y="788" type="line"/>
      <point x="637" y="1158" type="line"/>
      <point x="859" y="1158" type="line" smooth="yes"/>
      <point x="945" y="1158"/>
      <point x="1017" y="1076"/>
      <point x="1003" y="976" type="curve" smooth="yes"/>
      <point x="989" y="882"/>
      <point x="901" y="788"/>
      <point x="803" y="788" type="curve" smooth="yes"/>
    </contour>
  </outline>
</glyph>
<glyph name="Q" format="1">
  <advance width="1635"/>
  <unicode hex="0051"/>
  <outline>
    <contour>
      <point x="1395" y="-250" type="curve"/>
      <point x="1441" y="54" type="line"/>
      <point x="1343" y="54"/>
      <point x="1261" y="104"/>
      <point x="1255" y="160" type="curve"/>
      <point x="1405" y="300"/>
      <point x="1507" y="486"/>
      <point x="1543" y="720" type="curve" smooth="yes"/>
      <point x="1611" y="1172"/>
      <point x="1379" y="1466"/>
      <point x="959" y="1466" type="curve" smooth="yes"/>
      <point x="541" y="1466"/>
      <point x="217" y="1172"/>
      <point x="149" y="720" type="curve" smooth="yes"/>
      <point x="81" y="270"/>
      <point x="307" y="-20"/>
      <point x="735" y="-20" type="curve" smooth="yes"/>
      <point x="785" y="-20"/>
      <point x="825" y="-18"/>
      <point x="895" y="-10" type="curve"/>
      <point x="1033" y="-226"/>
      <point x="1165" y="-250"/>
    </contour>
    <contour>
      <point x="781" y="292" type="curve" smooth="yes"/>
      <point x="611" y="292"/>
      <point x="525" y="402"/>
      <point x="571" y="716" type="curve" smooth="yes"/>
      <point x="621" y="1038"/>
      <point x="745" y="1154"/>
      <point x="913" y="1154" type="curve" smooth="yes"/>
      <point x="1079" y="1154"/>
      <point x="1169" y="1038"/>
      <point x="1121" y="716" type="curve" smooth="yes"/>
      <point x="1073" y="402"/>
      <point x="953" y="292"/>
    </contour>
  </outline>
</glyph>
<glyph name="R" format="1">
  <advance width="1394"/>
  <unicode hex="0052"/>
  <outline>
    <contour>
      <point x="77" y="0" type="line"/>
      <point x="463" y="0" type="line"/>
      <point x="539" y="498" type="line"/>
      <point x="743" y="498" type="line"/>
      <point x="875" y="0" type="line"/>
      <point x="1271" y="0" type="line"/>
      <point x="1103" y="560" type="line"/>
      <point x="1249" y="642"/>
      <point x="1361" y="758"/>
      <point x="1395" y="980" type="curve" smooth="yes"/>
      <point x="1435" y="1242"/>
      <point x="1321" y="1446"/>
      <point x="947" y="1446" type="curve" smooth="yes"/>
      <point x="295" y="1446" type="line"/>
    </contour>
    <contour>
      <point x="583" y="788" type="line"/>
      <point x="639" y="1158" type="line"/>
      <point x="861" y="1158" type="line" smooth="yes"/>
      <point x="947" y="1158"/>
      <point x="1021" y="1076"/>
      <point x="1005" y="976" type="curve" smooth="yes"/>
      <point x="991" y="882"/>
      <point x="903" y="788"/>
      <point x="805" y="788" type="curve" smooth="yes"/>
    </contour>
    <contour>
      <point x="657" y="0" type="move" name="bottom"/>
    </contour>
    <contour>
      <point x="857" y="1446" type="move" name="top"/>
    </contour>
  </outline>
</glyph>
<glyph name="S" format="1">
  <advance width="1478"/>
  <unicode hex="0053"/>
  <outline>
    <contour>
      <point x="669" y="-20" type="curve" smooth="yes"/>
      <point x="1029" y="-20"/>
      <point x="1327" y="164"/>
      <point x="1363" y="410" type="curve" smooth="yes"/>
      <point x="1385" y="554"/>
      <point x="1399" y="814"/>
      <point x="993" y="886" type="curve" smooth="yes"/>
      <point x="775" y="924" type="line" smooth="yes"/>
      <point x="653" y="946"/>
      <point x="627" y="984"/>
      <point x="637" y="1050" type="curve" smooth="yes"/>
      <point x="645" y="1102"/>
      <point x="699" y="1164"/>
      <point x="851" y="1164" type="curve" smooth="yes"/>
      <point x="985" y="1164"/>
      <point x="1059" y="1120"/>
      <point x="1053" y="1008" type="curve"/>
      <point x="1445" y="1008" type="line"/>
      <point x="1455" y="1246"/>
      <point x="1239" y="1464"/>
      <point x="887" y="1464" type="curve" smooth="yes"/>
      <point x="557" y="1464"/>
      <point x="257" y="1294"/>
      <point x="215" y="1002" type="curve" smooth="yes"/>
      <point x="183" y="756"/>
      <point x="309" y="612"/>
      <point x="529" y="576" type="curve" smooth="yes"/>
      <point x="747" y="538" type="line" smooth="yes"/>
      <point x="865" y="518"/>
      <point x="981" y="498"/>
      <point x="969" y="410" type="curve" smooth="yes"/>
      <point x="953" y="308"/>
      <point x="833" y="278"/>
      <point x="711" y="278" type="curve" smooth="yes"/>
      <point x="577" y="278"/>
      <point x="497" y="338"/>
      <point x="491" y="440" type="curve"/>
      <point x="89" y="440" type="line"/>
      <point x="65" y="118"/>
      <point x="367" y="-20"/>
    </contour>
    <contour>
      <point x="665" y="0" type="move" name="bottom"/>
    </contour>
    <contour>
      <point x="885" y="1446" type="move" name="top"/>
    </contour>
  </outline>
</glyph>
<glyph name="T" format="1">
  <advance width="1309"/>
  <unicode hex="0054"/>
  <outline>
    <contour>
      <point x="372" y="0" type="line"/>
      <point x="758" y="0" type="line"/>
      <point x="926" y="1104" type="line"/>
      <point x="1338" y="1104" type="line"/>
      <point x="1390" y="1446" type="line"/>
      <point x="184" y="1446" type="line"/>
      <point x="132" y="1104" type="line"/>
      <point x="538" y="1104" type="line"/>
    </contour>
    <contour>
      <point x="584" y="0" type="move" name="bottom"/>
    </contour>
    <contour>
      <point x="804" y="1446" type="move" name="top"/>
    </contour>
  </outline>
</glyph>
<glyph name="U" format="1">
  <advance width="1558"/>
  <unicode hex="0055"/>
  <outline>
    <contour>
      <point x="707" y="-20" type="curve" smooth="yes"/>
      <point x="1169" y="-20"/>
      <point x="1365" y="230"/>
      <point x="1421" y="598" type="curve" smooth="yes"/>
      <point x="1549" y="1446" type="line"/>
      <point x="1157" y="1446" type="line"/>
      <point x="1027" y="582" type="line" smooth="yes"/>
      <point x="997" y="382"/>
      <point x="875" y="306"/>
      <point x="757" y="306" type="curve" smooth="yes"/>
      <point x="635" y="306"/>
      <point x="539" y="382"/>
      <point x="569" y="582" type="curve" smooth="yes"/>
      <point x="701" y="1446" type="line"/>
      <point x="309" y="1446" type="line"/>
      <point x="181" y="598" type="line" smooth="yes"/>
      <point x="125" y="230"/>
      <point x="243" y="-20"/>
    </contour>
    <contour>
      <point x="709" y="0" type="move" name="bottom"/>
    </contour>
    <contour>
      <point x="1429" y="1094" type="move" name="horn"/>
    </contour>
    <contour>
      <point x="871" y="24" type="move" name="ogonek"/>
    </contour>
    <contour>
      <point x="929" y="1446" type="move" name="top"/>
    </contour>
  </outline>
</glyph>
<glyph name="V" format="1">
  <advance width="1496"/>
  <unicode hex="0056"/>
  <outline>
    <contour>
      <point x="447" y="0" type="line"/>
      <point x="871" y="0" type="line"/>
      <point x="1577" y="1446" type="line"/>
      <point x="1211" y="1446" type="line"/>
      <point x="729" y="456" type="line"/>
      <point x="545" y="1446" type="line"/>
      <point x="181" y="1446" type="line"/>
    </contour>
  </outline>
</glyph>
<glyph name="W" format="1">
  <advance width="1992"/>
  <unicode hex="0057"/>
  <outline>
    <contour>
      <point x="395" y="0" type="line"/>
      <point x="679" y="0" type="line"/>
      <point x="1027" y="786" type="line"/>
      <point x="1135" y="0" type="line"/>
      <point x="1423" y="0" type="line"/>
      <point x="2073" y="1446" type="line"/>
      <point x="1699" y="1446" type="line"/>
      <point x="1367" y="670" type="line"/>
      <point x="1261" y="1446" type="line"/>
      <point x="991" y="1446" type="line"/>
      <point x="659" y="670" type="line"/>
      <point x="555" y="1446" type="line"/>
      <point x="181" y="1446" type="line"/>
    </contour>
    <contour>
      <point x="1127" y="1446" type="move" name="top"/>
    </contour>
  </outline>
</glyph>
<glyph name="X" format="1">
  <advance width="1516"/>
  <unicode hex="0058"/>
  <outline>
    <contour>
      <point x="-23" y="0" type="line"/>
      <point x="389" y="0" type="line"/>
      <point x="715" y="454" type="line"/>
      <point x="911" y="0" type="line"/>
      <point x="1393" y="0" type="line"/>
      <point x="1007" y="786" type="line"/>
      <point x="1535" y="1446" type="line"/>
      <point x="1131" y="1446" type="line"/>
      <point x="851" y="1054" type="line"/>
      <point x="687" y="1446" type="line"/>
      <point x="209" y="1446" type="line"/>
      <point x="557" y="730" type="line"/>
    </contour>
  </outline>
</glyph>
<glyph name="Y" format="1">
  <advance width="1506"/>
  <unicode hex="0059"/>
  <outline>
    <contour>
      <point x="469" y="0" type="line"/>
      <point x="855" y="0" type="line"/>
      <point x="947" y="602" type="line"/>
      <point x="1587" y="1446" type="line"/>
      <point x="1165" y="1446" type="line"/>
      <point x="805" y="932" type="line"/>
      <point x="599" y="1446" type="line"/>
      <point x="181" y="1446" type="line"/>
      <point x="559" y="602" type="line"/>
    </contour>
    <contour>
      <point x="663" y="0" type="move" name="bottom"/>
    </contour>
    <contour>
      <point x="865" y="1446" type="move" name="top"/>
    </contour>
  </outline>
</glyph>
<glyph name="Z" format="1">
  <advance width="1420"/>
  <unicode hex="005A"/>
  <outline>
    <contour>
      <point x="12" y="0" type="line"/>
      <point x="1234" y="0" type="line"/>
      <point x="1284" y="324" type="line"/>
      <point x="604" y="324" type="line"/>
      <point x="1440" y="1276" type="line"/>
      <point x="1466" y="1446" type="line"/>
      <point x="296" y="1446" type="line"/>
      <point x="246" y="1126" type="line"/>
      <point x="860" y="1126" type="line"/>
      <point x="40" y="178" type="line"/>
    </contour>
    <contour>
      <point x="634" y="0" type="move" name="bottom"/>
    </contour>
    <contour>
      <point x="900" y="1446" type="move" name="top"/>
    </contour>
  </outline>
</glyph>
<glyph name="bracketleft" format="2">
	<advance width="769"/>
	<unicode hex="005B"/>
	<outline>
		<contour>
			<point x="2" y="-330" type="line"/>
			<point x="547" y="-330" type="line"/>
			<point x="580" y="-117" type="line"/>
			<point x="350" y="-117" type="line"/>
			<point x="559" y="1268" type="line"/>
			<point x="788" y="1268" type="line"/>
			<point x="821" y="1481" type="line"/>
			<point x="276" y="1481" type="line"/>
		</contour>
	</outline>
</glyph>
<glyph name="backslash" format="1">
  <advance width="798"/>
  <unicode hex="005C"/>
  <outline>
    <contour>
      <point x="429" y="0" type="line"/>
      <point x="685" y="0" type="line"/>
      <point x="397" y="1446" type="line"/>
      <point x="141" y="1446" type="line"/>
    </contour>
  </outline>
</glyph>
<glyph name="asciicircum" format="2">
	<advance width="1006"/>
	<unicode hex="005E"/>
	<outline>
		<contour>
			<point x="10" y="240" type="line"/>
			<point x="260" y="240" type="line"/>
			<point x="516" y="694" type="line"/>
			<point x="635" y="240" type="line"/>
			<point x="883" y="240" type="line"/>
			<point x="674" y="1008" type="line" smooth="yes"/>
			<point x="645" y="1104"/>
			<point x="510" y="1098"/>
			<point x="455" y="1006" type="curve" smooth="yes"/>
		</contour>
	</outline>
</glyph>
<glyph name="underscore" format="1">
  <advance width="1167"/>
  <unicode hex="005F"/>
  <outline>
    <contour>
      <point x="-7" y="-312" type="line"/>
      <point x="927" y="-312" type="line"/>
      <point x="969" y="-40" type="line"/>
      <point x="35" y="-40" type="line"/>
    </contour>
  </outline>
</glyph>
<glyph name="a" format="1">
  <advance width="1156"/>
  <unicode hex="0061"/>
  <outline>
    <contour>
      <point x="342" y="-20" type="curve" smooth="yes"/>
      <point x="480" y="-20"/>
      <point x="572" y="24"/>
      <point x="656" y="164" type="curve"/>
      <point x="664" y="0" type="line"/>
      <point x="984" y="0" type="line"/>
      <point x="1096" y="732" type="line" smooth="yes"/>
      <point x="1124" y="922"/>
      <point x="1036" y="1054"/>
      <point x="680" y="1054" type="curve" smooth="yes"/>
      <point x="414" y="1054"/>
      <point x="186" y="956"/>
      <point x="136" y="712" type="curve"/>
      <point x="450" y="712" type="line"/>
      <point x="492" y="782"/>
      <point x="570" y="800"/>
      <point x="624" y="802" type="curve" smooth="yes"/>
      <point x="700" y="804"/>
      <point x="732" y="774"/>
      <point x="722" y="708" type="curve" smooth="yes"/>
      <point x="716" y="664" type="line"/>
      <point x="636" y="664" type="line" smooth="yes"/>
      <point x="262" y="664"/>
      <point x="70" y="534"/>
      <point x="36" y="310" type="curve" smooth="yes"/>
      <point x="4" y="96"/>
      <point x="146" y="-20"/>
    </contour>
    <contour>
      <point x="514" y="226" type="curve" smooth="yes"/>
      <point x="448" y="226"/>
      <point x="394" y="272"/>
      <point x="406" y="350" type="curve" smooth="yes"/>
      <point x="420" y="452"/>
      <point x="564" y="480"/>
      <point x="626" y="480" type="curve" smooth="yes"/>
      <point x="688" y="480" type="line"/>
      <point x="668" y="350" type="line"/>
      <point x="656" y="284"/>
      <point x="590" y="226"/>
    </contour>
    <contour>
      <point x="518" y="0" type="move" name="bottom"/>
    </contour>
    <contour>
      <point x="932" y="20" type="move" name="ogonek"/>
    </contour>
    <contour>
      <point x="676" y="1034" type="move" name="top"/>
    </contour>
  </outline>
</glyph>
<glyph name="b" format="2">
	<advance width="1224"/>
	<unicode hex="0062"/>
	<outline>
		<contour>
			<point x="651" y="-20" type="curve" smooth="yes"/>
			<point x="936" y="-20"/>
			<point x="1125" y="194"/>
			<point x="1175" y="524" type="curve" smooth="yes"/>
			<point x="1226" y="850"/>
			<point x="1109" y="1054"/>
			<point x="856" y="1054" type="curve" smooth="yes"/>
			<point x="755" y="1054"/>
			<point x="635" y="1004"/>
			<point x="547" y="878" type="curve"/>
			<point x="640" y="1486" type="line"/>
			<point x="251" y="1486" type="line"/>
			<point x="27" y="0" type="line"/>
			<point x="299" y="0" type="line"/>
			<point x="359" y="144" type="line"/>
			<point x="399" y="32"/>
			<point x="523" y="-20"/>
		</contour>
		<contour>
			<point x="589" y="252" type="curve"/>
			<point x="503" y="252"/>
			<point x="465" y="336"/>
			<point x="493" y="528" type="curve"/>
			<point x="493" y="528" type="line"/>
			<point x="522" y="706"/>
			<point x="587" y="780"/>
			<point x="675" y="780" type="curve" smooth="yes"/>
			<point x="755" y="780"/>
			<point x="815" y="736"/>
			<point x="783" y="528" type="curve" smooth="yes"/>
			<point x="753" y="320"/>
			<point x="682" y="252"/>
		</contour>
	</outline>
</glyph>
<glyph name="c" format="1">
  <advance width="1080"/>
  <unicode hex="0063"/>
  <outline>
    <contour>
      <point x="487" y="-20" type="curve" smooth="yes"/>
      <point x="767" y="-20"/>
      <point x="963" y="180"/>
      <point x="995" y="400" type="curve"/>
      <point x="691" y="400" type="line"/>
      <point x="679" y="358"/>
      <point x="635" y="248"/>
      <point x="537" y="248" type="curve" smooth="yes"/>
      <point x="439" y="248"/>
      <point x="379" y="346"/>
      <point x="405" y="516" type="curve" smooth="yes"/>
      <point x="431" y="682"/>
      <point x="509" y="766"/>
      <point x="609" y="766" type="curve" smooth="yes"/>
      <point x="707" y="766"/>
      <point x="721" y="670"/>
      <point x="719" y="612" type="curve"/>
      <point x="1033" y="612" type="line"/>
      <point x="1063" y="844"/>
      <point x="941" y="1054"/>
      <point x="649" y="1054" type="curve" smooth="yes"/>
      <point x="351" y="1054"/>
      <point x="97" y="832"/>
      <point x="49" y="512" type="curve" smooth="yes"/>
      <point x="1" y="196"/>
      <point x="193" y="-20"/>
    </contour>
    <contour>
      <point x="487" y="0" type="move" name="bottom"/>
    </contour>
    <contour>
      <point x="647" y="1034" type="move" name="top"/>
    </contour>
  </outline>
</glyph>
<glyph name="d" format="2">
	<advance width="1231"/>
	<unicode hex="0064"/>
	<anchor x="1261" y="1437" name="caron"/>
	<anchor x="513" y="0" name="bottom"/>
	<anchor x="591" y="516" name="center"/>
	<outline>
		<contour>
			<point x="409" y="-20" type="curve" smooth="yes"/>
			<point x="575" y="-20"/>
			<point x="687" y="68"/>
			<point x="753" y="212" type="curve"/>
			<point x="767" y="0" type="line"/>
			<point x="1041" y="0" type="line"/>
			<point x="1267" y="1486" type="line"/>
			<point x="879" y="1486" type="line"/>
			<point x="793" y="916" type="line"/>
			<point x="745" y="1022"/>
			<point x="631" y="1054"/>
			<point x="528" y="1054" type="curve" smooth="yes"/>
			<point x="276" y="1054"/>
			<point x="99" y="850"/>
			<point x="51" y="524" type="curve" smooth="yes"/>
			<point x="-1" y="194"/>
			<point x="125" y="-20"/>
		</contour>
		<contour>
			<point x="543" y="252" type="curve"/>
			<point x="453" y="252"/>
			<point x="393" y="320"/>
			<point x="425" y="528" type="curve" smooth="yes"/>
			<point x="455" y="736"/>
			<point x="541" y="780"/>
			<point x="619" y="780" type="curve" smooth="yes"/>
			<point x="705" y="780"/>
			<point x="765" y="728"/>
			<point x="741" y="568" type="curve"/>
			<point x="727" y="478" type="line"/>
			<point x="703" y="324"/>
			<point x="629" y="252"/>
		</contour>
	</outline>
</glyph>
<glyph name="e" format="1">
  <advance width="1144"/>
  <unicode hex="0065"/>
  <outline>
    <contour>
      <point x="511" y="-20" type="curve" smooth="yes"/>
      <point x="741" y="-20"/>
      <point x="995" y="122"/>
      <point x="1061" y="352" type="curve"/>
      <point x="719" y="352" type="line"/>
      <point x="675" y="272"/>
      <point x="615" y="252"/>
      <point x="543" y="252" type="curve" smooth="yes"/>
      <point x="459" y="252"/>
      <point x="399" y="304"/>
      <point x="421" y="428" type="curve"/>
      <point x="1069" y="428" type="line"/>
      <point x="1083" y="518" type="line"/>
      <point x="1129" y="824"/>
      <point x="995" y="1054"/>
      <point x="659" y="1054" type="curve" smooth="yes"/>
      <point x="329" y="1054"/>
      <point x="97" y="800"/>
      <point x="53" y="504" type="curve" smooth="yes"/>
      <point x="5" y="190"/>
      <point x="191" y="-20"/>
    </contour>
    <contour>
      <point x="451" y="646" type="line"/>
      <point x="463" y="724"/>
      <point x="539" y="792"/>
      <point x="619" y="792" type="curve" smooth="yes"/>
      <point x="717" y="792"/>
      <point x="757" y="724"/>
      <point x="745" y="646" type="curve"/>
    </contour>
    <contour>
      <point x="507" y="0" type="move" name="bottom"/>
    </contour>
    <contour>
      <point x="763" y="50" type="move" name="ogonek"/>
    </contour>
    <contour>
      <point x="657" y="1034" type="move" name="top"/>
    </contour>
  </outline>
</glyph>
<glyph name="f" format="1">
  <advance width="815"/>
  <unicode hex="0066"/>
  <outline>
    <contour>
      <point x="124" y="0" type="line"/>
      <point x="510" y="0" type="line"/>
      <point x="628" y="770" type="line"/>
      <point x="814" y="770" type="line"/>
      <point x="854" y="1034" type="line"/>
      <point x="660" y="1034" type="line"/>
      <point x="668" y="1094" type="line" smooth="yes"/>
      <point x="680" y="1170"/>
      <point x="706" y="1194"/>
      <point x="770" y="1194" type="curve" smooth="yes"/>
      <point x="888" y="1194" type="line"/>
      <point x="926" y="1446" type="line"/>
      <point x="650" y="1446" type="line" smooth="yes"/>
      <point x="462" y="1446"/>
      <point x="328" y="1342"/>
      <point x="302" y="1172" type="curve" smooth="yes"/>
      <point x="280" y="1034" type="line"/>
      <point x="116" y="1034" type="line"/>
      <point x="76" y="770" type="line"/>
      <point x="240" y="770" type="line"/>
    </contour>
  </outline>
</glyph>
<glyph name="g" format="1">
  <advance width="1355"/>
  <unicode hex="0067"/>
  <outline>
    <contour>
      <point x="554" y="-342" type="curve" smooth="yes"/>
      <point x="937" y="-342"/>
      <point x="1145" y="-205"/>
      <point x="1172" y="-16" type="curve" smooth="yes"/>
      <point x="1196" y="155"/>
      <point x="1081" y="295"/>
      <point x="788" y="314" type="curve" smooth="yes"/>
      <point x="710" y="321"/>
      <point x="629" y="323"/>
      <point x="584" y="327" type="curve" smooth="yes"/>
      <point x="512" y="333"/>
      <point x="451" y="343"/>
      <point x="444" y="375" type="curve" smooth="yes"/>
      <point x="441" y="389"/>
      <point x="459" y="381"/>
      <point x="489" y="379" type="curve"/>
      <point x="514" y="377"/>
      <point x="585" y="374"/>
      <point x="626" y="374" type="curve" smooth="yes"/>
      <point x="945" y="374"/>
      <point x="1134" y="543"/>
      <point x="1158" y="708" type="curve" smooth="yes"/>
      <point x="1161" y="731"/>
      <point x="1160" y="769"/>
      <point x="1156" y="799" type="curve"/>
      <point x="1340" y="834" type="line"/>
      <point x="1372" y="1114" type="line"/>
      <point x="1252" y="1066"/>
      <point x="1096" y="1010"/>
      <point x="1005" y="975" type="curve"/>
      <point x="942" y="1011"/>
      <point x="867" y="1050"/>
      <point x="710" y="1050" type="curve" smooth="yes"/>
      <point x="406" y="1050"/>
      <point x="185" y="930"/>
      <point x="159" y="750" type="curve" smooth="yes"/>
      <point x="142" y="629"/>
      <point x="203" y="490"/>
      <point x="335" y="426" type="curve"/>
      <point x="161" y="400"/>
      <point x="85" y="331"/>
      <point x="75" y="260" type="curve" smooth="yes"/>
      <point x="57" y="135"/>
      <point x="174" y="85"/>
      <point x="194" y="73" type="curve"/>
      <point x="169" y="64"/>
      <point x="-16" y="41"/>
      <point x="-34" y="-82" type="curve" smooth="yes"/>
      <point x="-54" y="-225"/>
      <point x="137" y="-342"/>
    </contour>
    <contour>
      <point x="607" y="-138" type="curve" smooth="yes"/>
      <point x="418" y="-138"/>
      <point x="337" y="-126"/>
      <point x="345" y="-71" type="curve" smooth="yes"/>
      <point x="351" y="-26"/>
      <point x="394" y="23"/>
      <point x="501" y="17" type="curve" smooth="yes"/>
      <point x="688" y="5" type="line" smooth="yes"/>
      <point x="767" y="-1"/>
      <point x="803" y="-19"/>
      <point x="799" y="-52" type="curve" smooth="yes"/>
      <point x="792" y="-101"/>
      <point x="752" y="-138"/>
    </contour>
    <contour>
      <point x="631" y="578" type="curve" smooth="yes"/>
      <point x="566" y="578"/>
      <point x="532" y="625"/>
      <point x="541" y="692" type="curve" smooth="yes"/>
      <point x="554" y="781"/>
      <point x="624" y="860"/>
      <point x="707" y="860" type="curve" smooth="yes"/>
      <point x="772" y="860"/>
      <point x="805" y="803"/>
      <point x="795" y="736" type="curve" smooth="yes"/>
      <point x="783" y="647"/>
      <point x="714" y="578"/>
    </contour>
    <contour>
      <point x="810" y="1034" type="move" name="top"/>
    </contour>
  </outline>
</glyph>
<glyph name="h" format="1">
  <advance width="1196"/>
  <unicode hex="0068"/>
  <outline>
    <contour>
      <point x="17" y="0" type="line"/>
      <point x="405" y="0" type="line"/>
      <point x="503" y="642" type="line"/>
      <point x="511" y="700"/>
      <point x="581" y="740"/>
      <point x="639" y="740" type="curve" smooth="yes"/>
      <point x="697" y="740"/>
      <point x="755" y="704"/>
      <point x="745" y="646" type="curve" smooth="yes"/>
      <point x="647" y="0" type="line"/>
      <point x="1035" y="0" type="line"/>
      <point x="1141" y="692" type="line" smooth="yes"/>
      <point x="1171" y="898"/>
      <point x="1025" y="1034"/>
      <point x="833" y="1034" type="curve" smooth="yes"/>
      <point x="671" y="1034"/>
      <point x="599" y="966"/>
      <point x="543" y="906" type="curve"/>
      <point x="631" y="1486" type="line"/>
      <point x="243" y="1486" type="line"/>
    </contour>
    <contour>
      <point x="529" y="0" type="move" name="bottom"/>
    </contour>
    <contour>
      <point x="425" y="1446" type="move" name="top"/>
    </contour>
  </outline>
</glyph>
<glyph name="i" format="2">
	<advance width="591"/>
	<unicode hex="0069"/>
	<anchor x="222" y="0" name="bottom"/>
	<outline>
		<contour>
			<point x="37" y="0" type="line"/>
			<point x="407" y="0" type="line"/>
			<point x="553" y="1034" type="line"/>
			<point x="183" y="1034" type="line"/>
		</contour>
		<contour>
			<point x="195" y="1118" type="line"/>
			<point x="565" y="1118" type="line"/>
			<point x="611" y="1446" type="line"/>
			<point x="241" y="1446" type="line"/>
		</contour>
	</outline>
</glyph>
<glyph name="j" format="1">
  <advance width="649"/>
  <unicode hex="006A"/>
  <outline>
    <contour>
      <point x="-17" y="-332" type="curve"/>
      <point x="257" y="-332"/>
      <point x="409" y="-200"/>
      <point x="447" y="56" type="curve" smooth="yes"/>
      <point x="597" y="1034" type="line"/>
      <point x="209" y="1034" type="line"/>
      <point x="61" y="56" type="line"/>
      <point x="55" y="14"/>
      <point x="31" y="-12"/>
      <point x="-45" y="-28" type="curve"/>
      <point x="-107" y="-38" type="line"/>
      <point x="-145" y="-298" type="line"/>
      <point x="-145" y="-298"/>
      <point x="-119" y="-332"/>
    </contour>
    <contour>
      <point x="227" y="1158" type="line"/>
      <point x="615" y="1158" type="line"/>
      <point x="665" y="1486" type="line"/>
      <point x="277" y="1486" type="line"/>
    </contour>
  </outline>
</glyph>
<glyph name="k" format="1">
  <advance width="1184"/>
  <unicode hex="006B"/>
  <outline>
    <contour>
      <point x="17" y="0" type="line"/>
      <point x="403" y="0" type="line"/>
      <point x="449" y="292" type="line"/>
      <point x="537" y="380" type="line"/>
      <point x="715" y="0" type="line"/>
      <point x="1091" y="0" type="line"/>
      <point x="805" y="606" type="line"/>
      <point x="1247" y="1034" type="line"/>
      <point x="843" y="1034" type="line"/>
      <point x="507" y="686" type="line"/>
      <point x="629" y="1486" type="line"/>
      <point x="241" y="1486" type="line"/>
    </contour>
    <contour>
      <point x="519" y="0" type="move" name="bottom"/>
    </contour>
  </outline>
</glyph>
<glyph name="l" format="1">
  <advance width="665"/>
  <unicode hex="006C"/>
  <outline>
    <contour>
      <point x="413" y="-22" type="curve" smooth="yes"/>
      <point x="461" y="-22"/>
      <point x="513" y="-8"/>
      <point x="561" y="10" type="curve"/>
      <point x="597" y="246" type="line"/>
      <point x="557" y="250" type="line"/>
      <point x="455" y="264"/>
      <point x="451" y="314"/>
      <point x="459" y="364" type="curve" smooth="yes"/>
      <point x="629" y="1486" type="line"/>
      <point x="249" y="1486" type="line"/>
      <point x="71" y="312" type="line"/>
      <point x="49" y="160"/>
      <point x="33" y="-22"/>
    </contour>
    <contour>
      <point x="189" y="0" type="move" name="bottom"/>
    </contour>
    <contour>
      <point x="449" y="1530" type="move" name="top"/>
    </contour>
    <contour>
      <point x="931" y="1530" type="move" name="topright"/>
    </contour>
  </outline>
</glyph>
<glyph name="m" format="1">
  <advance width="1823"/>
  <unicode hex="006D"/>
  <outline>
    <contour>
      <point x="17" y="0" type="line"/>
      <point x="403" y="0" type="line"/>
      <point x="507" y="682" type="line"/>
      <point x="517" y="742"/>
      <point x="585" y="778"/>
      <point x="643" y="778" type="curve" smooth="yes"/>
      <point x="701" y="778"/>
      <point x="759" y="742"/>
      <point x="749" y="682" type="curve" smooth="yes"/>
      <point x="645" y="0" type="line"/>
      <point x="1031" y="0" type="line"/>
      <point x="1125" y="620" type="line" smooth="yes"/>
      <point x="1141" y="716"/>
      <point x="1163" y="778"/>
      <point x="1275" y="778" type="curve" smooth="yes"/>
      <point x="1333" y="778"/>
      <point x="1389" y="742"/>
      <point x="1379" y="682" type="curve" smooth="yes"/>
      <point x="1275" y="0" type="line"/>
      <point x="1663" y="0" type="line"/>
      <point x="1773" y="728" type="line" smooth="yes"/>
      <point x="1805" y="934"/>
      <point x="1647" y="1054"/>
      <point x="1487" y="1054" type="curve" smooth="yes"/>
      <point x="1377" y="1054"/>
      <point x="1239" y="998"/>
      <point x="1153" y="910" type="curve"/>
      <point x="1103" y="1018"/>
      <point x="991" y="1054"/>
      <point x="891" y="1054" type="curve" smooth="yes"/>
      <point x="731" y="1054"/>
      <point x="615" y="992"/>
      <point x="535" y="910" type="curve"/>
      <point x="555" y="1034" type="line"/>
      <point x="173" y="1034" type="line"/>
    </contour>
  </outline>
</glyph>
<glyph name="n" format="1">
  <advance width="1198"/>
  <unicode hex="006E"/>
  <outline>
    <contour>
      <point x="17" y="0" type="line"/>
      <point x="405" y="0" type="line"/>
      <point x="503" y="646" type="line"/>
      <point x="511" y="704"/>
      <point x="585" y="740"/>
      <point x="643" y="740" type="curve" smooth="yes"/>
      <point x="699" y="740"/>
      <point x="757" y="704"/>
      <point x="747" y="646" type="curve" smooth="yes"/>
      <point x="649" y="0" type="line"/>
      <point x="1037" y="0" type="line"/>
      <point x="1143" y="698" type="line" smooth="yes"/>
      <point x="1173" y="892"/>
      <point x="1015" y="1038"/>
      <point x="835" y="1038" type="curve" smooth="yes"/>
      <point x="673" y="1038"/>
      <point x="613" y="976"/>
      <point x="539" y="910" type="curve"/>
      <point x="557" y="1034" type="line"/>
      <point x="175" y="1034" type="line"/>
    </contour>
    <contour>
      <point x="527" y="0" type="move" name="bottom"/>
    </contour>
    <contour>
      <point x="683" y="1034" type="move" name="top"/>
    </contour>
  </outline>
</glyph>
<glyph name="o" format="1">
  <advance width="1159"/>
  <unicode hex="006F"/>
  <outline>
    <contour>
      <point x="499" y="-20" type="curve" smooth="yes"/>
      <point x="819" y="-20"/>
      <point x="1055" y="202"/>
      <point x="1103" y="510" type="curve" smooth="yes"/>
      <point x="1151" y="824"/>
      <point x="987" y="1054"/>
      <point x="665" y="1054" type="curve" smooth="yes"/>
      <point x="359" y="1054"/>
      <point x="109" y="836"/>
      <point x="59" y="510" type="curve" smooth="yes"/>
      <point x="13" y="200"/>
      <point x="181" y="-20"/>
    </contour>
    <contour>
      <point x="545" y="262" type="curve" smooth="yes"/>
      <point x="419" y="262"/>
      <point x="421" y="414"/>
      <point x="437" y="524" type="curve" smooth="yes"/>
      <point x="453" y="636"/>
      <point x="497" y="776"/>
      <point x="623" y="776" type="curve" smooth="yes"/>
      <point x="745" y="776"/>
      <point x="747" y="636"/>
      <point x="729" y="524" type="curve" smooth="yes"/>
      <point x="713" y="414"/>
      <point x="667" y="262"/>
    </contour>
    <contour>
      <point x="499" y="0" type="move" name="bottom"/>
    </contour>
    <contour>
      <point x="971" y="668" type="move" name="horn"/>
    </contour>
    <contour>
      <point x="659" y="20" type="move" name="ogonek"/>
    </contour>
    <contour>
      <point x="661" y="1034" type="move" name="top"/>
    </contour>
  </outline>
</glyph>
<glyph name="p" format="1">
  <advance width="1198"/>
  <unicode hex="0070"/>
  <outline>
    <contour>
      <point x="-28" y="-322" type="line"/>
      <point x="360" y="-322" type="line"/>
      <point x="432" y="156" type="line"/>
      <point x="472" y="8"/>
      <point x="552" y="-20"/>
      <point x="648" y="-20" type="curve" smooth="yes"/>
      <point x="866" y="-20"/>
      <point x="1108" y="126"/>
      <point x="1168" y="520" type="curve" smooth="yes"/>
      <point x="1224" y="886"/>
      <point x="1066" y="1054"/>
      <point x="852" y="1054" type="curve" smooth="yes"/>
      <point x="754" y="1054"/>
      <point x="642" y="1020"/>
      <point x="548" y="914" type="curve"/>
      <point x="566" y="1034" type="line"/>
      <point x="178" y="1034" type="line"/>
    </contour>
    <contour>
      <point x="608" y="252" type="curve"/>
      <point x="524" y="252"/>
      <point x="458" y="334"/>
      <point x="476" y="442" type="curve"/>
      <point x="498" y="598" type="line"/>
      <point x="512" y="688"/>
      <point x="604" y="780"/>
      <point x="688" y="780" type="curve" smooth="yes"/>
      <point x="772" y="780"/>
      <point x="836" y="688"/>
      <point x="810" y="520" type="curve" smooth="yes"/>
      <point x="782" y="334"/>
      <point x="692" y="252"/>
    </contour>
  </outline>
</glyph>
<glyph name="q" format="2">
	<advance width="1228"/>
	<unicode hex="0071"/>
	<outline>
		<contour>
			<point x="606" y="-322" type="line"/>
			<point x="995" y="-322" type="line"/>
			<point x="1201" y="1034" type="line"/>
			<point x="811" y="1034" type="line"/>
			<point x="799" y="954" type="line"/>
			<point x="729" y="1020"/>
			<point x="629" y="1054"/>
			<point x="533" y="1054" type="curve" smooth="yes"/>
			<point x="316" y="1054"/>
			<point x="106" y="886"/>
			<point x="51" y="520" type="curve" smooth="yes"/>
			<point x="-10" y="126"/>
			<point x="163" y="-20"/>
			<point x="379" y="-20" type="curve" smooth="yes"/>
			<point x="467" y="-20"/>
			<point x="559" y="4"/>
			<point x="671" y="96" type="curve"/>
		</contour>
		<contour>
			<point x="553" y="232" type="curve"/>
			<point x="465" y="232"/>
			<point x="417" y="342"/>
			<point x="444" y="528" type="curve" smooth="yes"/>
			<point x="473" y="716"/>
			<point x="551" y="800"/>
			<point x="639" y="800" type="curve" smooth="yes"/>
			<point x="727" y="800"/>
			<point x="765" y="716"/>
			<point x="736" y="528" type="curve"/>
			<point x="736" y="528" type="line"/>
			<point x="709" y="342"/>
			<point x="639" y="232"/>
		</contour>
	</outline>
</glyph>
<glyph name="r" format="1">
  <advance width="832"/>
  <unicode hex="0072"/>
  <outline>
    <contour>
      <point x="17" y="0" type="line"/>
      <point x="405" y="0" type="line"/>
      <point x="481" y="496" type="line" smooth="yes"/>
      <point x="497" y="604"/>
      <point x="559" y="718"/>
      <point x="843" y="688" type="curve"/>
      <point x="897" y="1054" type="line"/>
      <point x="705" y="1054"/>
      <point x="577" y="914"/>
      <point x="505" y="748" type="curve"/>
      <point x="547" y="1034" type="line"/>
      <point x="175" y="1034" type="line"/>
    </contour>
    <contour>
      <point x="205" y="0" type="move" name="bottom"/>
    </contour>
    <contour>
      <point x="543" y="1034" type="move" name="top"/>
    </contour>
  </outline>
</glyph>
<glyph name="s" format="1">
  <advance width="1025"/>
  <unicode hex="0073"/>
  <outline>
    <contour>
      <point x="467" y="-20" type="curve" smooth="yes"/>
      <point x="722" y="-20"/>
      <point x="934" y="87"/>
      <point x="964" y="298" type="curve" smooth="yes"/>
      <point x="978" y="395"/>
      <point x="949" y="577"/>
      <point x="692" y="641" type="curve"/>
      <point x="562" y="666" type="line"/>
      <point x="453" y="684"/>
      <point x="420" y="695"/>
      <point x="423" y="720" type="curve" smooth="yes"/>
      <point x="430" y="771"/>
      <point x="495" y="798"/>
      <point x="576" y="798" type="curve" smooth="yes"/>
      <point x="639" y="798"/>
      <point x="696" y="785"/>
      <point x="704" y="723" type="curve"/>
      <point x="1015" y="701" type="line"/>
      <point x="1052" y="911"/>
      <point x="877" y="1054"/>
      <point x="586" y="1054" type="curve" smooth="yes"/>
      <point x="293" y="1054"/>
      <point x="112" y="913"/>
      <point x="89" y="732" type="curve" smooth="yes"/>
      <point x="63" y="535"/>
      <point x="189" y="432"/>
      <point x="382" y="396" type="curve"/>
      <point x="533" y="372" type="line"/>
      <point x="623" y="358"/>
      <point x="645" y="347"/>
      <point x="641" y="320" type="curve" smooth="yes"/>
      <point x="634" y="267"/>
      <point x="560" y="236"/>
      <point x="465" y="236" type="curve" smooth="yes"/>
      <point x="440" y="236"/>
      <point x="343" y="237"/>
      <point x="331" y="337" type="curve"/>
      <point x="8" y="359" type="line"/>
      <point x="15" y="95"/>
      <point x="242" y="-20"/>
    </contour>
    <contour>
      <point x="374" y="0" type="move" name="bottom"/>
    </contour>
    <contour>
      <point x="677" y="1034" type="move" name="top"/>
    </contour>
  </outline>
</glyph>
<glyph name="t" format="1">
  <advance width="929"/>
  <unicode hex="0074"/>
  <outline>
    <contour>
      <point x="558" y="-16" type="curve" smooth="yes"/>
      <point x="682" y="-16"/>
      <point x="738" y="2"/>
      <point x="768" y="16" type="curve"/>
      <point x="802" y="246" type="line"/>
      <point x="642" y="246" type="line" smooth="yes"/>
      <point x="608" y="246"/>
      <point x="582" y="256"/>
      <point x="588" y="302" type="curve" smooth="yes"/>
      <point x="658" y="770" type="line"/>
      <point x="882" y="770" type="line"/>
      <point x="922" y="1036" type="line"/>
      <point x="698" y="1036" type="line"/>
      <point x="746" y="1356" type="line"/>
      <point x="432" y="1356" type="line"/>
      <point x="326" y="1034" type="line"/>
      <point x="146" y="1034" type="line"/>
      <point x="106" y="770" type="line"/>
      <point x="272" y="770" type="line"/>
      <point x="198" y="284" type="line" smooth="yes"/>
      <point x="174" y="118"/>
      <point x="234" y="-16"/>
    </contour>
    <contour>
      <point x="464" y="18" type="move" name="bottom"/>
    </contour>
    <contour>
      <point x="468" y="516" type="move" name="center"/>
    </contour>
    <contour>
      <point x="1048" y="1590" type="move" name="topright"/>
    </contour>
  </outline>
</glyph>
<glyph name="u" format="1">
  <advance width="1185"/>
  <unicode hex="0075"/>
  <outline>
    <contour>
      <point x="380" y="-20" type="curve" smooth="yes"/>
      <point x="478" y="-20"/>
      <point x="646" y="6"/>
      <point x="714" y="212" type="curve"/>
      <point x="728" y="0" type="line"/>
      <point x="1014" y="0" type="line"/>
      <point x="1178" y="1034" type="line"/>
      <point x="788" y="1034" type="line"/>
      <point x="686" y="360" type="line"/>
      <point x="676" y="300"/>
      <point x="626" y="254"/>
      <point x="548" y="254" type="curve" smooth="yes"/>
      <point x="470" y="254"/>
      <point x="436" y="300"/>
      <point x="444" y="360" type="curve" smooth="yes"/>
      <point x="548" y="1034" type="line"/>
      <point x="160" y="1034" type="line"/>
      <point x="50" y="306" type="line" smooth="yes"/>
      <point x="18" y="98"/>
      <point x="212" y="-20"/>
    </contour>
    <contour>
      <point x="514" y="0" type="move" name="bottom"/>
    </contour>
    <contour>
      <point x="1066" y="714" type="move" name="horn"/>
    </contour>
    <contour>
      <point x="964" y="20" type="move" name="ogonek"/>
    </contour>
    <contour>
      <point x="668" y="1034" type="move" name="top"/>
    </contour>
  </outline>
</glyph>
<glyph name="v" format="1">
  <advance width="1028"/>
  <unicode hex="0076"/>
  <outline>
    <contour>
      <point x="305" y="0" type="line"/>
      <point x="553" y="0" type="line"/>
      <point x="1111" y="1034" type="line"/>
      <point x="761" y="1034" type="line"/>
      <point x="507" y="506" type="line"/>
      <point x="507" y="506" type="line"/>
      <point x="407" y="1034" type="line"/>
      <point x="63" y="1034" type="line"/>
    </contour>
  </outline>
</glyph>
<glyph name="w" format="1">
  <advance width="1626"/>
  <unicode hex="0077"/>
  <outline>
    <contour>
      <point x="293" y="0" type="line"/>
      <point x="557" y="0" type="line"/>
      <point x="797" y="502" type="line"/>
      <point x="873" y="0" type="line"/>
      <point x="1149" y="0" type="line"/>
      <point x="1669" y="1034" type="line"/>
      <point x="1325" y="1034" type="line"/>
      <point x="1089" y="530" type="line"/>
      <point x="1089" y="530" type="line"/>
      <point x="1019" y="1034" type="line"/>
      <point x="751" y="1034" type="line"/>
      <point x="523" y="532" type="line"/>
      <point x="523" y="532" type="line"/>
      <point x="439" y="1034" type="line"/>
      <point x="103" y="1034" type="line"/>
    </contour>
    <contour>
      <point x="893" y="1034" type="move" name="top"/>
    </contour>
  </outline>
</glyph>
<glyph name="x" format="1">
  <advance width="1250"/>
  <unicode hex="0078"/>
  <outline>
    <contour>
      <point x="-43" y="0" type="line"/>
      <point x="355" y="0" type="line"/>
      <point x="595" y="274" type="line"/>
      <point x="751" y="0" type="line"/>
      <point x="1147" y="0" type="line"/>
      <point x="837" y="540" type="line"/>
      <point x="1273" y="1034" type="line"/>
      <point x="875" y="1034" type="line"/>
      <point x="679" y="810" type="line"/>
      <point x="547" y="1034" type="line"/>
      <point x="151" y="1034" type="line"/>
      <point x="433" y="540" type="line"/>
    </contour>
  </outline>
</glyph>
<glyph name="y" format="1">
  <advance width="1134"/>
  <unicode hex="0079"/>
  <outline>
    <contour>
      <point x="161" y="-330" type="curve" smooth="yes"/>
      <point x="339" y="-330"/>
      <point x="485" y="-266"/>
      <point x="669" y="60" type="curve" smooth="yes"/>
      <point x="1217" y="1034" type="line"/>
      <point x="839" y="1034" type="line"/>
      <point x="551" y="472" type="line"/>
      <point x="443" y="1034" type="line"/>
      <point x="63" y="1034" type="line"/>
      <point x="315" y="60" type="line"/>
      <point x="307" y="40" type="line"/>
      <point x="301" y="28"/>
      <point x="279" y="-62"/>
      <point x="79" y="-46" type="curve" smooth="yes"/>
      <point x="-19" y="-40" type="line"/>
      <point x="-55" y="-286" type="line" smooth="yes"/>
      <point x="-55" y="-286"/>
      <point x="3" y="-330"/>
    </contour>
    <contour>
      <point x="626" y="1034" type="move" name="top"/>
    </contour>
  </outline>
</glyph>
<glyph name="z" format="1">
  <advance width="1142"/>
  <unicode hex="007A"/>
  <outline>
    <contour>
      <point x="-3" y="0" type="line"/>
      <point x="969" y="0" type="line"/>
      <point x="1007" y="242" type="line"/>
      <point x="519" y="242" type="line"/>
      <point x="1097" y="856" type="line"/>
      <point x="1125" y="1034" type="line"/>
      <point x="199" y="1034" type="line"/>
      <point x="163" y="796" type="line"/>
      <point x="597" y="796" type="line"/>
      <point x="25" y="184" type="line"/>
    </contour>
    <contour>
      <point x="505" y="0" type="move" name="bottom"/>
    </contour>
    <contour>
      <point x="661" y="1034" type="move" name="top"/>
    </contour>
  </outline>
</glyph>
<glyph name="braceleft" format="2">
	<advance width="899"/>
	<unicode hex="007B"/>
	<outline>
		<contour>
			<point x="493" y="-330" type="curve" smooth="yes"/>
			<point x="675" y="-330" type="line"/>
			<point x="708" y="-117" type="line"/>
			<point x="605" y="-117" type="line" smooth="yes"/>
			<point x="507" y="-117"/>
			<point x="482" y="-86"/>
			<point x="495" y="-10" type="curve" smooth="yes"/>
			<point x="552" y="373" type="line" smooth="yes"/>
			<point x="572" y="541"/>
			<point x="447" y="573"/>
			<point x="357" y="582" type="curve" smooth="yes"/>
			<point x="341" y="584"/>
			<point x="343" y="592"/>
			<point x="359" y="594" type="curve" smooth="yes"/>
			<point x="456" y="604"/>
			<point x="589" y="647"/>
			<point x="615" y="782" type="curve" smooth="yes"/>
			<point x="673" y="1161" type="line" smooth="yes"/>
			<point x="681" y="1214"/>
			<point x="689" y="1268"/>
			<point x="814" y="1268" type="curve" smooth="yes"/>
			<point x="919" y="1268" type="line"/>
			<point x="951" y="1481" type="line"/>
			<point x="761" y="1481" type="line" smooth="yes"/>
			<point x="605" y="1481"/>
			<point x="392" y="1397"/>
			<point x="364" y="1210" type="curve" smooth="yes"/>
			<point x="308" y="848" type="line" smooth="yes"/>
			<point x="292" y="729"/>
			<point x="220" y="680"/>
			<point x="54" y="680" type="curve"/>
			<point x="26" y="496" type="line"/>
			<point x="191" y="496"/>
			<point x="247" y="432"/>
			<point x="230" y="336" type="curve" smooth="yes"/>
			<point x="171" y="-57" type="line" smooth="yes"/>
			<point x="142" y="-248"/>
			<point x="331" y="-330"/>
		</contour>
	</outline>
</glyph>
<glyph name="bar" format="1">
  <advance width="584"/>
  <unicode hex="007C"/>
  <outline>
    <contour>
      <point x="32" y="-322" type="line"/>
      <point x="306" y="-322" type="line"/>
      <point x="604" y="1652" type="line"/>
      <point x="330" y="1652" type="line"/>
    </contour>
  </outline>
</glyph>
<glyph name="asciitilde" format="2">
	<advance width="1331"/>
	<unicode hex="007E"/>
	<outline>
		<contour>
			<point x="223" y="522" type="line"/>
			<point x="309" y="608"/>
			<point x="391" y="694"/>
			<point x="496" y="694" type="curve" smooth="yes"/>
			<point x="631" y="694"/>
			<point x="698" y="551"/>
			<point x="864" y="551" type="curve" smooth="yes"/>
			<point x="981" y="551"/>
			<point x="1124" y="623"/>
			<point x="1233" y="780" type="curve"/>
			<point x="1147" y="965" type="line"/>
			<point x="1079" y="868"/>
			<point x="987" y="793"/>
			<point x="893" y="793" type="curve" smooth="yes"/>
			<point x="768" y="793"/>
			<point x="713" y="934"/>
			<point x="539" y="934" type="curve" smooth="yes"/>
			<point x="395" y="934"/>
			<point x="279" y="840"/>
			<point x="139" y="711" type="curve"/>
		</contour>
	</outline>
</glyph>
<glyph name="exclamdown" format="1">
  <advance width="612"/>
  <unicode hex="00A1"/>
  <outline>
    <contour>
      <point x="-48" y="-322" type="line"/>
      <point x="404" y="-322" type="line"/>
      <point x="416" y="514" type="line"/>
      <point x="180" y="514" type="line"/>
    </contour>
    <contour>
      <point x="110" y="650" type="line"/>
      <point x="520" y="650" type="line"/>
      <point x="574" y="1034" type="line"/>
      <point x="164" y="1034" type="line"/>
    </contour>
  </outline>
</glyph>
<glyph name="cent" format="1">
  <advance width="1229"/>
  <unicode hex="00A2"/>
  <outline>
    <contour>
      <point x="626" y="1064" type="line"/>
      <point x="868" y="1064" type="line"/>
      <point x="926" y="1446" type="line"/>
      <point x="684" y="1446" type="line"/>
    </contour>
    <contour>
      <point x="466" y="0" type="line"/>
      <point x="708" y="0" type="line"/>
      <point x="766" y="382" type="line"/>
      <point x="524" y="382" type="line"/>
    </contour>
    <component base="c" xScale="1.08" xOffset="68" yOffset="222"/>
  </outline>
</glyph>
<glyph name="sterling" format="2">
	<advance width="1390"/>
	<unicode hex="00A3"/>
	<outline>
		<contour>
			<point x="-23" y="0" type="line"/>
			<point x="737" y="0" type="line" smooth="yes"/>
			<point x="1012" y="0"/>
			<point x="1194" y="143"/>
			<point x="1303" y="422" type="curve"/>
			<point x="981" y="487" type="line"/>
			<point x="922" y="371"/>
			<point x="879" y="328"/>
			<point x="756" y="328" type="curve" smooth="yes"/>
			<point x="553" y="328" type="line"/>
			<point x="635" y="391"/>
			<point x="666" y="420"/>
			<point x="696" y="485" type="curve" smooth="yes"/>
			<point x="725" y="547"/>
			<point x="735" y="594"/>
			<point x="745" y="684" type="curve"/>
			<point x="989" y="684" type="line"/>
			<point x="1020" y="891" type="line"/>
			<point x="750" y="891" type="line"/>
			<point x="750" y="985"/>
			<point x="750" y="1032"/>
			<point x="756" y="1071" type="curve" smooth="yes"/>
			<point x="768" y="1149"/>
			<point x="811" y="1194"/>
			<point x="872" y="1194" type="curve" smooth="yes"/>
			<point x="930" y="1194"/>
			<point x="950" y="1159"/>
			<point x="977" y="1063" type="curve"/>
			<point x="1333" y="1161" type="line"/>
			<point x="1272" y="1386"/>
			<point x="1100" y="1501"/>
			<point x="856" y="1501" type="curve" smooth="yes"/>
			<point x="588" y="1501"/>
			<point x="317" y="1364"/>
			<point x="297" y="1090" type="curve" smooth="yes"/>
			<point x="276" y="891" type="line"/>
			<point x="113" y="891" type="line"/>
			<point x="80" y="684" type="line"/>
			<point x="291" y="684" type="line"/>
			<point x="287" y="578"/>
			<point x="287" y="535"/>
			<point x="276" y="473" type="curve" smooth="yes"/>
			<point x="260" y="365"/>
			<point x="188" y="326"/>
			<point x="90" y="326" type="curve" smooth="yes"/>
			<point x="27" y="326" type="line"/>
		</contour>
	</outline>
</glyph>
<glyph name="currency" format="2">
	<advance width="1257"/>
	<unicode hex="00A4"/>
	<outline>
		<contour>
			<point x="154" y="182" type="line"/>
			<point x="307" y="313" type="line" smooth="yes"/>
			<point x="315" y="322"/>
			<point x="330" y="326"/>
			<point x="342" y="317" type="curve" smooth="yes"/>
			<point x="410" y="274"/>
			<point x="492" y="252"/>
			<point x="578" y="252" type="curve" smooth="yes"/>
			<point x="670" y="252"/>
			<point x="760" y="281"/>
			<point x="846" y="330" type="curve"/>
			<point x="952" y="201" type="line"/>
			<point x="1133" y="360" type="line"/>
			<point x="1026" y="483" type="line" smooth="yes"/>
			<point x="1024" y="485"/>
			<point x="1026" y="489"/>
			<point x="1028" y="494" type="curve" smooth="yes"/>
			<point x="1087" y="565"/>
			<point x="1124" y="657"/>
			<point x="1137" y="745" type="curve" smooth="yes"/>
			<point x="1151" y="840"/>
			<point x="1139" y="924"/>
			<point x="1102" y="1004" type="curve"/>
			<point x="1249" y="1130" type="line"/>
			<point x="1118" y="1290" type="line"/>
			<point x="985" y="1171" type="line" smooth="yes"/>
			<point x="977" y="1165"/>
			<point x="969" y="1165"/>
			<point x="963" y="1169" type="curve" smooth="yes"/>
			<point x="891" y="1214"/>
			<point x="807" y="1239"/>
			<point x="719" y="1239" type="curve" smooth="yes"/>
			<point x="631" y="1239"/>
			<point x="537" y="1208"/>
			<point x="453" y="1161" type="curve"/>
			<point x="326" y="1311" type="line"/>
			<point x="147" y="1149" type="line"/>
			<point x="256" y="1018" type="line" smooth="yes"/>
			<point x="268" y="1006"/>
			<point x="266" y="999"/>
			<point x="256" y="983" type="curve" smooth="yes"/>
			<point x="203" y="909"/>
			<point x="172" y="834"/>
			<point x="158" y="743" type="curve" smooth="yes"/>
			<point x="143" y="641"/>
			<point x="156" y="569"/>
			<point x="193" y="487" type="curve"/>
			<point x="25" y="342" type="line"/>
		</contour>
		<contour>
			<point x="610" y="500" type="curve" smooth="yes"/>
			<point x="471" y="500"/>
			<point x="383" y="614"/>
			<point x="403" y="745" type="curve" smooth="yes"/>
			<point x="422" y="874"/>
			<point x="547" y="991"/>
			<point x="684" y="991" type="curve" smooth="yes"/>
			<point x="825" y="991"/>
			<point x="911" y="874"/>
			<point x="891" y="745" type="curve" smooth="yes"/>
			<point x="870" y="614"/>
			<point x="750" y="500"/>
		</contour>
	</outline>
</glyph>
<glyph name="yen" format="2">
	<advance width="1428"/>
	<unicode hex="00A5"/>
	<outline>
		<contour>
			<point x="407" y="0" type="line"/>
			<point x="855" y="0" type="line"/>
			<point x="955" y="653" type="line"/>
			<point x="1592" y="1481" type="line"/>
			<point x="1181" y="1481" type="line"/>
			<point x="822" y="965" type="line"/>
			<point x="617" y="1481" type="line"/>
			<point x="103" y="1481" type="line"/>
			<point x="499" y="616" type="line"/>
		</contour>
		<contour>
			<point x="138" y="190" type="line"/>
			<point x="1183" y="190" type="line"/>
			<point x="1211" y="391" type="line"/>
			<point x="169" y="391" type="line"/>
		</contour>
		<contour>
			<point x="189" y="528" type="line"/>
			<point x="1234" y="528" type="line"/>
			<point x="1265" y="731" type="line"/>
			<point x="220" y="731" type="line"/>
		</contour>
	</outline>
</glyph>
<glyph name="brokenbar" format="1">
  <advance width="584"/>
  <unicode hex="00A6"/>
  <outline>
    <contour>
      <point x="206" y="824" type="line"/>
      <point x="480" y="824" type="line"/>
      <point x="604" y="1652" type="line"/>
      <point x="330" y="1652" type="line"/>
    </contour>
    <contour>
      <point x="32" y="-322" type="line"/>
      <point x="306" y="-322" type="line"/>
      <point x="430" y="506" type="line"/>
      <point x="156" y="506" type="line"/>
    </contour>
  </outline>
</glyph>
<glyph name="section" format="2">
	<advance width="1087"/>
	<unicode hex="00A7"/>
	<outline>
		<contour>
			<point x="435" y="-170" type="curve" smooth="yes"/>
			<point x="753" y="-170"/>
			<point x="935" y="-20"/>
			<point x="968" y="195" type="curve" smooth="yes"/>
			<point x="986" y="307"/>
			<point x="951" y="383"/>
			<point x="839" y="453" type="curve"/>
			<point x="943" y="514"/>
			<point x="1011" y="600"/>
			<point x="1029" y="723" type="curve" smooth="yes"/>
			<point x="1056" y="897"/>
			<point x="964" y="985"/>
			<point x="738" y="1075" type="curve"/>
			<point x="597" y="1130" type="line"/>
			<point x="574" y="1139"/>
			<point x="527" y="1159"/>
			<point x="534" y="1198" type="curve"/>
			<point x="540" y="1243"/>
			<point x="583" y="1272"/>
			<point x="644" y="1272" type="curve" smooth="yes"/>
			<point x="740" y="1272"/>
			<point x="792" y="1206"/>
			<point x="839" y="1149" type="curve"/>
			<point x="1091" y="1262" type="line"/>
			<point x="1054" y="1384"/>
			<point x="900" y="1501"/>
			<point x="671" y="1501" type="curve" smooth="yes"/>
			<point x="396" y="1501"/>
			<point x="210" y="1352"/>
			<point x="181" y="1159" type="curve" smooth="yes"/>
			<point x="167" y="1063"/>
			<point x="196" y="987"/>
			<point x="286" y="920" type="curve"/>
			<point x="175" y="866"/>
			<point x="101" y="774"/>
			<point x="83" y="649" type="curve" smooth="yes"/>
			<point x="56" y="475"/>
			<point x="148" y="387"/>
			<point x="376" y="297" type="curve" smooth="yes"/>
			<point x="507" y="246" type="line" smooth="yes"/>
			<point x="599" y="209"/>
			<point x="622" y="180"/>
			<point x="615" y="139" type="curve" smooth="yes"/>
			<point x="607" y="84"/>
			<point x="546" y="59"/>
			<point x="460" y="59" type="curve" smooth="yes"/>
			<point x="323" y="59"/>
			<point x="271" y="125"/>
			<point x="230" y="184" type="curve"/>
			<point x="-24" y="70" type="line"/>
			<point x="15" y="-51"/>
			<point x="171" y="-170"/>
		</contour>
		<contour>
			<point x="605" y="565" type="curve"/>
			<point x="527" y="598" type="line" smooth="yes"/>
			<point x="417" y="641"/>
			<point x="396" y="662"/>
			<point x="402" y="709" type="curve" smooth="yes"/>
			<point x="411" y="756"/>
			<point x="441" y="797"/>
			<point x="517" y="803" type="curve"/>
			<point x="587" y="774" type="line" smooth="yes"/>
			<point x="671" y="741"/>
			<point x="706" y="709"/>
			<point x="710" y="670" type="curve" smooth="yes"/>
			<point x="710" y="608"/>
			<point x="669" y="557"/>
		</contour>
	</outline>
</glyph>
<glyph name="copyright" format="2">
	<advance width="1717"/>
	<unicode hex="00A9"/>
	<outline>
		<contour>
			<point x="763" y="-20" type="curve" smooth="yes"/>
			<point x="1179" y="-20"/>
			<point x="1570" y="317"/>
			<point x="1635" y="741" type="curve" smooth="yes"/>
			<point x="1699" y="1159"/>
			<point x="1410" y="1501"/>
			<point x="992" y="1501" type="curve" smooth="yes"/>
			<point x="577" y="1501"/>
			<point x="185" y="1159"/>
			<point x="122" y="741" type="curve" smooth="yes"/>
			<point x="58" y="317"/>
			<point x="345" y="-20"/>
		</contour>
		<contour>
			<point x="820" y="322" type="curve" smooth="yes"/>
			<point x="1072" y="322"/>
			<point x="1207" y="520"/>
			<point x="1234" y="608" type="curve"/>
			<point x="1052" y="645" type="line"/>
			<point x="1005" y="571"/>
			<point x="964" y="514"/>
			<point x="876" y="514" type="curve" smooth="yes"/>
			<point x="787" y="514"/>
			<point x="746" y="573"/>
			<point x="773" y="745" type="curve" smooth="yes"/>
			<point x="798" y="909"/>
			<point x="853" y="973"/>
			<point x="927" y="973" type="curve" smooth="yes"/>
			<point x="1002" y="973"/>
			<point x="1009" y="901"/>
			<point x="1007" y="852" type="curve"/>
			<point x="1275" y="866" type="line"/>
			<point x="1271" y="1001"/>
			<point x="1172" y="1165"/>
			<point x="947" y="1165" type="curve" smooth="yes"/>
			<point x="708" y="1165"/>
			<point x="503" y="995"/>
			<point x="464" y="741" type="curve" smooth="yes"/>
			<point x="427" y="494"/>
			<point x="579" y="322"/>
		</contour>
		<contour>
			<point x="794" y="182" type="curve" smooth="yes"/>
			<point x="466" y="182"/>
			<point x="292" y="399"/>
			<point x="345" y="741" type="curve" smooth="yes"/>
			<point x="396" y="1079"/>
			<point x="636" y="1303"/>
			<point x="964" y="1303" type="curve" smooth="yes"/>
			<point x="1287" y="1303"/>
			<point x="1463" y="1079"/>
			<point x="1412" y="741" type="curve" smooth="yes"/>
			<point x="1361" y="399"/>
			<point x="1117" y="182"/>
		</contour>
	</outline>
</glyph>
<glyph name="ordfeminine" format="1">
  <advance width="785"/>
  <unicode hex="00AA"/>
  <outline>
    <contour>
      <point x="318" y="796" type="curve" smooth="yes"/>
      <point x="388" y="796"/>
      <point x="432" y="820"/>
      <point x="502" y="864" type="curve"/>
      <point x="508" y="808" type="line"/>
      <point x="726" y="808" type="line"/>
      <point x="720" y="856" type="line"/>
      <point x="718" y="886"/>
      <point x="732" y="988"/>
      <point x="734" y="1002" type="curve" smooth="yes"/>
      <point x="746" y="1098"/>
      <point x="754" y="1152"/>
      <point x="770" y="1266" type="curve" smooth="yes"/>
      <point x="788" y="1390"/>
      <point x="738" y="1464"/>
      <point x="526" y="1466" type="curve" smooth="yes"/>
      <point x="346" y="1466"/>
      <point x="272" y="1404"/>
      <point x="206" y="1286" type="curve"/>
      <point x="394" y="1246" type="line"/>
      <point x="422" y="1306"/>
      <point x="464" y="1320"/>
      <point x="500" y="1320" type="curve" smooth="yes"/>
      <point x="522" y="1320"/>
      <point x="566" y="1312"/>
      <point x="556" y="1250" type="curve"/>
      <point x="552" y="1210" type="line"/>
      <point x="506" y="1210" type="line" smooth="yes"/>
      <point x="308" y="1210"/>
      <point x="168" y="1114"/>
      <point x="150" y="982" type="curve" smooth="yes"/>
      <point x="134" y="872"/>
      <point x="192" y="796"/>
    </contour>
    <contour>
      <point x="428" y="940" type="curve" smooth="yes"/>
      <point x="384" y="940"/>
      <point x="364" y="964"/>
      <point x="368" y="998" type="curve" smooth="yes"/>
      <point x="376" y="1054"/>
      <point x="432" y="1090"/>
      <point x="498" y="1090" type="curve" smooth="yes"/>
      <point x="534" y="1090" type="line"/>
      <point x="522" y="1002" type="line" smooth="yes"/>
      <point x="520" y="982"/>
      <point x="510" y="974"/>
      <point x="498" y="964" type="curve" smooth="yes"/>
      <point x="482" y="950"/>
      <point x="454" y="940"/>
    </contour>
  </outline>
</glyph>
<glyph name="guillemetleft" format="2">
	<advance width="1104"/>
	<unicode hex="00AB"/>
	<outline>
		<contour>
			<point x="690" y="121" type="line"/>
			<point x="895" y="121" type="line"/>
			<point x="823" y="514" type="line"/>
			<point x="1016" y="924" type="line"/>
			<point x="811" y="924" type="line"/>
			<point x="530" y="514" type="line"/>
		</contour>
		<contour>
			<point x="279" y="121" type="line"/>
			<point x="481" y="121" type="line"/>
			<point x="412" y="514" type="line"/>
			<point x="604" y="924" type="line"/>
			<point x="397" y="924" type="line"/>
			<point x="121" y="514" type="line"/>
		</contour>
	</outline>
</glyph>
<glyph name="logicalnot" format="1">
  <advance width="1235"/>
  <unicode hex="00AC"/>
  <outline>
    <contour>
      <point x="120" y="590" type="line"/>
      <point x="1132" y="590" type="line"/>
      <point x="1174" y="866" type="line"/>
      <point x="162" y="866" type="line"/>
    </contour>
    <contour>
      <point x="774" y="274" type="line"/>
      <point x="1084" y="274" type="line"/>
      <point x="1158" y="766" type="line"/>
      <point x="848" y="766" type="line"/>
    </contour>
  </outline>
</glyph>
<glyph name="registered" format="2">
	<advance width="1151"/>
	<unicode hex="00AE"/>
	<outline>
		<contour>
			<point x="565" y="549" type="curve" smooth="yes"/>
			<point x="825" y="549"/>
			<point x="1069" y="760"/>
			<point x="1108" y="1024" type="curve" smooth="yes"/>
			<point x="1149" y="1288"/>
			<point x="969" y="1501"/>
			<point x="709" y="1501" type="curve" smooth="yes"/>
			<point x="444" y="1501"/>
			<point x="203" y="1288"/>
			<point x="162" y="1024" type="curve" smooth="yes"/>
			<point x="123" y="760"/>
			<point x="301" y="549"/>
		</contour>
		<contour>
			<point x="586" y="690" type="curve" smooth="yes"/>
			<point x="389" y="690"/>
			<point x="287" y="821"/>
			<point x="317" y="1024" type="curve" smooth="yes"/>
			<point x="348" y="1227"/>
			<point x="489" y="1360"/>
			<point x="688" y="1360" type="curve" smooth="yes"/>
			<point x="881" y="1360"/>
			<point x="985" y="1227"/>
			<point x="954" y="1024" type="curve" smooth="yes"/>
			<point x="924" y="821"/>
			<point x="780" y="690"/>
		</contour>
		<contour>
			<point x="401" y="786" type="line"/>
			<point x="545" y="786" type="line"/>
			<point x="573" y="983" type="line"/>
			<point x="633" y="983" type="line"/>
			<point x="668" y="786" type="line"/>
			<point x="825" y="786" type="line"/>
			<point x="764" y="999" type="line"/>
			<point x="819" y="1022"/>
			<point x="864" y="1067"/>
			<point x="874" y="1126" type="curve" smooth="yes"/>
			<point x="887" y="1210"/>
			<point x="821" y="1257"/>
			<point x="700" y="1257" type="curve" smooth="yes"/>
			<point x="473" y="1257" type="line"/>
		</contour>
		<contour>
			<point x="588" y="1077" type="line"/>
			<point x="600" y="1163" type="line"/>
			<point x="678" y="1163" type="line" smooth="yes"/>
			<point x="705" y="1163"/>
			<point x="729" y="1149"/>
			<point x="725" y="1120" type="curve"/>
			<point x="721" y="1096"/>
			<point x="700" y="1077"/>
			<point x="672" y="1077" type="curve"/>
		</contour>
	</outline>
</glyph>
<glyph name="degree" format="2">
	<advance width="986"/>
	<unicode hex="00B0"/>
	<outline>
		<contour>
			<point x="543" y="985" type="curve" smooth="yes"/>
			<point x="748" y="985"/>
			<point x="926" y="1135"/>
			<point x="958" y="1348" type="curve" smooth="yes"/>
			<point x="989" y="1559"/>
			<point x="858" y="1712"/>
			<point x="653" y="1712" type="curve" smooth="yes"/>
			<point x="446" y="1712"/>
			<point x="270" y="1559"/>
			<point x="238" y="1348" type="curve" smooth="yes"/>
			<point x="205" y="1135"/>
			<point x="336" y="985"/>
		</contour>
		<contour>
			<point x="573" y="1196" type="curve" smooth="yes"/>
			<point x="485" y="1196"/>
			<point x="442" y="1257"/>
			<point x="453" y="1346" type="curve" smooth="yes"/>
			<point x="465" y="1432"/>
			<point x="530" y="1493"/>
			<point x="616" y="1493" type="curve" smooth="yes"/>
			<point x="702" y="1493"/>
			<point x="750" y="1432"/>
			<point x="735" y="1346" type="curve" smooth="yes"/>
			<point x="723" y="1257"/>
			<point x="657" y="1196"/>
		</contour>
	</outline>
</glyph>
<glyph name="plusminus" format="2">
	<advance width="1273"/>
	<unicode hex="00B1"/>
	<outline>
		<contour>
			<point x="479" y="416" type="line"/>
			<point x="760" y="416" type="line"/>
			<point x="920" y="1458" type="line"/>
			<point x="637" y="1458" type="line"/>
		</contour>
		<contour>
			<point x="43" y="31" type="line"/>
			<point x="1079" y="31" type="line"/>
			<point x="1120" y="311" type="line"/>
			<point x="86" y="311" type="line"/>
		</contour>
		<contour>
			<point x="158" y="795" type="line"/>
			<point x="1194" y="795" type="line"/>
			<point x="1237" y="1077" type="line"/>
			<point x="201" y="1077" type="line"/>
		</contour>
	</outline>
</glyph>
<glyph name="micro" format="1">
  <advance width="1241"/>
  <unicode hex="00B5"/>
  <outline>
    <contour>
      <point x="-39" y="-330" type="line"/>
      <point x="359" y="-330" type="line"/>
      <point x="419" y="68" type="line"/>
      <point x="463" y="60"/>
      <point x="513" y="64"/>
      <point x="557" y="78" type="curve" smooth="yes"/>
      <point x="607" y="94"/>
      <point x="653" y="124"/>
      <point x="685" y="164" type="curve"/>
      <point x="661" y="0" type="line"/>
      <point x="1049" y="0" type="line"/>
      <point x="1217" y="1060" type="line"/>
      <point x="815" y="1060" type="line"/>
      <point x="725" y="458" type="line"/>
      <point x="711" y="394"/>
      <point x="657" y="352"/>
      <point x="589" y="352" type="curve" smooth="yes"/>
      <point x="513" y="352"/>
      <point x="469" y="394"/>
      <point x="477" y="458" type="curve"/>
      <point x="569" y="1060" type="line"/>
      <point x="171" y="1060" type="line"/>
    </contour>
  </outline>
</glyph>
<glyph name="paragraph" format="1">
  <advance width="1256"/>
  <unicode hex="00B6"/>
  <outline>
    <contour>
      <point x="349" y="-166" type="line"/>
      <point x="577" y="-166" type="line"/>
      <point x="791" y="1234" type="line"/>
      <point x="919" y="1234" type="line"/>
      <point x="707" y="-166" type="line"/>
      <point x="935" y="-166" type="line"/>
      <point x="1147" y="1234" type="line"/>
      <point x="1275" y="1234" type="line"/>
      <point x="1307" y="1446" type="line"/>
      <point x="663" y="1446" type="line" smooth="yes"/>
      <point x="363" y="1446"/>
      <point x="167" y="1264"/>
      <point x="131" y="1024" type="curve" smooth="yes"/>
      <point x="89" y="746"/>
      <point x="267" y="624"/>
      <point x="465" y="600" type="curve"/>
    </contour>
  </outline>
</glyph>
<glyph name="periodcentered" format="2">
	<advance width="589"/>
	<unicode hex="00B7"/>
	<outline>
		<contour>
			<point x="97" y="567" type="line"/>
			<point x="466" y="567" type="line"/>
			<point x="521" y="924" type="line"/>
			<point x="153" y="924" type="line"/>
		</contour>
	</outline>
</glyph>
<glyph name="ordmasculine" format="1">
  <advance width="728"/>
  <unicode hex="00BA"/>
  <outline>
    <contour>
      <point x="402" y="796" type="curve" smooth="yes"/>
      <point x="586" y="796"/>
      <point x="738" y="934"/>
      <point x="764" y="1128" type="curve" smooth="yes"/>
      <point x="792" y="1324"/>
      <point x="684" y="1466"/>
      <point x="498" y="1466" type="curve" smooth="yes"/>
      <point x="320" y="1466"/>
      <point x="166" y="1330"/>
      <point x="136" y="1128" type="curve" smooth="yes"/>
      <point x="110" y="934"/>
      <point x="218" y="796"/>
    </contour>
    <contour>
      <point x="424" y="952" type="curve" smooth="yes"/>
      <point x="366" y="952"/>
      <point x="346" y="1006"/>
      <point x="364" y="1132" type="curve" smooth="yes"/>
      <point x="382" y="1260"/>
      <point x="416" y="1314"/>
      <point x="476" y="1314" type="curve" smooth="yes"/>
      <point x="536" y="1314"/>
      <point x="556" y="1260"/>
      <point x="538" y="1132" type="curve" smooth="yes"/>
      <point x="520" y="1006"/>
      <point x="486" y="952"/>
    </contour>
  </outline>
</glyph>
<glyph name="guillemetright" format="2">
	<advance width="1103"/>
	<unicode hex="00BB"/>
	<outline>
		<contour>
			<point x="475" y="121" type="line"/>
			<point x="682" y="121" type="line"/>
			<point x="958" y="514" type="line"/>
			<point x="805" y="924" type="line"/>
			<point x="598" y="924" type="line"/>
			<point x="668" y="514" type="line"/>
		</contour>
		<contour>
			<point x="66" y="121" type="line"/>
			<point x="268" y="121" type="line"/>
			<point x="547" y="514" type="line"/>
			<point x="393" y="924" type="line"/>
			<point x="186" y="924" type="line"/>
			<point x="254" y="514" type="line"/>
		</contour>
	</outline>
</glyph>
<glyph name="questiondown" format="2">
	<advance width="1161"/>
	<unicode hex="00BF"/>
	<outline>
		<contour>
			<point x="466" y="-350" type="curve" smooth="yes"/>
			<point x="742" y="-350"/>
			<point x="949" y="-219"/>
			<point x="1070" y="25" type="curve"/>
			<point x="749" y="94" type="line"/>
			<point x="691" y="-14"/>
			<point x="597" y="-80"/>
			<point x="507" y="-80" type="curve" smooth="yes"/>
			<point x="437" y="-80"/>
			<point x="382" y="-39"/>
			<point x="390" y="16" type="curve" smooth="yes"/>
			<point x="413" y="176"/>
			<point x="726" y="236"/>
			<point x="769" y="541" type="curve"/>
			<point x="456" y="541" type="line"/>
			<point x="423" y="317"/>
			<point x="44" y="319"/>
			<point x="-3" y="-6" type="curve" smooth="yes"/>
			<point x="-28" y="-188"/>
			<point x="116" y="-350"/>
		</contour>
		<contour>
			<point x="421" y="666" type="line"/>
			<point x="841" y="666" type="line"/>
			<point x="896" y="1059" type="line"/>
			<point x="476" y="1059" type="line"/>
		</contour>
	</outline>
</glyph>
<glyph name="AE" format="1">
  <advance width="2184"/>
  <unicode hex="00C6"/>
  <outline>
    <contour>
      <point x="-73" y="0" type="line"/>
      <point x="313" y="0" type="line"/>
      <point x="491" y="280" type="line"/>
      <point x="929" y="280" type="line"/>
      <point x="887" y="0" type="line"/>
      <point x="2023" y="0" type="line"/>
      <point x="2071" y="320" type="line"/>
      <point x="1377" y="320" type="line"/>
      <point x="1415" y="570" type="line"/>
      <point x="1837" y="570" type="line"/>
      <point x="1885" y="884" type="line"/>
      <point x="1461" y="884" type="line"/>
      <point x="1499" y="1128" type="line"/>
      <point x="2175" y="1128" type="line"/>
      <point x="2225" y="1446" type="line"/>
      <point x="891" y="1446" type="line"/>
    </contour>
    <contour>
      <point x="683" y="612" type="line"/>
      <point x="1069" y="1202" type="line"/>
      <point x="979" y="612" type="line"/>
    </contour>
    <contour>
      <point x="1519" y="1446" type="move" name="top"/>
    </contour>
  </outline>
</glyph>
<glyph name="Eth" format="1">
  <advance width="1624"/>
  <unicode hex="00D0"/>
  <outline>
    <contour>
      <point x="78" y="572" type="line"/>
      <point x="938" y="572" type="line"/>
      <point x="978" y="846" type="line"/>
      <point x="118" y="846" type="line"/>
    </contour>
    <component base="D" xOffset="146"/>
  </outline>
</glyph>
<glyph name="multiply" format="2">
	<advance width="1247"/>
	<unicode hex="00D7"/>
	<outline>
		<contour>
			<point x="264" y="236" type="line"/>
			<point x="1208" y="1057" type="line"/>
			<point x="1040" y="1257" type="line"/>
			<point x="100" y="436" type="line"/>
		</contour>
		<contour>
			<point x="881" y="236" type="line"/>
			<point x="1110" y="436" type="line"/>
			<point x="418" y="1257" type="line"/>
			<point x="192" y="1057" type="line"/>
		</contour>
	</outline>
</glyph>
<glyph name="Oslash" format="2">
	<advance width="1640"/>
	<unicode hex="00D8"/>
	<anchor x="951" y="1481" name="top"/>
	<outline>
		<contour>
			<point x="110" y="-29" type="line"/>
			<point x="292" y="125" type="line"/>
			<point x="396" y="33"/>
			<point x="542" y="-20"/>
			<point x="726" y="-20" type="curve" smooth="yes"/>
			<point x="1158" y="-20"/>
			<point x="1482" y="279"/>
			<point x="1551" y="737" type="curve" smooth="yes"/>
			<point x="1576" y="905"/>
			<point x="1562" y="1051"/>
			<point x="1510" y="1167" type="curve"/>
			<point x="1713" y="1343" type="line"/>
			<point x="1584" y="1507" type="line"/>
			<point x="1392" y="1346" type="line"/>
			<point x="1289" y="1446"/>
			<point x="1142" y="1501"/>
			<point x="955" y="1501" type="curve" smooth="yes"/>
			<point x="525" y="1501"/>
			<point x="196" y="1200"/>
			<point x="126" y="737" type="curve" smooth="yes"/>
			<point x="99" y="565"/>
			<point x="116" y="418"/>
			<point x="167" y="299" type="curve"/>
			<point x="-24" y="137" type="line"/>
		</contour>
		<contour>
			<point x="773" y="291" type="curve" smooth="yes"/>
			<point x="685" y="291"/>
			<point x="630" y="322"/>
			<point x="601" y="389" type="curve"/>
			<point x="1088" y="809" type="line"/>
			<point x="1070" y="686"/>
			<point x="1050" y="590"/>
			<point x="1023" y="514" type="curve" smooth="yes"/>
			<point x="968" y="356"/>
			<point x="888" y="291"/>
		</contour>
		<contour>
			<point x="587" y="655" type="line"/>
			<point x="601" y="758"/>
			<point x="619" y="844"/>
			<point x="642" y="915" type="curve" smooth="yes"/>
			<point x="699" y="1110"/>
			<point x="783" y="1194"/>
			<point x="910" y="1194" type="curve" smooth="yes"/>
			<point x="996" y="1194"/>
			<point x="1054" y="1159"/>
			<point x="1078" y="1077" type="curve"/>
		</contour>
	</outline>
</glyph>
<glyph name="Yacute" format="1">
  <advance width="1466"/>
  <unicode hex="00DD"/>
  <outline>
    <component base="Y"/>
    <component base="acutecomb" xOffset="623" yOffset="412"/>
    <contour>
      <point x="716" y="24" type="move" name="bottom"/>
    </contour>
  </outline>
</glyph>
<glyph name="Thorn" format="1">
  <advance width="1506"/>
  <unicode hex="00DE"/>
  <outline>
    <contour>
      <point x="47" y="0" type="line"/>
      <point x="489" y="0" type="line"/>
      <point x="531" y="276" type="line"/>
      <point x="845" y="276" type="line" smooth="yes"/>
      <point x="1161" y="276"/>
      <point x="1403" y="446"/>
      <point x="1445" y="726" type="curve" smooth="yes"/>
      <point x="1491" y="1034"/>
      <point x="1249" y="1186"/>
      <point x="931" y="1186" type="curve" smooth="yes"/>
      <point x="669" y="1186" type="line"/>
      <point x="707" y="1446" type="line"/>
      <point x="267" y="1446" type="line"/>
    </contour>
    <contour>
      <point x="577" y="588" type="line"/>
      <point x="621" y="874" type="line"/>
      <point x="857" y="874" type="line" smooth="yes"/>
      <point x="945" y="874"/>
      <point x="1011" y="820"/>
      <point x="997" y="732" type="curve" smooth="yes"/>
      <point x="985" y="654"/>
      <point x="917" y="588"/>
      <point x="825" y="588" type="curve" smooth="yes"/>
    </contour>
  </outline>
</glyph>
<glyph name="germandbls" format="1">
  <advance width="1260"/>
  <unicode hex="00DF"/>
  <outline>
    <contour>
      <point x="741" y="-20" type="curve" smooth="yes"/>
      <point x="995" y="-20"/>
      <point x="1173" y="108"/>
      <point x="1207" y="350" type="curve" smooth="yes"/>
      <point x="1243" y="610"/>
      <point x="1069" y="702"/>
      <point x="883" y="800" type="curve" smooth="yes"/>
      <point x="873" y="804"/>
      <point x="871" y="810"/>
      <point x="871" y="816" type="curve" smooth="yes"/>
      <point x="873" y="820"/>
      <point x="877" y="826"/>
      <point x="883" y="828" type="curve" smooth="yes"/>
      <point x="1081" y="910"/>
      <point x="1163" y="996"/>
      <point x="1181" y="1132" type="curve" smooth="yes"/>
      <point x="1211" y="1340"/>
      <point x="1067" y="1446"/>
      <point x="803" y="1446" type="curve" smooth="yes"/>
      <point x="419" y="1446"/>
      <point x="271" y="1202"/>
      <point x="229" y="968" type="curve"/>
      <point x="95" y="0" type="line"/>
      <point x="447" y="0" type="line"/>
      <point x="593" y="1044" type="line" smooth="yes"/>
      <point x="605" y="1132"/>
      <point x="663" y="1204"/>
      <point x="757" y="1204" type="curve" smooth="yes"/>
      <point x="833" y="1204"/>
      <point x="865" y="1160"/>
      <point x="857" y="1108" type="curve" smooth="yes"/>
      <point x="849" y="1044"/>
      <point x="789" y="998"/>
      <point x="729" y="940" type="curve" smooth="yes"/>
      <point x="675" y="888"/>
      <point x="621" y="820"/>
      <point x="605" y="718" type="curve" smooth="yes"/>
      <point x="585" y="576"/>
      <point x="657" y="486"/>
      <point x="765" y="430" type="curve" smooth="yes"/>
      <point x="851" y="386"/>
      <point x="893" y="364"/>
      <point x="885" y="308" type="curve" smooth="yes"/>
      <point x="877" y="246"/>
      <point x="823" y="220"/>
      <point x="767" y="220" type="curve" smooth="yes"/>
      <point x="703" y="220"/>
      <point x="665" y="254"/>
      <point x="639" y="276" type="curve"/>
      <point x="509" y="44" type="line"/>
      <point x="559" y="8"/>
      <point x="631" y="-20"/>
    </contour>
  </outline>
</glyph>
<glyph name="ae" format="1">
  <advance width="1844"/>
  <unicode hex="00E6"/>
  <outline>
    <contour>
      <point x="343" y="-20" type="curve" smooth="yes"/>
      <point x="521" y="-20"/>
      <point x="653" y="24"/>
      <point x="789" y="138" type="curve" smooth="yes"/>
      <point x="797" y="146"/>
      <point x="803" y="146"/>
      <point x="809" y="138" type="curve" smooth="yes"/>
      <point x="891" y="40"/>
      <point x="1025" y="-20"/>
      <point x="1189" y="-20" type="curve" smooth="yes"/>
      <point x="1415" y="-20"/>
      <point x="1563" y="40"/>
      <point x="1745" y="264" type="curve"/>
      <point x="1525" y="360" type="line"/>
      <point x="1419" y="268"/>
      <point x="1351" y="238"/>
      <point x="1279" y="238" type="curve" smooth="yes"/>
      <point x="1169" y="238"/>
      <point x="1091" y="304"/>
      <point x="1113" y="446" type="curve"/>
      <point x="1779" y="446" type="line"/>
      <point x="1837" y="830"/>
      <point x="1647" y="1054"/>
      <point x="1343" y="1054" type="curve" smooth="yes"/>
      <point x="1245" y="1054"/>
      <point x="1143" y="1026"/>
      <point x="1051" y="976" type="curve"/>
      <point x="985" y="1024"/>
      <point x="875" y="1052"/>
      <point x="703" y="1054" type="curve" smooth="yes"/>
      <point x="393" y="1054"/>
      <point x="257" y="954"/>
      <point x="151" y="766" type="curve"/>
      <point x="475" y="700" type="line"/>
      <point x="525" y="796"/>
      <point x="599" y="820"/>
      <point x="659" y="820" type="curve" smooth="yes"/>
      <point x="737" y="820"/>
      <point x="765" y="780"/>
      <point x="755" y="708" type="curve" smooth="yes"/>
      <point x="747" y="650" type="line"/>
      <point x="665" y="646" type="line" smooth="yes"/>
      <point x="291" y="628"/>
      <point x="83" y="488"/>
      <point x="51" y="278" type="curve" smooth="yes"/>
      <point x="25" y="102"/>
      <point x="123" y="-20"/>
    </contour>
    <contour>
      <point x="535" y="210" type="curve" smooth="yes"/>
      <point x="459" y="210"/>
      <point x="425" y="248"/>
      <point x="433" y="304" type="curve" smooth="yes"/>
      <point x="447" y="400"/>
      <point x="581" y="448"/>
      <point x="655" y="454" type="curve" smooth="yes"/>
      <point x="717" y="458" type="line"/>
      <point x="695" y="312" type="line" smooth="yes"/>
      <point x="685" y="248"/>
      <point x="607" y="210"/>
    </contour>
    <contour>
      <point x="1433" y="648" type="curve"/>
      <point x="1149" y="650" type="line"/>
      <point x="1165" y="770"/>
      <point x="1247" y="824"/>
      <point x="1327" y="824" type="curve" smooth="yes"/>
      <point x="1425" y="824"/>
      <point x="1443" y="708"/>
    </contour>
    <contour>
      <point x="1015" y="1034" type="move" name="top"/>
    </contour>
  </outline>
</glyph>
<glyph name="eth" format="2">
	<advance width="1207"/>
	<unicode hex="00F0"/>
	<outline>
		<contour>
			<point x="517" y="-20" type="curve" smooth="yes"/>
			<point x="849" y="-20"/>
			<point x="1107" y="203"/>
			<point x="1162" y="563" type="curve" smooth="yes"/>
			<point x="1209" y="879"/>
			<point x="1105" y="1161"/>
			<point x="883" y="1335" type="curve"/>
			<point x="1004" y="1399" type="line"/>
			<point x="959" y="1509" type="line"/>
			<point x="769" y="1411" type="line"/>
			<point x="695" y="1452"/>
			<point x="609" y="1481"/>
			<point x="517" y="1503" type="curve"/>
			<point x="288" y="1333" type="line"/>
			<point x="351" y="1311"/>
			<point x="410" y="1284"/>
			<point x="466" y="1253" type="curve"/>
			<point x="285" y="1163" type="line"/>
			<point x="337" y="1055" type="line"/>
			<point x="576" y="1178" type="line"/>
			<point x="623" y="1137"/>
			<point x="658" y="1100"/>
			<point x="687" y="1049" type="curve" smooth="yes"/>
			<point x="689" y="1042"/>
			<point x="689" y="1038"/>
			<point x="681" y="1038" type="curve" smooth="yes"/>
			<point x="367" y="1038"/>
			<point x="93" y="817"/>
			<point x="46" y="504" type="curve" smooth="yes"/>
			<point x="1" y="205"/>
			<point x="193" y="-20"/>
		</contour>
		<contour>
			<point x="558" y="236" type="curve" smooth="yes"/>
			<point x="455" y="236"/>
			<point x="419" y="324"/>
			<point x="447" y="512" type="curve" smooth="yes"/>
			<point x="476" y="700"/>
			<point x="539" y="791"/>
			<point x="642" y="791" type="curve" smooth="yes"/>
			<point x="750" y="791"/>
			<point x="781" y="700"/>
			<point x="752" y="512" type="curve" smooth="yes"/>
			<point x="726" y="326"/>
			<point x="666" y="236"/>
		</contour>
	</outline>
</glyph>
<glyph name="divide" format="1">
  <advance width="1235"/>
  <unicode hex="00F7"/>
  <outline>
    <contour>
      <point x="120" y="590" type="line"/>
      <point x="1132" y="590" type="line"/>
      <point x="1174" y="866" type="line"/>
      <point x="162" y="866" type="line"/>
    </contour>
    <contour>
      <point x="372" y="118" type="line"/>
      <point x="740" y="118" type="line"/>
      <point x="794" y="474" type="line"/>
      <point x="426" y="474" type="line"/>
    </contour>
    <contour>
      <point x="504" y="982" type="line"/>
      <point x="872" y="982" type="line"/>
      <point x="926" y="1338" type="line"/>
      <point x="558" y="1338" type="line"/>
    </contour>
  </outline>
</glyph>
<glyph name="oslash" format="1">
  <advance width="1192"/>
  <unicode hex="00F8"/>
  <outline>
    <contour>
      <point x="118" y="-18" type="line"/>
      <point x="1132" y="926" type="line"/>
      <point x="1018" y="1050" type="line"/>
      <point x="2" y="106" type="line"/>
    </contour>
    <component base="o" xOffset="18"/>
    <contour>
      <point x="568" y="1034" type="move" name="top"/>
    </contour>
  </outline>
</glyph>
<glyph name="thorn" format="1">
  <advance width="1198"/>
  <unicode hex="00FE"/>
  <outline>
    <contour>
      <point x="-28" y="-322" type="line"/>
      <point x="360" y="-322" type="line"/>
      <point x="420" y="70" type="line" smooth="yes"/>
      <point x="426" y="110"/>
      <point x="432" y="108"/>
      <point x="460" y="80" type="curve" smooth="yes"/>
      <point x="530" y="2"/>
      <point x="606" y="-20"/>
      <point x="694" y="-20" type="curve" smooth="yes"/>
      <point x="910" y="-20"/>
      <point x="1110" y="126"/>
      <point x="1168" y="520" type="curve" smooth="yes"/>
      <point x="1224" y="886"/>
      <point x="1086" y="1054"/>
      <point x="870" y="1054" type="curve" smooth="yes"/>
      <point x="736" y="1054"/>
      <point x="644" y="1002"/>
      <point x="550" y="914" type="curve"/>
      <point x="630" y="1446" type="line"/>
      <point x="240" y="1446" type="line"/>
    </contour>
    <contour>
      <point x="576" y="216" type="curve" smooth="yes"/>
      <point x="514" y="216"/>
      <point x="478" y="248"/>
      <point x="454" y="294" type="curve"/>
      <point x="516" y="708" type="line" smooth="yes"/>
      <point x="526" y="770"/>
      <point x="592" y="818"/>
      <point x="668" y="818" type="curve" smooth="yes"/>
      <point x="770" y="818"/>
      <point x="814" y="758"/>
      <point x="780" y="532" type="curve" smooth="yes"/>
      <point x="742" y="282"/>
      <point x="674" y="216"/>
    </contour>
  </outline>
</glyph>
<glyph name="dcroat" format="1">
  <advance width="1308"/>
  <unicode hex="0111"/>
  <outline>
    <contour>
      <point x="600" y="1132" type="line"/>
      <point x="1324" y="1132" type="line"/>
      <point x="1352" y="1340" type="line"/>
      <point x="628" y="1340" type="line"/>
    </contour>
    <component base="d"/>
  </outline>
</glyph>
<glyph name="gcommaaccent" format="1">
  <advance width="1275"/>
  <unicode hex="0123"/>
  <outline>
    <contour>
      <point x="562" y="1168" type="line"/>
      <point x="814" y="1168" type="line"/>
      <point x="842" y="1368" type="line"/>
      <point x="720" y="1368" type="line"/>
      <point x="880" y="1552" type="line"/>
      <point x="748" y="1552" type="line"/>
      <point x="592" y="1384" type="line"/>
    </contour>
    <component base="g"/>
    <contour>
      <point x="694" y="1034" type="move" name="_top"/>
    </contour>
  </outline>
</glyph>
<glyph name="Hbar" format="2">
	<advance width="1679"/>
	<unicode hex="0126"/>
	<outline>
		<contour>
			<point x="119" y="1082" type="line"/>
			<point x="1717" y="1082" type="line"/>
			<point x="1747" y="1284" type="line"/>
			<point x="149" y="1284" type="line"/>
		</contour>
		<component base="H" xOffset="72"/>
	</outline>
</glyph>
<glyph name="hbar" format="1">
  <advance width="1346"/>
  <unicode hex="0127"/>
  <outline>
    <contour>
      <point x="128" y="1132" type="line"/>
      <point x="850" y="1132" type="line"/>
      <point x="878" y="1340" type="line"/>
      <point x="156" y="1340" type="line"/>
    </contour>
    <component base="h" xOffset="100"/>
  </outline>
</glyph>
<glyph name="idotless" format="1">
  <advance width="600"/>
  <unicode hex="0131"/>
  <outline>
    <contour>
      <point x="27" y="0" type="line"/>
      <point x="415" y="0" type="line"/>
      <point x="573" y="1034" type="line"/>
      <point x="185" y="1034" type="line"/>
    </contour>
    <contour>
      <point x="363" y="18" type="move" name="ogonek"/>
    </contour>
    <contour>
      <point x="385" y="1034" type="move" name="top"/>
    </contour>
  </outline>
</glyph>
<glyph name="kgreenlandic" format="1">
  <advance width="1236"/>
  <unicode hex="0138"/>
  <outline>
    <contour>
      <point x="17" y="0" type="line"/>
      <point x="405" y="0" type="line"/>
      <point x="449" y="292" type="line"/>
      <point x="605" y="422" type="line"/>
      <point x="717" y="0" type="line"/>
      <point x="1153" y="0" type="line"/>
      <point x="903" y="700" type="line"/>
      <point x="1283" y="1034" type="line"/>
      <point x="903" y="1034" type="line"/>
      <point x="503" y="644" type="line"/>
      <point x="561" y="1034" type="line"/>
      <point x="175" y="1034" type="line"/>
    </contour>
  </outline>
</glyph>
<glyph name="Lslash" format="2">
	<advance width="1275"/>
	<unicode hex="0141"/>
	<outline>
		<contour>
			<point x="49" y="551" type="line"/>
			<point x="944" y="805" type="line"/>
			<point x="944" y="1114" type="line"/>
			<point x="49" y="877" type="line"/>
		</contour>
		<component base="L" xOffset="90"/>
	</outline>
</glyph>
<glyph name="lslash" format="1">
  <advance width="868"/>
  <unicode hex="0142"/>
  <outline>
    <contour>
      <point x="73" y="284" type="line"/>
      <point x="705" y="698" type="line"/>
      <point x="705" y="1004" type="line"/>
      <point x="73" y="608" type="line"/>
    </contour>
    <component base="l" xOffset="153"/>
  </outline>
</glyph>
<glyph name="eng" format="1">
  <advance width="1126"/>
  <unicode hex="014B"/>
  <outline>
    <contour>
      <point x="551" y="-332" type="curve" smooth="yes"/>
      <point x="765" y="-332"/>
      <point x="937" y="-184"/>
      <point x="971" y="56" type="curve" smooth="yes"/>
      <point x="1067" y="738" type="line" smooth="yes"/>
      <point x="1093" y="930"/>
      <point x="997" y="1054"/>
      <point x="829" y="1054" type="curve" smooth="yes"/>
      <point x="711" y="1054"/>
      <point x="591" y="976"/>
      <point x="497" y="872" type="curve"/>
      <point x="519" y="1034" type="line"/>
      <point x="169" y="1034" type="line"/>
      <point x="17" y="0" type="line"/>
      <point x="379" y="0" type="line"/>
      <point x="475" y="680" type="line"/>
      <point x="517" y="746"/>
      <point x="563" y="778"/>
      <point x="619" y="778" type="curve" smooth="yes"/>
      <point x="677" y="778"/>
      <point x="709" y="742"/>
      <point x="701" y="684" type="curve" smooth="yes"/>
      <point x="611" y="50" type="line"/>
      <point x="605" y="0"/>
      <point x="577" y="-20"/>
      <point x="521" y="-30" type="curve"/>
      <point x="477" y="-36" type="line"/>
      <point x="439" y="-306" type="line"/>
      <point x="439" y="-306"/>
      <point x="447" y="-332"/>
    </contour>
  </outline>
</glyph>
<glyph name="OE" format="1">
  <advance width="2266"/>
  <unicode hex="0152"/>
  <outline>
    <contour>
      <point x="757" y="-20" type="curve" smooth="yes"/>
      <point x="865" y="-20"/>
      <point x="957" y="-14"/>
      <point x="1033" y="0" type="curve"/>
      <point x="1129" y="0" type="line"/>
      <point x="2103" y="0" type="line"/>
      <point x="2153" y="320" type="line"/>
      <point x="1457" y="320" type="line"/>
      <point x="1495" y="570" type="line"/>
      <point x="1919" y="570" type="line"/>
      <point x="1967" y="884" type="line"/>
      <point x="1543" y="884" type="line"/>
      <point x="1579" y="1128" type="line"/>
      <point x="2257" y="1128" type="line"/>
      <point x="2307" y="1446" type="line"/>
      <point x="1373" y="1446" type="line"/>
      <point x="1251" y="1446" type="line"/>
      <point x="1187" y="1460"/>
      <point x="1103" y="1466"/>
      <point x="1005" y="1466" type="curve" smooth="yes"/>
      <point x="539" y="1466"/>
      <point x="217" y="1172"/>
      <point x="149" y="720" type="curve" smooth="yes"/>
      <point x="79" y="270"/>
      <point x="307" y="-20"/>
    </contour>
    <contour>
      <point x="779" y="284" type="curve" smooth="yes"/>
      <point x="607" y="284"/>
      <point x="561" y="402"/>
      <point x="609" y="714" type="curve" smooth="yes"/>
      <point x="657" y="1036"/>
      <point x="745" y="1166"/>
      <point x="913" y="1166" type="curve" smooth="yes"/>
      <point x="1079" y="1166"/>
      <point x="1127" y="1036"/>
      <point x="1077" y="714" type="curve" smooth="yes"/>
      <point x="1029" y="402"/>
      <point x="949" y="284"/>
    </contour>
  </outline>
</glyph>
<glyph name="oe" format="1">
  <advance width="1860"/>
  <unicode hex="0153"/>
  <outline>
    <contour>
      <point x="517" y="-20" type="curve" smooth="yes"/>
      <point x="645" y="-20"/>
      <point x="759" y="16"/>
      <point x="859" y="76" type="curve" smooth="yes"/>
      <point x="871" y="84"/>
      <point x="881" y="86"/>
      <point x="893" y="78" type="curve" smooth="yes"/>
      <point x="973" y="16"/>
      <point x="1079" y="-20"/>
      <point x="1205" y="-20" type="curve" smooth="yes"/>
      <point x="1433" y="-20"/>
      <point x="1581" y="40"/>
      <point x="1759" y="264" type="curve"/>
      <point x="1539" y="360" type="line"/>
      <point x="1435" y="268"/>
      <point x="1365" y="238"/>
      <point x="1297" y="238" type="curve" smooth="yes"/>
      <point x="1183" y="238"/>
      <point x="1105" y="304"/>
      <point x="1127" y="446" type="curve"/>
      <point x="1795" y="446" type="line"/>
      <point x="1853" y="830"/>
      <point x="1665" y="1054"/>
      <point x="1361" y="1054" type="curve" smooth="yes"/>
      <point x="1247" y="1054"/>
      <point x="1137" y="1020"/>
      <point x="1041" y="958" type="curve" smooth="yes"/>
      <point x="1019" y="944"/>
      <point x="1011" y="944"/>
      <point x="993" y="958" type="curve" smooth="yes"/>
      <point x="913" y="1018"/>
      <point x="811" y="1054"/>
      <point x="683" y="1054" type="curve" smooth="yes"/>
      <point x="377" y="1054"/>
      <point x="109" y="836"/>
      <point x="59" y="510" type="curve" smooth="yes"/>
      <point x="13" y="200"/>
      <point x="201" y="-20"/>
    </contour>
    <contour>
      <point x="557" y="230" type="curve" smooth="yes"/>
      <point x="457" y="230"/>
      <point x="421" y="316"/>
      <point x="453" y="518" type="curve" smooth="yes"/>
      <point x="483" y="724"/>
      <point x="545" y="812"/>
      <point x="647" y="812" type="curve" smooth="yes"/>
      <point x="751" y="812"/>
      <point x="781" y="724"/>
      <point x="751" y="518" type="curve" smooth="yes"/>
      <point x="721" y="318"/>
      <point x="663" y="230"/>
    </contour>
    <contour>
      <point x="1449" y="648" type="curve"/>
      <point x="1165" y="650" type="line"/>
      <point x="1181" y="770"/>
      <point x="1263" y="824"/>
      <point x="1341" y="824" type="curve" smooth="yes"/>
      <point x="1439" y="824"/>
      <point x="1459" y="708"/>
    </contour>
  </outline>
</glyph>
<glyph name="Tbar" format="2">
	<advance width="1298"/>
	<unicode hex="0166"/>
	<outline>
		<contour>
			<point x="203" y="561" type="line"/>
			<point x="1077" y="561" type="line"/>
			<point x="1118" y="842" type="line"/>
			<point x="244" y="842" type="line"/>
		</contour>
		<component base="T"/>
	</outline>
</glyph>
<glyph name="tbar" format="1">
  <advance width="1007"/>
  <unicode hex="0167"/>
  <outline>
    <contour>
      <point x="110" y="450" type="line"/>
      <point x="834" y="450" type="line"/>
      <point x="834" y="660" type="line"/>
      <point x="110" y="660" type="line"/>
    </contour>
    <component base="t" xOffset="90"/>
  </outline>
</glyph>
<glyph name="Schwa" format="1">
  <advance width="1627"/>
  <unicode hex="018F"/>
  <outline>
    <contour>
      <point x="723" y="-20" type="curve" smooth="yes"/>
      <point x="1095" y="-20"/>
      <point x="1473" y="308"/>
      <point x="1539" y="742" type="curve" smooth="yes"/>
      <point x="1603" y="1168"/>
      <point x="1385" y="1466"/>
      <point x="953" y="1466" type="curve" smooth="yes"/>
      <point x="671" y="1466"/>
      <point x="447" y="1344"/>
      <point x="291" y="1106" type="curve" smooth="yes"/>
      <point x="271" y="1074"/>
      <point x="269" y="1056"/>
      <point x="291" y="1046" type="curve" smooth="yes"/>
      <point x="537" y="912" type="line" smooth="yes"/>
      <point x="569" y="896"/>
      <point x="581" y="900"/>
      <point x="591" y="914" type="curve" smooth="yes"/>
      <point x="703" y="1060"/>
      <point x="787" y="1128"/>
      <point x="907" y="1128" type="curve" smooth="yes"/>
      <point x="1097" y="1128"/>
      <point x="1111" y="986"/>
      <point x="1095" y="872" type="curve" smooth="yes"/>
      <point x="1089" y="840"/>
      <point x="1073" y="828"/>
      <point x="1049" y="828" type="curve" smooth="yes"/>
      <point x="211" y="828" type="line" smooth="yes"/>
      <point x="167" y="828"/>
      <point x="163" y="808"/>
      <point x="155" y="764" type="curve" smooth="yes"/>
      <point x="79" y="266"/>
      <point x="271" y="-20"/>
    </contour>
    <contour>
      <point x="765" y="284" type="curve" smooth="yes"/>
      <point x="633" y="284"/>
      <point x="571" y="392"/>
      <point x="589" y="520" type="curve" smooth="yes"/>
      <point x="595" y="550"/>
      <point x="605" y="556"/>
      <point x="637" y="556" type="curve" smooth="yes"/>
      <point x="1041" y="554" type="line"/>
      <point x="993" y="374"/>
      <point x="921" y="284"/>
    </contour>
  </outline>
</glyph>
<glyph name="florin" format="2">
	<advance width="1192"/>
	<unicode hex="0192"/>
	<outline>
		<contour>
			<point x="-103" y="-344" type="line"/>
			<point x="185" y="-344" type="line" smooth="yes"/>
			<point x="380" y="-344"/>
			<point x="536" y="-236"/>
			<point x="593" y="-61" type="curve" smooth="yes"/>
			<point x="871" y="788" type="line"/>
			<point x="1060" y="788" type="line"/>
			<point x="1150" y="1059" type="line"/>
			<point x="947" y="1059" type="line"/>
			<point x="968" y="1120" type="line" smooth="yes"/>
			<point x="986" y="1176"/>
			<point x="1043" y="1223"/>
			<point x="1091" y="1223" type="curve" smooth="yes"/>
			<point x="1213" y="1223" type="line"/>
			<point x="1295" y="1481" type="line"/>
			<point x="1013" y="1481" type="line" smooth="yes"/>
			<point x="820" y="1481"/>
			<point x="667" y="1374"/>
			<point x="607" y="1200" type="curve" smooth="yes"/>
			<point x="562" y="1059" type="line"/>
			<point x="390" y="1059" type="line"/>
			<point x="302" y="788" type="line"/>
			<point x="474" y="788" type="line"/>
			<point x="228" y="41" type="line" smooth="yes"/>
			<point x="196" y="-61"/>
			<point x="169" y="-84"/>
			<point x="99" y="-84" type="curve" smooth="yes"/>
			<point x="-26" y="-84" type="line"/>
		</contour>
	</outline>
</glyph>
<glyph name="oinvertedbreve" format="1">
  <advance width="1114"/>
  <unicode hex="020F"/>
  <outline>
    <component base="o"/>
    <component base="breveinvertedcomb" xOffset="168"/>
    <contour>
      <point x="576" y="1034" type="move" name="top"/>
    </contour>
  </outline>
</glyph>
<glyph name="jdotless" format="1">
  <advance width="644"/>
  <unicode hex="0237"/>
  <outline>
    <contour>
      <point x="-9" y="-332" type="curve"/>
      <point x="267" y="-332"/>
      <point x="419" y="-200"/>
      <point x="459" y="56" type="curve" smooth="yes"/>
      <point x="607" y="1034" type="line"/>
      <point x="219" y="1034" type="line"/>
      <point x="71" y="56" type="line"/>
      <point x="65" y="14"/>
      <point x="39" y="-12"/>
      <point x="-37" y="-28" type="curve"/>
      <point x="-97" y="-38" type="line"/>
      <point x="-135" y="-298" type="line"/>
      <point x="-135" y="-298"/>
      <point x="-111" y="-332"/>
    </contour>
    <contour>
      <point x="411" y="1034" type="move" name="top"/>
    </contour>
  </outline>
</glyph>
<glyph name="commaturnedmod" format="2">
	<advance width="594"/>
	<unicode hex="02BB"/>
	<outline>
		<contour>
			<point x="148" y="854" type="line"/>
			<point x="509" y="854" type="line"/>
			<point x="560" y="1198" type="line"/>
			<point x="394" y="1217" type="line"/>
			<point x="398" y="1239" type="line"/>
			<point x="411" y="1319"/>
			<point x="495" y="1368"/>
			<point x="560" y="1378" type="curve"/>
			<point x="589" y="1382" type="line"/>
			<point x="605" y="1485" type="line"/>
			<point x="400" y="1526"/>
			<point x="222" y="1339"/>
			<point x="196" y="1159" type="curve"/>
		</contour>
	</outline>
</glyph>
<glyph name="gravecomb" format="1">
  <advance width="697"/>
  <unicode hex="0300"/>
  <outline>
    <component base="acutecomb" xScale="-1" xOffset="877"/>
    <contour>
      <point x="637" y="1034" type="move" name="_top"/>
    </contour>
  </outline>
</glyph>
<glyph name="acutecomb" format="1">
  <advance width="615"/>
  <unicode hex="0301"/>
  <outline>
    <contour>
      <point x="347" y="1446" type="line"/>
      <point x="100" y="1155" type="line"/>
      <point x="378" y="1155" type="line"/>
      <point x="736" y="1446" type="line"/>
    </contour>
    <contour>
      <point x="222" y="1034" type="move" name="_top"/>
    </contour>
  </outline>
</glyph>
<glyph name="circumflexcomb" format="1">
  <advance width="850"/>
  <unicode hex="0302"/>
  <outline>
    <contour>
      <point x="114" y="1160" type="line"/>
      <point x="376" y="1160" type="line"/>
      <point x="542" y="1324" type="line"/>
      <point x="640" y="1160" type="line"/>
      <point x="916" y="1160" type="line"/>
      <point x="696" y="1466" type="line"/>
      <point x="434" y="1466" type="line"/>
    </contour>
    <contour>
      <point x="500" y="1034" type="move" name="_top"/>
    </contour>
  </outline>
</glyph>
<glyph name="tildecomb" format="1">
  <advance width="956"/>
  <unicode hex="0303"/>
  <outline>
    <contour>
      <point x="236" y="1176" type="line"/>
      <point x="306" y="1230"/>
      <point x="350" y="1248"/>
      <point x="418" y="1248" type="curve" smooth="yes"/>
      <point x="528" y="1248"/>
      <point x="606" y="1188"/>
      <point x="722" y="1188" type="curve" smooth="yes"/>
      <point x="816" y="1188"/>
      <point x="908" y="1228"/>
      <point x="962" y="1270" type="curve"/>
      <point x="952" y="1476" type="line"/>
      <point x="904" y="1440"/>
      <point x="828" y="1394"/>
      <point x="752" y="1394" type="curve" smooth="yes"/>
      <point x="660" y="1394"/>
      <point x="562" y="1460"/>
      <point x="440" y="1460" type="curve" smooth="yes"/>
      <point x="336" y="1460"/>
      <point x="270" y="1412"/>
      <point x="208" y="1354" type="curve"/>
    </contour>
    <contour>
      <point x="536" y="1034" type="move" name="_top"/>
    </contour>
  </outline>
</glyph>
<glyph name="macroncomb" format="2">
	<advance width="902"/>
	<unicode hex="0304"/>
	<anchor x="511" y="1034" name="_top"/>
	<outline>
		<contour>
			<point x="144" y="1178" type="line"/>
			<point x="940" y="1178" type="line"/>
			<point x="976" y="1416" type="line"/>
			<point x="180" y="1416" type="line"/>
		</contour>
	</outline>
</glyph>
<glyph name="brevecomb" format="1">
  <advance width="864"/>
  <unicode hex="0306"/>
  <outline>
    <contour>
      <point x="519" y="1156" type="curve" smooth="yes"/>
      <point x="695" y="1156"/>
      <point x="867" y="1250"/>
      <point x="955" y="1446" type="curve"/>
      <point x="745" y="1446" type="line"/>
      <point x="697" y="1378"/>
      <point x="633" y="1330"/>
      <point x="545" y="1330" type="curve" smooth="yes"/>
      <point x="459" y="1330"/>
      <point x="409" y="1378"/>
      <point x="381" y="1446" type="curve"/>
      <point x="171" y="1446" type="line"/>
      <point x="199" y="1244"/>
      <point x="347" y="1156"/>
    </contour>
    <contour>
      <point x="501" y="1034" type="move" name="_top"/>
    </contour>
  </outline>
</glyph>
<glyph name="dotaccentcomb" format="1">
  <advance width="492"/>
  <unicode hex="0307"/>
  <outline>
    <contour>
      <point x="135" y="1120" type="line"/>
      <point x="523" y="1120" type="line"/>
      <point x="573" y="1446" type="line"/>
      <point x="185" y="1446" type="line"/>
    </contour>
    <contour>
      <point x="317" y="1034" type="move" name="_top"/>
    </contour>
  </outline>
</glyph>
<glyph name="dieresiscomb" format="1">
  <advance width="902"/>
  <unicode hex="0308"/>
  <outline>
    <contour>
      <point x="598" y="1158" type="line"/>
      <point x="986" y="1158" type="line"/>
      <point x="1036" y="1486" type="line"/>
      <point x="648" y="1486" type="line"/>
    </contour>
    <contour>
      <point x="92" y="1158" type="line"/>
      <point x="480" y="1158" type="line"/>
      <point x="530" y="1486" type="line"/>
      <point x="142" y="1486" type="line"/>
    </contour>
    <contour>
      <point x="526" y="1040" type="move" name="_top"/>
    </contour>
  </outline>
</glyph>
<glyph name="hookabovecomb" format="1">
  <advance width="1195"/>
  <unicode hex="0309"/>
  <outline>
    <contour>
      <point x="749" y="1134" type="line"/>
      <point x="911" y="1222"/>
      <point x="953" y="1348"/>
      <point x="893" y="1472" type="curve" smooth="yes"/>
      <point x="843" y="1576"/>
      <point x="703" y="1606"/>
      <point x="561" y="1522" type="curve"/>
      <point x="623" y="1396" type="line"/>
      <point x="669" y="1424"/>
      <point x="725" y="1418"/>
      <point x="741" y="1382" type="curve" smooth="yes"/>
      <point x="761" y="1336"/>
      <point x="739" y="1294"/>
      <point x="687" y="1264" type="curve"/>
    </contour>
    <contour>
      <point x="653" y="1034" type="move" name="_top"/>
    </contour>
    <contour>
      <point x="577" y="1198" type="move" name="_topviet"/>
    </contour>
  </outline>
</glyph>
<glyph name="ringcomb" format="2">
	<advance width="568"/>
	<unicode hex="030A"/>
	<anchor x="342" y="1036" name="_top"/>
	<outline>
		<contour>
			<point x="356" y="1122" type="curve" smooth="yes"/>
			<point x="483" y="1122"/>
			<point x="604" y="1225"/>
			<point x="623" y="1356" type="curve" smooth="yes"/>
			<point x="643" y="1483"/>
			<point x="555" y="1585"/>
			<point x="426" y="1585" type="curve" smooth="yes"/>
			<point x="299" y="1585"/>
			<point x="178" y="1485"/>
			<point x="160" y="1360" type="curve" smooth="yes"/>
			<point x="139" y="1227"/>
			<point x="225" y="1122"/>
		</contour>
		<contour>
			<point x="375" y="1255" type="curve" smooth="yes"/>
			<point x="322" y="1255"/>
			<point x="283" y="1303"/>
			<point x="291" y="1354" type="curve" smooth="yes"/>
			<point x="299" y="1407"/>
			<point x="350" y="1448"/>
			<point x="403" y="1448" type="curve" smooth="yes"/>
			<point x="457" y="1448"/>
			<point x="492" y="1407"/>
			<point x="483" y="1354" type="curve" smooth="yes"/>
			<point x="475" y="1303"/>
			<point x="428" y="1255"/>
		</contour>
	</outline>
</glyph>
<glyph name="hungarumlautcomb" format="1">
  <advance width="954"/>
  <unicode hex="030B"/>
  <outline>
    <component base="dblgravecomb" xScale="-1" xOffset="1216"/>
    <contour>
      <point x="432" y="1034" type="move" name="_top"/>
    </contour>
  </outline>
</glyph>
<glyph name="caroncomb" format="1">
  <advance width="878"/>
  <unicode hex="030C"/>
  <outline>
    <contour>
      <point x="381" y="1140" type="line"/>
      <point x="645" y="1140" type="line"/>
      <point x="959" y="1448" type="line"/>
      <point x="681" y="1448" type="line"/>
      <point x="533" y="1284" type="line"/>
      <point x="417" y="1448" type="line"/>
      <point x="155" y="1448" type="line"/>
    </contour>
    <contour>
      <point x="497" y="1034" type="move" name="_top"/>
    </contour>
  </outline>
</glyph>
<glyph name="dblgravecomb" format="1">
  <advance width="1036"/>
  <unicode hex="030F"/>
  <outline>
    <contour>
      <point x="951" y="1446" type="line"/>
      <point x="624" y="1446" type="line"/>
      <point x="851" y="1155" type="line"/>
      <point x="1116" y="1155" type="line"/>
    </contour>
    <contour>
      <point x="481" y="1446" type="line"/>
      <point x="141" y="1446" type="line"/>
      <point x="430" y="1155" type="line"/>
      <point x="696" y="1155" type="line"/>
    </contour>
    <contour>
      <point x="774" y="1034" type="move" name="_top"/>
    </contour>
  </outline>
</glyph>
<glyph name="breveinvertedcomb" format="1">
  <advance width="844"/>
  <unicode hex="0311"/>
  <outline>
    <component base="brevecomb" yScale="-1" yxScale="-0.2811" xOffset="365" yOffset="2670"/>
    <contour>
      <point x="473" y="1034" type="move" name="_top"/>
    </contour>
  </outline>
</glyph>
<glyph name="dotbelowcomb" format="1">
  <advance width="413"/>
  <unicode hex="0323"/>
  <outline>
    <component base="dotaccentcomb" xOffset="-263" yOffset="-1588"/>
    <contour>
      <point x="133" y="0" type="move" name="_bottom"/>
    </contour>
  </outline>
</glyph>
<glyph name="cedillacomb" format="2">
	<advance width="636"/>
	<unicode hex="0327"/>
	<anchor x="227" y="0" name="_bottom"/>
	<outline>
		<contour>
			<point x="170" y="-449" type="curve" smooth="yes"/>
			<point x="309" y="-449"/>
			<point x="444" y="-381"/>
			<point x="461" y="-274" type="curve" smooth="yes"/>
			<point x="471" y="-199"/>
			<point x="424" y="-106"/>
			<point x="258" y="-106" type="curve"/>
			<point x="317" y="10" type="line"/>
			<point x="158" y="10" type="line"/>
			<point x="55" y="-166" type="line" smooth="yes"/>
			<point x="41" y="-188"/>
			<point x="51" y="-190"/>
			<point x="72" y="-190" type="curve" smooth="yes"/>
			<point x="209" y="-190"/>
			<point x="248" y="-219"/>
			<point x="242" y="-268" type="curve" smooth="yes"/>
			<point x="236" y="-301"/>
			<point x="195" y="-322"/>
			<point x="139" y="-322" type="curve" smooth="yes"/>
			<point x="80" y="-322"/>
			<point x="18" y="-295"/>
			<point x="-25" y="-268" type="curve"/>
			<point x="-92" y="-389" type="line"/>
			<point x="-20" y="-436"/>
			<point x="74" y="-449"/>
		</contour>
	</outline>
</glyph>
<glyph name="ogonekcomb" format="2">
	<advance width="581"/>
	<unicode hex="0328"/>
	<anchor x="384" y="20" name="_ogonek"/>
	<outline>
		<contour>
			<point x="159" y="-348" type="curve" smooth="yes"/>
			<point x="259" y="-348"/>
			<point x="357" y="-319"/>
			<point x="402" y="-293" type="curve"/>
			<point x="427" y="-125" type="line"/>
			<point x="374" y="-154"/>
			<point x="331" y="-176"/>
			<point x="271" y="-176" type="curve" smooth="yes"/>
			<point x="234" y="-176"/>
			<point x="220" y="-158"/>
			<point x="224" y="-119" type="curve" smooth="yes"/>
			<point x="232" y="-74"/>
			<point x="271" y="-37"/>
			<point x="429" y="12" type="curve"/>
			<point x="157" y="12" type="line"/>
			<point x="-5" y="-43"/>
			<point x="-46" y="-106"/>
			<point x="-56" y="-174" type="curve" smooth="yes"/>
			<point x="-75" y="-293"/>
			<point x="13" y="-348"/>
		</contour>
	</outline>
</glyph>
<glyph name="pi" format="2">
	<advance width="1412"/>
	<unicode hex="03C0"/>
	<outline>
		<contour>
			<point x="18" y="0" type="curve"/>
			<point x="393" y="0" type="line"/>
			<point x="485" y="197"/>
			<point x="596" y="586"/>
			<point x="625" y="788" type="curve"/>
			<point x="846" y="788" type="line"/>
			<point x="735" y="0" type="line"/>
			<point x="1116" y="0" type="line"/>
			<point x="1227" y="788" type="line"/>
			<point x="1387" y="788" type="line"/>
			<point x="1423" y="1059" type="line"/>
			<point x="115" y="1059" type="line"/>
			<point x="78" y="788" type="line"/>
			<point x="223" y="788" type="line" smooth="yes"/>
			<point x="236" y="788"/>
			<point x="240" y="780"/>
			<point x="238" y="768" type="curve" smooth="yes"/>
			<point x="211" y="580"/>
			<point x="109" y="229"/>
		</contour>
	</outline>
</glyph>
<glyph name="endash" format="1">
  <advance width="1255"/>
  <unicode hex="2013"/>
  <outline>
    <contour>
      <point x="87" y="356" type="line"/>
      <point x="1099" y="356" type="line"/>
      <point x="1141" y="630" type="line"/>
      <point x="129" y="630" type="line"/>
    </contour>
  </outline>
</glyph>
<glyph name="emdash" format="1">
  <advance width="1887"/>
  <unicode hex="2014"/>
  <outline>
    <contour>
      <point x="87" y="356" type="line"/>
      <point x="1731" y="356" type="line"/>
      <point x="1773" y="630" type="line"/>
      <point x="129" y="630" type="line"/>
    </contour>
  </outline>
</glyph>
<glyph name="quoteright" format="2">
	<advance width="597"/>
	<unicode hex="2019"/>
	<outline>
		<contour>
			<point x="143" y="821" type="line"/>
			<point x="274" y="821" type="line"/>
			<point x="561" y="1176" type="line"/>
			<point x="608" y="1481" type="line"/>
			<point x="248" y="1481" type="line"/>
			<point x="195" y="1137" type="line"/>
			<point x="311" y="1122" type="line"/>
		</contour>
	</outline>
</glyph>
<glyph name="quotesinglbase" format="2">
	<advance width="670"/>
	<unicode hex="201A"/>
	<outline>
		<contour>
			<point x="-16" y="-309" type="line"/>
			<point x="125" y="-309" type="line"/>
			<point x="434" y="45" type="line"/>
			<point x="481" y="352" type="line"/>
			<point x="90" y="352" type="line"/>
			<point x="37" y="6" type="line"/>
			<point x="162" y="-8" type="line"/>
		</contour>
	</outline>
</glyph>
<glyph name="quotedblleft" format="1">
  <advance width="1069"/>
  <unicode hex="201C"/>
  <outline>
    <contour>
      <point x="586" y="802" type="line"/>
      <point x="938" y="802" type="line"/>
      <point x="990" y="1138" type="line"/>
      <point x="876" y="1152" type="line"/>
      <point x="1040" y="1446" type="line"/>
      <point x="912" y="1446" type="line"/>
      <point x="632" y="1100" type="line"/>
    </contour>
    <contour>
      <point x="90" y="802" type="line"/>
      <point x="442" y="802" type="line"/>
      <point x="492" y="1138" type="line"/>
      <point x="380" y="1152" type="line"/>
      <point x="544" y="1446" type="line"/>
      <point x="416" y="1446" type="line"/>
      <point x="136" y="1100" type="line"/>
    </contour>
  </outline>
</glyph>
<glyph name="quotedblright" format="1">
  <advance width="1079"/>
  <unicode hex="201D"/>
  <outline>
    <contour>
      <point x="634" y="802" type="line"/>
      <point x="764" y="802" type="line"/>
      <point x="1044" y="1148" type="line"/>
      <point x="1090" y="1446" type="line"/>
      <point x="736" y="1446" type="line"/>
      <point x="686" y="1110" type="line"/>
      <point x="800" y="1096" type="line"/>
    </contour>
    <contour>
      <point x="140" y="802" type="line"/>
      <point x="268" y="802" type="line"/>
      <point x="548" y="1148" type="line"/>
      <point x="594" y="1446" type="line"/>
      <point x="242" y="1446" type="line"/>
      <point x="190" y="1110" type="line"/>
      <point x="304" y="1096" type="line"/>
    </contour>
  </outline>
</glyph>
<glyph name="dagger" format="2">
	<advance width="1182"/>
	<unicode hex="2020"/>
	<outline>
		<contour>
			<point x="263" y="-330" type="line"/>
			<point x="630" y="-330" type="line"/>
			<point x="722" y="768" type="line"/>
			<point x="1091" y="711" type="line"/>
			<point x="1142" y="1047" type="line"/>
			<point x="769" y="995" type="line"/>
			<point x="906" y="1481" type="line"/>
			<point x="534" y="1481" type="line"/>
			<point x="523" y="995" type="line"/>
			<point x="169" y="1047" type="line"/>
			<point x="118" y="711" type="line"/>
			<point x="501" y="768" type="line"/>
		</contour>
	</outline>
</glyph>
<glyph name="daggerdbl" format="2">
	<advance width="1186"/>
	<unicode hex="2021"/>
	<outline>
		<contour>
			<point x="265" y="-330" type="line"/>
			<point x="638" y="-330" type="line"/>
			<point x="640" y="117" type="line"/>
			<point x="998" y="63" type="line"/>
			<point x="1050" y="399" type="line"/>
			<point x="669" y="344" type="line"/>
			<point x="726" y="725" type="line"/>
			<point x="1091" y="670" type="line"/>
			<point x="1140" y="1004" type="line"/>
			<point x="769" y="952" type="line"/>
			<point x="910" y="1481" type="line"/>
			<point x="540" y="1481" type="line"/>
			<point x="523" y="952" type="line"/>
			<point x="167" y="1004" type="line"/>
			<point x="118" y="670" type="line"/>
			<point x="497" y="725" type="line"/>
			<point x="437" y="344" type="line"/>
			<point x="77" y="399" type="line"/>
			<point x="26" y="63" type="line"/>
			<point x="398" y="117" type="line"/>
		</contour>
	</outline>
</glyph>
<glyph name="bullet" format="1">
  <advance width="778"/>
  <unicode hex="2022"/>
  <outline>
    <contour>
      <point x="404" y="434" type="curve" smooth="yes"/>
      <point x="570" y="434"/>
      <point x="706" y="570"/>
      <point x="706" y="736" type="curve" smooth="yes"/>
      <point x="706" y="900"/>
      <point x="570" y="1036"/>
      <point x="404" y="1036" type="curve" smooth="yes"/>
      <point x="238" y="1036"/>
      <point x="104" y="900"/>
      <point x="104" y="736" type="curve" smooth="yes"/>
      <point x="104" y="570"/>
      <point x="238" y="434"/>
    </contour>
  </outline>
</glyph>
<glyph name="perthousand" format="2">
	<advance width="2646"/>
	<unicode hex="2030"/>
	<outline>
		<contour>
			<point x="1302" y="-20" type="curve" smooth="yes"/>
			<point x="1508" y="-20"/>
			<point x="1693" y="178"/>
			<point x="1723" y="393" type="curve" smooth="yes"/>
			<point x="1754" y="610"/>
			<point x="1623" y="817"/>
			<point x="1418" y="817" type="curve" smooth="yes"/>
			<point x="1215" y="817"/>
			<point x="1025" y="610"/>
			<point x="994" y="393" type="curve" smooth="yes"/>
			<point x="964" y="178"/>
			<point x="1095" y="-20"/>
		</contour>
		<contour>
			<point x="468" y="668" type="curve" smooth="yes"/>
			<point x="673" y="668"/>
			<point x="857" y="864"/>
			<point x="888" y="1079" type="curve" smooth="yes"/>
			<point x="919" y="1298"/>
			<point x="785" y="1503"/>
			<point x="585" y="1503" type="curve" smooth="yes"/>
			<point x="382" y="1503"/>
			<point x="189" y="1298"/>
			<point x="159" y="1079" type="curve" smooth="yes"/>
			<point x="130" y="864"/>
			<point x="259" y="668"/>
		</contour>
		<contour>
			<point x="493" y="862" type="curve" smooth="yes"/>
			<point x="417" y="862"/>
			<point x="404" y="936"/>
			<point x="425" y="1079" type="curve" smooth="yes"/>
			<point x="445" y="1229"/>
			<point x="482" y="1311"/>
			<point x="556" y="1311" type="curve" smooth="yes"/>
			<point x="630" y="1311"/>
			<point x="642" y="1231"/>
			<point x="622" y="1079" type="curve" smooth="yes"/>
			<point x="601" y="936"/>
			<point x="570" y="862"/>
		</contour>
		<contour>
			<point x="1326" y="176" type="curve" smooth="yes"/>
			<point x="1252" y="176"/>
			<point x="1242" y="250"/>
			<point x="1261" y="391" type="curve" smooth="yes"/>
			<point x="1283" y="541"/>
			<point x="1316" y="623"/>
			<point x="1390" y="623" type="curve" smooth="yes"/>
			<point x="1463" y="623"/>
			<point x="1476" y="543"/>
			<point x="1455" y="391" type="curve" smooth="yes"/>
			<point x="1435" y="250"/>
			<point x="1404" y="176"/>
		</contour>
		<contour>
			<point x="2104" y="-20" type="curve" smooth="yes"/>
			<point x="2309" y="-20"/>
			<point x="2493" y="178"/>
			<point x="2524" y="393" type="curve" smooth="yes"/>
			<point x="2555" y="610"/>
			<point x="2424" y="817"/>
			<point x="2221" y="817" type="curve" smooth="yes"/>
			<point x="2016" y="817"/>
			<point x="1828" y="610"/>
			<point x="1797" y="393" type="curve" smooth="yes"/>
			<point x="1766" y="178"/>
			<point x="1895" y="-20"/>
		</contour>
		<contour>
			<point x="2129" y="176" type="curve" smooth="yes"/>
			<point x="2055" y="176"/>
			<point x="2043" y="250"/>
			<point x="2061" y="391" type="curve" smooth="yes"/>
			<point x="2084" y="541"/>
			<point x="2119" y="623"/>
			<point x="2192" y="623" type="curve" smooth="yes"/>
			<point x="2266" y="623"/>
			<point x="2276" y="543"/>
			<point x="2256" y="391" type="curve" smooth="yes"/>
			<point x="2235" y="250"/>
			<point x="2207" y="176"/>
		</contour>
		<component base="fraction" xScale="0.92" yxScale="0.1405" xOffset="647"/>
	</outline>
</glyph>
<glyph name="guilsinglleft" format="2">
	<advance width="692"/>
	<unicode hex="2039"/>
	<outline>
		<contour>
			<point x="279" y="121" type="line"/>
			<point x="483" y="121" type="line"/>
			<point x="412" y="514" type="line"/>
			<point x="604" y="924" type="line"/>
			<point x="399" y="924" type="line"/>
			<point x="121" y="514" type="line"/>
		</contour>
	</outline>
</glyph>
<glyph name="guilsinglright" format="1">
  <advance width="676"/>
  <unicode hex="203A"/>
  <outline>
    <contour>
      <point x="64" y="118" type="line"/>
      <point x="262" y="118" type="line"/>
      <point x="534" y="502" type="line"/>
      <point x="384" y="902" type="line"/>
      <point x="184" y="902" type="line"/>
      <point x="250" y="502" type="line"/>
    </contour>
  </outline>
</glyph>
<glyph name="fraction" format="1">
  <advance width="544"/>
  <unicode hex="2044"/>
  <outline>
    <contour>
      <point x="-203" y="-8" type="line"/>
      <point x="987" y="1462" type="line"/>
      <point x="779" y="1462" type="line"/>
      <point x="-413" y="-4" type="line"/>
    </contour>
  </outline>
</glyph>
<glyph name="colonsign" format="1">
  <advance width="1308"/>
  <unicode hex="20A1"/>
  <outline>
    <contour>
      <point x="647" y="1032" type="line"/>
      <point x="761" y="1446" type="line"/>
      <point x="559" y="1442" type="line"/>
      <point x="455" y="1092" type="line"/>
    </contour>
    <contour>
      <point x="421" y="2" type="line"/>
      <point x="521" y="356" type="line"/>
      <point x="331" y="416" type="line"/>
      <point x="221" y="8" type="line"/>
    </contour>
    <contour>
      <point x="781" y="2" type="line"/>
      <point x="879" y="356" type="line"/>
      <point x="689" y="416" type="line"/>
      <point x="577" y="8" type="line"/>
    </contour>
    <contour>
      <point x="1007" y="1032" type="line"/>
      <point x="1119" y="1446" type="line"/>
      <point x="917" y="1442" type="line"/>
      <point x="815" y="1092" type="line"/>
    </contour>
    <component base="c" xScale="1.08" xOffset="65" yOffset="206"/>
  </outline>
</glyph>
<glyph name="franc" format="2">
	<advance width="1313"/>
	<unicode hex="20A3"/>
	<outline>
		<contour>
			<point x="32" y="0" type="line"/>
			<point x="482" y="0" type="line"/>
			<point x="568" y="571" type="line"/>
			<point x="1007" y="571" type="line"/>
			<point x="1054" y="889" type="line"/>
			<point x="615" y="889" type="line"/>
			<point x="656" y="1155" type="line"/>
			<point x="1334" y="1155" type="line"/>
			<point x="1385" y="1481" type="line"/>
			<point x="257" y="1481" type="line"/>
		</contour>
		<contour>
			<point x="-105" y="217" type="line"/>
			<point x="792" y="217" type="line"/>
			<point x="822" y="420" type="line"/>
			<point x="-75" y="420" type="line"/>
		</contour>
	</outline>
</glyph>
<glyph name="lira" format="2">
	<advance width="1390"/>
	<unicode hex="20A4"/>
	<outline>
		<contour>
			<point x="-23" y="0" type="line"/>
			<point x="737" y="0" type="line" smooth="yes"/>
			<point x="991" y="0"/>
			<point x="1200" y="150"/>
			<point x="1303" y="422" type="curve"/>
			<point x="981" y="487" type="line"/>
			<point x="930" y="373"/>
			<point x="866" y="328"/>
			<point x="756" y="328" type="curve"/>
			<point x="545" y="328" type="line"/>
			<point x="614" y="369"/>
			<point x="668" y="424"/>
			<point x="702" y="489" type="curve"/>
			<point x="928" y="489" type="line"/>
			<point x="958" y="690" type="line"/>
			<point x="745" y="690" type="line"/>
			<point x="752" y="788" type="line"/>
			<point x="973" y="788" type="line"/>
			<point x="1003" y="991" type="line"/>
			<point x="772" y="991" type="line" smooth="yes"/>
			<point x="758" y="991"/>
			<point x="752" y="999"/>
			<point x="752" y="1016" type="curve" smooth="yes"/>
			<point x="754" y="1036"/>
			<point x="754" y="1055"/>
			<point x="756" y="1071" type="curve" smooth="yes"/>
			<point x="768" y="1149"/>
			<point x="811" y="1194"/>
			<point x="872" y="1194" type="curve" smooth="yes"/>
			<point x="942" y="1194"/>
			<point x="963" y="1130"/>
			<point x="977" y="1063" type="curve"/>
			<point x="1335" y="1161" type="line"/>
			<point x="1272" y="1405"/>
			<point x="1053" y="1501"/>
			<point x="856" y="1501" type="curve" smooth="yes"/>
			<point x="588" y="1501"/>
			<point x="317" y="1364"/>
			<point x="297" y="1090" type="curve"/>
			<point x="289" y="991" type="line"/>
			<point x="129" y="991" type="line"/>
			<point x="98" y="788" type="line"/>
			<point x="287" y="788" type="line"/>
			<point x="283" y="690" type="line"/>
			<point x="84" y="690" type="line"/>
			<point x="53" y="489" type="line"/>
			<point x="260" y="489" type="line" smooth="yes"/>
			<point x="272" y="489"/>
			<point x="279" y="485"/>
			<point x="276" y="473" type="curve" smooth="yes"/>
			<point x="272" y="451"/>
			<point x="268" y="432"/>
			<point x="260" y="416" type="curve" smooth="yes"/>
			<point x="229" y="352"/>
			<point x="168" y="326"/>
			<point x="90" y="326" type="curve" smooth="yes"/>
			<point x="27" y="326" type="line"/>
		</contour>
	</outline>
</glyph>
<glyph name="naira" format="1">
  <advance width="1748"/>
  <unicode hex="20A6"/>
  <outline>
    <contour>
      <point x="76" y="888" type="line"/>
      <point x="1646" y="888" type="line"/>
      <point x="1674" y="1064" type="line"/>
      <point x="104" y="1064" type="line"/>
    </contour>
    <contour>
      <point x="6" y="420" type="line"/>
      <point x="1576" y="420" type="line"/>
      <point x="1602" y="596" type="line"/>
      <point x="32" y="596" type="line"/>
    </contour>
    <component base="N" xScale="0.9936" yxScale="0.1518" xOffset="14"/>
  </outline>
</glyph>
<glyph name="won" format="2">
	<advance width="2448"/>
	<unicode hex="20A9"/>
	<outline>
		<contour>
			<point x="62" y="829" type="line"/>
			<point x="2444" y="829" type="line"/>
			<point x="2475" y="1030" type="line"/>
			<point x="93" y="1030" type="line"/>
		</contour>
		<contour>
			<point x="112" y="1149" type="line"/>
			<point x="2493" y="1149" type="line"/>
			<point x="2522" y="1350" type="line"/>
			<point x="142" y="1350" type="line"/>
		</contour>
		<component base="W" xScale="0.9936" yxScale="0.1518" xOffset="121"/>
	</outline>
</glyph>
<glyph name="dong" format="2">
	<advance width="1151"/>
	<unicode hex="20AB"/>
	<outline>
		<contour>
			<point x="359" y="256" type="curve" smooth="yes"/>
			<point x="472" y="256"/>
			<point x="548" y="295"/>
			<point x="632" y="371" type="curve"/>
			<point x="615" y="272" type="line"/>
			<point x="939" y="272" type="line"/>
			<point x="1123" y="1481" type="line"/>
			<point x="796" y="1481" type="line"/>
			<point x="736" y="1090" type="line" smooth="yes"/>
			<point x="732" y="1065"/>
			<point x="718" y="1065"/>
			<point x="701" y="1077" type="curve" smooth="yes"/>
			<point x="646" y="1143"/>
			<point x="587" y="1161"/>
			<point x="513" y="1161" type="curve" smooth="yes"/>
			<point x="331" y="1161"/>
			<point x="140" y="983"/>
			<point x="97" y="705" type="curve" smooth="yes"/>
			<point x="52" y="408"/>
			<point x="165" y="256"/>
		</contour>
		<contour>
			<point x="54" y="0" type="line"/>
			<point x="898" y="0" type="line"/>
			<point x="925" y="178" type="line"/>
			<point x="81" y="178" type="line"/>
		</contour>
		<contour>
			<point x="523" y="453" type="curve" smooth="yes"/>
			<point x="437" y="453"/>
			<point x="400" y="518"/>
			<point x="429" y="707" type="curve" smooth="yes"/>
			<point x="458" y="899"/>
			<point x="523" y="958"/>
			<point x="599" y="958" type="curve" smooth="yes"/>
			<point x="650" y="958"/>
			<point x="677" y="936"/>
			<point x="703" y="895" type="curve"/>
			<point x="654" y="563" type="line" smooth="yes"/>
			<point x="644" y="498"/>
			<point x="589" y="453"/>
		</contour>
		<contour>
			<point x="562" y="1221" type="line"/>
			<point x="1205" y="1221" type="line"/>
			<point x="1230" y="1380" type="line"/>
			<point x="587" y="1380" type="line"/>
		</contour>
	</outline>
</glyph>
<glyph name="euro" format="2">
	<advance width="1432"/>
	<unicode hex="20AC"/>
	<outline>
		<contour>
			<point x="736" y="-20" type="curve" smooth="yes"/>
			<point x="953" y="-20"/>
			<point x="1160" y="96"/>
			<point x="1291" y="244" type="curve"/>
			<point x="1115" y="463" type="line"/>
			<point x="1058" y="389"/>
			<point x="939" y="307"/>
			<point x="839" y="307" type="curve" smooth="yes"/>
			<point x="714" y="307"/>
			<point x="613" y="424"/>
			<point x="665" y="754" type="curve" smooth="yes"/>
			<point x="714" y="1079"/>
			<point x="826" y="1194"/>
			<point x="960" y="1194" type="curve" smooth="yes"/>
			<point x="1060" y="1194"/>
			<point x="1107" y="1124"/>
			<point x="1152" y="1057" type="curve"/>
			<point x="1451" y="1249" type="line"/>
			<point x="1365" y="1403"/>
			<point x="1193" y="1501"/>
			<point x="970" y="1501" type="curve" smooth="yes"/>
			<point x="593" y="1501"/>
			<point x="278" y="1210"/>
			<point x="208" y="760" type="curve" smooth="yes"/>
			<point x="140" y="309"/>
			<point x="364" y="-20"/>
		</contour>
		<contour>
			<point x="11" y="469" type="line"/>
			<point x="927" y="469" type="line"/>
			<point x="957" y="672" type="line"/>
			<point x="42" y="672" type="line"/>
		</contour>
		<contour>
			<point x="65" y="809" type="line"/>
			<point x="980" y="809" type="line"/>
			<point x="1011" y="1010" type="line"/>
			<point x="93" y="1010" type="line"/>
		</contour>
	</outline>
</glyph>
<glyph name="rupeeIndian" format="2">
	<advance width="1425"/>
	<unicode hex="20B9"/>
	<outline>
		<contour>
			<point x="628" y="0" type="line"/>
			<point x="1117" y="0" type="line"/>
			<point x="939" y="647" type="line" smooth="yes"/>
			<point x="935" y="664"/>
			<point x="937" y="680"/>
			<point x="949" y="684" type="curve" smooth="yes"/>
			<point x="1113" y="745"/>
			<point x="1242" y="887"/>
			<point x="1269" y="1069" type="curve" smooth="yes"/>
			<point x="1308" y="1327"/>
			<point x="1107" y="1481"/>
			<point x="728" y="1481" type="curve" smooth="yes"/>
			<point x="204" y="1481" type="line"/>
			<point x="175" y="1286" type="line"/>
			<point x="628" y="1286" type="line" smooth="yes"/>
			<point x="759" y="1286"/>
			<point x="826" y="1227"/>
			<point x="806" y="1083" type="curve" smooth="yes"/>
			<point x="785" y="954"/>
			<point x="722" y="891"/>
			<point x="579" y="891" type="curve" smooth="yes"/>
			<point x="116" y="891" type="line"/>
			<point x="73" y="612" type="line"/>
			<point x="509" y="612" type="line"/>
		</contour>
		<contour>
			<point x="132" y="999" type="line"/>
			<point x="1424" y="999" type="line"/>
			<point x="1453" y="1180" type="line"/>
			<point x="159" y="1180" type="line"/>
		</contour>
		<contour>
			<point x="177" y="1300" type="line"/>
			<point x="1471" y="1300" type="line"/>
			<point x="1498" y="1481" type="line"/>
			<point x="204" y="1481" type="line"/>
		</contour>
	</outline>
</glyph>
<glyph name="liraTurkish" format="2">
	<advance width="1494"/>
	<unicode hex="20BA"/>
	<outline>
		<contour>
			<point x="222" y="0" type="line"/>
			<point x="544" y="0" type="line" smooth="yes"/>
			<point x="1058" y="0"/>
			<point x="1310" y="272"/>
			<point x="1457" y="555" type="curve"/>
			<point x="1125" y="627" type="line"/>
			<point x="1029" y="444"/>
			<point x="898" y="334"/>
			<point x="769" y="328" type="curve" smooth="yes"/>
			<point x="724" y="328" type="line"/>
			<point x="898" y="1481" type="line"/>
			<point x="445" y="1481" type="line"/>
		</contour>
		<contour>
			<point x="114" y="377" type="line"/>
			<point x="1109" y="723" type="line"/>
			<point x="1070" y="913" type="line"/>
			<point x="75" y="567" type="line"/>
		</contour>
		<contour>
			<point x="122" y="694" type="line"/>
			<point x="1121" y="1042" type="line"/>
			<point x="1080" y="1231" type="line"/>
			<point x="81" y="885" type="line"/>
		</contour>
	</outline>
</glyph>
<glyph name="literSign" format="1">
  <advance width="1258"/>
  <unicode hex="2113"/>
  <outline>
    <contour>
      <point x="587" y="-20" type="curve" smooth="yes"/>
      <point x="1045" y="430" type="line"/>
      <point x="1021" y="412"/>
      <point x="1021" y="412"/>
      <point x="1023" y="412" type="curve" smooth="yes"/>
      <point x="929" y="322"/>
      <point x="821" y="262"/>
      <point x="725" y="262" type="curve" smooth="yes"/>
      <point x="633" y="262"/>
      <point x="575" y="318"/>
      <point x="585" y="390" type="curve"/>
      <point x="595" y="458" type="line"/>
      <point x="869" y="650"/>
      <point x="1107" y="816"/>
      <point x="1151" y="1110" type="curve" smooth="yes"/>
      <point x="1181" y="1302"/>
      <point x="1117" y="1466"/>
      <point x="835" y="1466" type="curve" smooth="yes"/>
      <point x="547" y="1466"/>
      <point x="327" y="1292"/>
      <point x="273" y="940" type="curve" smooth="yes"/>
      <point x="215" y="550" type="line"/>
      <point x="27" y="422" type="line"/>
      <point x="77" y="218" type="line"/>
      <point x="171" y="276" type="line" smooth="yes"/>
      <point x="175" y="280"/>
      <point x="179" y="278"/>
      <point x="179" y="270" type="curve" smooth="yes"/>
      <point x="199" y="116"/>
      <point x="281" y="-20"/>
    </contour>
    <contour>
      <point x="641" y="754" type="curve"/>
      <point x="675" y="974" type="line" smooth="yes"/>
      <point x="707" y="1192"/>
      <point x="767" y="1248"/>
      <point x="835" y="1248" type="curve" smooth="yes"/>
      <point x="901" y="1248"/>
      <point x="919" y="1198"/>
      <point x="907" y="1126" type="curve" smooth="yes"/>
      <point x="889" y="1000"/>
      <point x="795" y="886"/>
    </contour>
  </outline>
</glyph>
<glyph name="published" format="2">
	<advance width="1717"/>
	<unicode hex="2117"/>
	<outline>
		<contour>
			<point x="763" y="-20" type="curve" smooth="yes"/>
			<point x="1179" y="-20"/>
			<point x="1570" y="317"/>
			<point x="1635" y="741" type="curve" smooth="yes"/>
			<point x="1699" y="1159"/>
			<point x="1410" y="1501"/>
			<point x="992" y="1501" type="curve" smooth="yes"/>
			<point x="577" y="1501"/>
			<point x="185" y="1159"/>
			<point x="122" y="741" type="curve" smooth="yes"/>
			<point x="58" y="317"/>
			<point x="345" y="-20"/>
		</contour>
		<contour>
			<point x="794" y="182" type="curve" smooth="yes"/>
			<point x="466" y="182"/>
			<point x="292" y="399"/>
			<point x="345" y="741" type="curve" smooth="yes"/>
			<point x="396" y="1079"/>
			<point x="636" y="1303"/>
			<point x="964" y="1303" type="curve" smooth="yes"/>
			<point x="1287" y="1303"/>
			<point x="1463" y="1079"/>
			<point x="1412" y="741" type="curve" smooth="yes"/>
			<point x="1361" y="399"/>
			<point x="1117" y="182"/>
		</contour>
		<contour>
			<point x="513" y="348" type="line"/>
			<point x="753" y="348" type="line"/>
			<point x="792" y="600" type="line"/>
			<point x="959" y="600" type="line" smooth="yes"/>
			<point x="1134" y="600"/>
			<point x="1265" y="692"/>
			<point x="1291" y="862" type="curve" smooth="yes"/>
			<point x="1320" y="1051"/>
			<point x="1187" y="1135"/>
			<point x="1015" y="1135" type="curve" smooth="yes"/>
			<point x="632" y="1135" type="line"/>
		</contour>
		<contour>
			<point x="816" y="768" type="line"/>
			<point x="847" y="963" type="line"/>
			<point x="974" y="963" type="line" smooth="yes"/>
			<point x="1021" y="963"/>
			<point x="1058" y="934"/>
			<point x="1048" y="866" type="curve" smooth="yes"/>
			<point x="1037" y="805"/>
			<point x="1002" y="768"/>
			<point x="951" y="768" type="curve" smooth="yes"/>
		</contour>
	</outline>
</glyph>
<glyph name="Ohm" format="2">
	<advance width="1567"/>
	<unicode hex="2126"/>
	<outline>
		<contour>
			<point x="1" y="0" type="line"/>
			<point x="654" y="0" type="line"/>
			<point x="697" y="287" type="line"/>
			<point x="593" y="369"/>
			<point x="519" y="551"/>
			<point x="556" y="799" type="curve" smooth="yes"/>
			<point x="605" y="1122"/>
			<point x="761" y="1225"/>
			<point x="892" y="1225" type="curve" smooth="yes"/>
			<point x="1031" y="1225"/>
			<point x="1132" y="1110"/>
			<point x="1086" y="809" type="curve" smooth="yes"/>
			<point x="1043" y="530"/>
			<point x="910" y="367"/>
			<point x="792" y="287" type="curve"/>
			<point x="746" y="0" type="line"/>
			<point x="1398" y="0" type="line"/>
			<point x="1449" y="336" type="line"/>
			<point x="1193" y="336" type="line"/>
			<point x="1394" y="489"/>
			<point x="1508" y="649"/>
			<point x="1541" y="858" type="curve" smooth="yes"/>
			<point x="1586" y="1161"/>
			<point x="1414" y="1540"/>
			<point x="941" y="1540" type="curve" smooth="yes"/>
			<point x="484" y="1540"/>
			<point x="169" y="1192"/>
			<point x="118" y="856" type="curve" smooth="yes"/>
			<point x="83" y="623"/>
			<point x="183" y="444"/>
			<point x="298" y="336" type="curve"/>
			<point x="52" y="336" type="line"/>
		</contour>
	</outline>
</glyph>
<glyph name="partialdiff" format="1">
  <advance width="1234"/>
  <unicode hex="2202"/>
  <outline>
    <contour>
      <point x="497" y="-20" type="curve" smooth="yes"/>
      <point x="887" y="-20"/>
      <point x="1115" y="276"/>
      <point x="1181" y="708" type="curve" smooth="yes"/>
      <point x="1259" y="1226"/>
      <point x="1029" y="1466"/>
      <point x="667" y="1466" type="curve" smooth="yes"/>
      <point x="449" y="1466"/>
      <point x="283" y="1374"/>
      <point x="223" y="1330" type="curve"/>
      <point x="291" y="1106" type="line"/>
      <point x="353" y="1142"/>
      <point x="437" y="1190"/>
      <point x="565" y="1190" type="curve" smooth="yes"/>
      <point x="827" y="1190"/>
      <point x="881" y="980"/>
      <point x="867" y="878" type="curve" smooth="yes"/>
      <point x="863" y="856"/>
      <point x="857" y="836"/>
      <point x="829" y="862" type="curve" smooth="yes"/>
      <point x="781" y="906"/>
      <point x="727" y="952"/>
      <point x="595" y="952" type="curve" smooth="yes"/>
      <point x="309" y="952"/>
      <point x="103" y="734"/>
      <point x="63" y="464" type="curve" smooth="yes"/>
      <point x="21" y="190"/>
      <point x="169" y="-20"/>
    </contour>
    <contour>
      <point x="533" y="246" type="line" smooth="yes"/>
      <point x="451" y="246"/>
      <point x="399" y="310"/>
      <point x="419" y="448" type="curve" smooth="yes"/>
      <point x="441" y="592"/>
      <point x="529" y="704"/>
      <point x="633" y="704" type="curve" smooth="yes"/>
      <point x="709" y="704"/>
      <point x="757" y="650"/>
      <point x="777" y="598" type="curve" smooth="yes"/>
      <point x="787" y="576"/>
      <point x="787" y="566"/>
      <point x="777" y="528" type="curve" smooth="yes"/>
      <point x="735" y="362"/>
      <point x="651" y="246"/>
      <point x="535" y="246" type="curve" smooth="yes"/>
    </contour>
  </outline>
</glyph>
<glyph name="emptyset" format="2">
	<advance width="1259"/>
	<unicode hex="2205"/>
	<outline>
		<contour>
			<point x="135" y="215" type="line"/>
			<point x="1251" y="1130" type="line"/>
			<point x="1153" y="1255" type="line"/>
			<point x="35" y="342" type="line"/>
		</contour>
		<contour>
			<point x="575" y="252" type="curve" smooth="yes"/>
			<point x="846" y="252"/>
			<point x="1100" y="473"/>
			<point x="1141" y="745" type="curve" smooth="yes"/>
			<point x="1182" y="1016"/>
			<point x="995" y="1237"/>
			<point x="725" y="1237" type="curve" smooth="yes"/>
			<point x="457" y="1237"/>
			<point x="203" y="1016"/>
			<point x="162" y="745" type="curve" smooth="yes"/>
			<point x="121" y="473"/>
			<point x="307" y="252"/>
		</contour>
		<contour>
			<point x="602" y="420" type="curve" smooth="yes"/>
			<point x="424" y="420"/>
			<point x="301" y="565"/>
			<point x="330" y="745" type="curve" smooth="yes"/>
			<point x="356" y="922"/>
			<point x="522" y="1069"/>
			<point x="700" y="1069" type="curve" smooth="yes"/>
			<point x="879" y="1069"/>
			<point x="1001" y="922"/>
			<point x="975" y="745" type="curve" smooth="yes"/>
			<point x="946" y="565"/>
			<point x="780" y="420"/>
		</contour>
	</outline>
</glyph>
<glyph name="increment" format="1">
  <advance width="1654"/>
  <unicode hex="2206"/>
  <outline>
    <contour>
      <point x="-43" y="0" type="line"/>
      <point x="1551" y="0" type="line"/>
      <point x="993" y="1446" type="line"/>
    </contour>
    <contour>
      <point x="563" y="318" type="line"/>
      <point x="891" y="772" type="line"/>
      <point x="1059" y="318" type="line"/>
    </contour>
  </outline>
</glyph>
<glyph name="product" format="2">
	<advance width="1502"/>
	<unicode hex="220F"/>
	<outline>
		<contour>
			<point x="119" y="0" type="line"/>
			<point x="524" y="0" type="line"/>
			<point x="698" y="1159" type="line"/>
			<point x="954" y="1159" type="line"/>
			<point x="778" y="0" type="line"/>
			<point x="1182" y="0" type="line"/>
			<point x="1358" y="1159" type="line"/>
			<point x="1526" y="1159" type="line"/>
			<point x="1575" y="1481" type="line"/>
			<point x="178" y="1481" type="line"/>
			<point x="129" y="1159" type="line"/>
			<point x="295" y="1159" type="line"/>
		</contour>
	</outline>
</glyph>
<glyph name="summation" format="2">
	<advance width="1250"/>
	<unicode hex="2211"/>
	<outline>
		<contour>
			<point x="-13" y="0" type="line"/>
			<point x="1089" y="0" type="line"/>
			<point x="1140" y="332" type="line"/>
			<point x="550" y="332" type="line"/>
			<point x="1005" y="778" type="line"/>
			<point x="720" y="1167" type="line"/>
			<point x="1230" y="1167" type="line"/>
			<point x="1277" y="1481" type="line"/>
			<point x="230" y="1481" type="line"/>
			<point x="191" y="1219" type="line"/>
			<point x="507" y="731" type="line"/>
			<point x="22" y="233" type="line"/>
		</contour>
	</outline>
</glyph>
<glyph name="bulletoperator" format="2">
	<advance width="790"/>
	<unicode hex="2219"/>
	<outline>
		<contour>
			<point x="382" y="563" type="curve" smooth="yes"/>
			<point x="484" y="563"/>
			<point x="581" y="647"/>
			<point x="595" y="750" type="curve" smooth="yes"/>
			<point x="611" y="852"/>
			<point x="540" y="936"/>
			<point x="439" y="936" type="curve" smooth="yes"/>
			<point x="337" y="936"/>
			<point x="241" y="852"/>
			<point x="226" y="750" type="curve" smooth="yes"/>
			<point x="210" y="647"/>
			<point x="282" y="563"/>
		</contour>
	</outline>
</glyph>
<glyph name="radical" format="2">
	<advance width="1504"/>
	<unicode hex="221A"/>
	<outline>
		<contour>
			<point x="426" y="-330" type="line"/>
			<point x="821" y="-330" type="line"/>
			<point x="1657" y="1692" type="line"/>
			<point x="1331" y="1692" type="line"/>
			<point x="672" y="25" type="line"/>
			<point x="520" y="766" type="line"/>
			<point x="41" y="604" type="line"/>
			<point x="86" y="391" type="line"/>
			<point x="262" y="453" type="line"/>
		</contour>
	</outline>
</glyph>
<glyph name="infinity" format="2">
	<advance width="1727"/>
	<unicode hex="221E"/>
	<outline>
		<contour>
			<point x="404" y="158" type="curve" smooth="yes"/>
			<point x="617" y="158"/>
			<point x="763" y="332"/>
			<point x="810" y="373" type="curve" smooth="yes"/>
			<point x="830" y="395"/>
			<point x="837" y="391"/>
			<point x="851" y="373" type="curve" smooth="yes"/>
			<point x="933" y="256"/>
			<point x="1005" y="158"/>
			<point x="1175" y="158" type="curve" smooth="yes"/>
			<point x="1379" y="158"/>
			<point x="1578" y="305"/>
			<point x="1617" y="559" type="curve" smooth="yes"/>
			<point x="1619" y="563" type="line" smooth="yes"/>
			<point x="1654" y="795"/>
			<point x="1519" y="942"/>
			<point x="1312" y="942" type="curve" smooth="yes"/>
			<point x="1134" y="942"/>
			<point x="1017" y="831"/>
			<point x="927" y="743" type="curve" smooth="yes"/>
			<point x="900" y="719"/>
			<point x="892" y="717"/>
			<point x="873" y="743" type="curve" smooth="yes"/>
			<point x="790" y="854"/>
			<point x="722" y="942"/>
			<point x="550" y="942" type="curve" smooth="yes"/>
			<point x="323" y="942"/>
			<point x="132" y="784"/>
			<point x="95" y="549" type="curve" smooth="yes"/>
			<point x="60" y="311"/>
			<point x="208" y="158"/>
		</contour>
		<contour>
			<point x="464" y="389" type="line" smooth="yes"/>
			<point x="378" y="389"/>
			<point x="323" y="457"/>
			<point x="337" y="555" type="curve" smooth="yes"/>
			<point x="351" y="649"/>
			<point x="423" y="717"/>
			<point x="511" y="717" type="curve" smooth="yes"/>
			<point x="589" y="717"/>
			<point x="640" y="666"/>
			<point x="685" y="582" type="curve" smooth="yes"/>
			<point x="699" y="547"/>
			<point x="701" y="541"/>
			<point x="677" y="512" type="curve" smooth="yes"/>
			<point x="630" y="459"/>
			<point x="546" y="389"/>
			<point x="468" y="389" type="curve" smooth="yes"/>
		</contour>
		<contour>
			<point x="1213" y="389" type="curve" smooth="yes"/>
			<point x="1172" y="389"/>
			<point x="1097" y="406"/>
			<point x="1031" y="520" type="curve" smooth="yes"/>
			<point x="1021" y="539"/>
			<point x="1015" y="561"/>
			<point x="1041" y="588" type="curve" smooth="yes"/>
			<point x="1101" y="647"/>
			<point x="1175" y="717"/>
			<point x="1254" y="717" type="curve" smooth="yes"/>
			<point x="1256" y="717" type="line" smooth="yes"/>
			<point x="1347" y="717"/>
			<point x="1390" y="639"/>
			<point x="1377" y="553" type="curve" smooth="yes"/>
			<point x="1365" y="475"/>
			<point x="1304" y="389"/>
		</contour>
	</outline>
</glyph>
<glyph name="integral" format="2">
	<advance width="1029"/>
	<unicode hex="222B"/>
	<outline>
		<contour>
			<point x="129" y="-352" type="curve" smooth="yes"/>
			<point x="432" y="-352"/>
			<point x="590" y="-156"/>
			<point x="651" y="248" type="curve" smooth="yes"/>
			<point x="684" y="455"/>
			<point x="713" y="856"/>
			<point x="760" y="1176" type="curve" smooth="yes"/>
			<point x="784" y="1329"/>
			<point x="819" y="1376"/>
			<point x="889" y="1376" type="curve" smooth="yes"/>
			<point x="948" y="1376"/>
			<point x="987" y="1356"/>
			<point x="1016" y="1341" type="curve"/>
			<point x="1137" y="1661" type="line"/>
			<point x="1102" y="1686"/>
			<point x="1024" y="1712"/>
			<point x="918" y="1712" type="curve" smooth="yes"/>
			<point x="610" y="1712"/>
			<point x="457" y="1518"/>
			<point x="397" y="1128" type="curve" smooth="yes"/>
			<point x="367" y="924"/>
			<point x="336" y="494"/>
			<point x="289" y="190" type="curve" smooth="yes"/>
			<point x="264" y="27"/>
			<point x="227" y="-16"/>
			<point x="160" y="-16" type="curve" smooth="yes"/>
			<point x="102" y="-16"/>
			<point x="63" y="2"/>
			<point x="39" y="16" type="curve"/>
			<point x="-86" y="-303" type="line"/>
			<point x="-47" y="-328"/>
			<point x="27" y="-352"/>
		</contour>
	</outline>
</glyph>
<glyph name="approxequal" format="2">
	<advance width="1317"/>
	<unicode hex="2248"/>
	<outline>
		<contour>
			<point x="252" y="686" type="line"/>
			<point x="338" y="772"/>
			<point x="420" y="858"/>
			<point x="524" y="858" type="curve" smooth="yes"/>
			<point x="657" y="858"/>
			<point x="725" y="715"/>
			<point x="893" y="715" type="curve" smooth="yes"/>
			<point x="1008" y="715"/>
			<point x="1151" y="786"/>
			<point x="1262" y="944" type="curve"/>
			<point x="1176" y="1128" type="line"/>
			<point x="1108" y="1032"/>
			<point x="1014" y="956"/>
			<point x="922" y="956" type="curve" smooth="yes"/>
			<point x="797" y="956"/>
			<point x="741" y="1098"/>
			<point x="565" y="1098" type="curve" smooth="yes"/>
			<point x="424" y="1098"/>
			<point x="307" y="1004"/>
			<point x="168" y="874" type="curve"/>
		</contour>
		<contour>
			<point x="184" y="233" type="line"/>
			<point x="266" y="317"/>
			<point x="350" y="406"/>
			<point x="455" y="406" type="curve" smooth="yes"/>
			<point x="590" y="406"/>
			<point x="657" y="262"/>
			<point x="823" y="262" type="curve" smooth="yes"/>
			<point x="940" y="262"/>
			<point x="1083" y="334"/>
			<point x="1192" y="492" type="curve"/>
			<point x="1106" y="676" type="line"/>
			<point x="1038" y="580"/>
			<point x="946" y="504"/>
			<point x="852" y="504" type="curve" smooth="yes"/>
			<point x="729" y="504"/>
			<point x="672" y="645"/>
			<point x="498" y="645" type="curve" smooth="yes"/>
			<point x="354" y="645"/>
			<point x="240" y="551"/>
			<point x="98" y="422" type="curve"/>
		</contour>
	</outline>
</glyph>
<glyph name="notequal" format="1">
  <advance width="1242"/>
  <unicode hex="2260"/>
  <outline>
    <contour>
      <point x="162" y="22" type="line"/>
      <point x="358" y="22" type="line"/>
      <point x="970" y="1332" type="line"/>
      <point x="782" y="1332" type="line"/>
    </contour>
    <component base="equal"/>
  </outline>
</glyph>
<glyph name="lessequal" format="2">
	<advance width="1266"/>
	<unicode hex="2264"/>
	<outline>
		<contour>
			<point x="1106" y="362" type="line"/>
			<point x="1155" y="694" type="line"/>
			<point x="598" y="911" type="line"/>
			<point x="1223" y="1135" type="line"/>
			<point x="1274" y="1464" type="line"/>
			<point x="205" y="1073" type="line"/>
			<point x="156" y="756" type="line"/>
		</contour>
		<contour>
			<point x="1077" y="16" type="line"/>
			<point x="1120" y="297" type="line"/>
			<point x="84" y="297" type="line"/>
			<point x="41" y="16" type="line"/>
		</contour>
	</outline>
</glyph>
<glyph name="greaterequal" format="2">
	<advance width="1272"/>
	<unicode hex="2265"/>
	<outline>
		<contour>
			<point x="117" y="362" type="line"/>
			<point x="1188" y="756" type="line"/>
			<point x="1235" y="1073" type="line"/>
			<point x="283" y="1464" type="line"/>
			<point x="233" y="1135" type="line"/>
			<point x="791" y="911" type="line"/>
			<point x="166" y="694" type="line"/>
		</contour>
		<contour>
			<point x="41" y="16" type="line"/>
			<point x="1077" y="16" type="line"/>
			<point x="1120" y="297" type="line"/>
			<point x="84" y="297" type="line"/>
		</contour>
	</outline>
</glyph>
<glyph name="lozenge" format="2">
	<advance width="1258"/>
	<unicode hex="25CA"/>
	<outline>
		<contour>
			<point x="445" y="0" type="line"/>
			<point x="687" y="0" type="line"/>
			<point x="1195" y="745" type="line"/>
			<point x="921" y="1481" type="line"/>
			<point x="677" y="1481" type="line"/>
			<point x="173" y="741" type="line"/>
		</contour>
		<contour>
			<point x="613" y="270" type="line"/>
			<point x="462" y="745" type="line"/>
			<point x="755" y="1202" type="line"/>
			<point x="910" y="741" type="line"/>
		</contour>
	</outline>
</glyph>
<glyph name="__horn" format="1">
  <advance width="302"/>
  <outline>
    <contour>
      <point x="51" y="880" type="line"/>
      <point x="401" y="840"/>
      <point x="505" y="952"/>
      <point x="559" y="1278" type="curve"/>
      <point x="325" y="1278" type="line"/>
      <point x="269" y="1040"/>
      <point x="219" y="1056"/>
      <point x="77" y="1058" type="curve"/>
    </contour>
    <contour>
      <point x="51" y="880" type="move" name="_horn"/>
    </contour>
    <contour>
      <point x="289" y="1060" type="move" name="_topright"/>
    </contour>
    <contour>
      <point x="289" y="1060" type="move" name="topright"/>
    </contour>
  </outline>
</glyph>
<glyph name="_emdash" format="2">
	<advance width="2414"/>
	<outline>
		<contour>
			<point x="2070" y="645" type="line"/>
			<point x="377" y="645" type="line"/>
			<point x="337" y="365" type="line"/>
			<point x="2030" y="365" type="line"/>
		</contour>
	</outline>
</glyph>
<glyph name="_j-hook" format="2">
	<advance width="1232"/>
	<outline>
		<contour>
			<point x="240" y="-20" type="curve" smooth="yes"/>
			<point x="596" y="-20"/>
			<point x="700" y="141"/>
			<point x="750" y="469" type="curve" smooth="yes"/>
			<point x="778" y="651" type="line"/>
			<point x="381" y="651" type="line"/>
			<point x="369" y="571" type="line" smooth="yes"/>
			<point x="346" y="418"/>
			<point x="301" y="348"/>
			<point x="160" y="348" type="curve" smooth="yes"/>
			<point x="117" y="348"/>
			<point x="68" y="354"/>
			<point x="31" y="358" type="curve"/>
			<point x="-23" y="0" type="line"/>
			<point x="37" y="-12"/>
			<point x="158" y="-20"/>
		</contour>
	</outline>
</glyph>
<glyph name=".notdef" format="1">
  <advance width="1497"/>
  <outline>
    <contour>
      <point x="328" y="-322" type="curve" smooth="yes"/>
      <point x="1200" y="-322" type="line" smooth="yes"/>
      <point x="1246" y="-322"/>
      <point x="1266" y="-306"/>
      <point x="1266" y="-266" type="curve"/>
      <point x="1266" y="1610" type="line" smooth="yes"/>
      <point x="1266" y="1636"/>
      <point x="1252" y="1652"/>
      <point x="1230" y="1652" type="curve" smooth="yes"/>
      <point x="312" y="1652" type="line" smooth="yes"/>
      <point x="290" y="1652"/>
      <point x="274" y="1636"/>
      <point x="274" y="1606" type="curve" smooth="yes"/>
      <point x="274" y="-274" type="line" smooth="yes"/>
      <point x="274" y="-306"/>
      <point x="286" y="-322"/>
    </contour>
    <contour>
      <point x="420" y="-224" type="line" smooth="yes"/>
      <point x="386" y="-224"/>
      <point x="376" y="-210"/>
      <point x="376" y="-184" type="curve" smooth="yes"/>
      <point x="376" y="1518" type="line" smooth="yes"/>
      <point x="376" y="1540"/>
      <point x="390" y="1554"/>
      <point x="408" y="1554" type="curve" smooth="yes"/>
      <point x="1134" y="1554" type="line" smooth="yes"/>
      <point x="1152" y="1554"/>
      <point x="1164" y="1540"/>
      <point x="1164" y="1520" type="curve" smooth="yes"/>
      <point x="1164" y="-178" type="line"/>
      <point x="1164" y="-210"/>
      <point x="1146" y="-224"/>
      <point x="1110" y="-224" type="curve" smooth="yes"/>
    </contour>
    <contour>
      <point x="1110" y="-268" type="line"/>
      <point x="1226" y="-258" type="line"/>
      <point x="418" y="1624" type="line"/>
      <point x="316" y="1572" type="line"/>
    </contour>
  </outline>
</glyph>
<glyph name="_ringacute" format="2">
	<advance width="1496"/>
	<anchor x="882" y="1481" name="_top"/>
	<outline>
		<contour>
			<point x="867" y="1384" type="curve" smooth="yes"/>
			<point x="988" y="1384"/>
			<point x="1099" y="1466"/>
			<point x="1117" y="1589" type="curve" smooth="yes"/>
			<point x="1136" y="1710"/>
			<point x="1050" y="1796"/>
			<point x="931" y="1796" type="curve" smooth="yes"/>
			<point x="810" y="1796"/>
			<point x="699" y="1712"/>
			<point x="681" y="1593" type="curve" smooth="yes"/>
			<point x="663" y="1468"/>
			<point x="747" y="1384"/>
		</contour>
		<contour>
			<point x="882" y="1489" type="curve" smooth="yes"/>
			<point x="830" y="1489"/>
			<point x="792" y="1536"/>
			<point x="800" y="1587" type="curve" smooth="yes"/>
			<point x="808" y="1640"/>
			<point x="861" y="1681"/>
			<point x="910" y="1681" type="curve" smooth="yes"/>
			<point x="964" y="1681"/>
			<point x="1000" y="1640"/>
			<point x="992" y="1587" type="curve" smooth="yes"/>
			<point x="984" y="1536"/>
			<point x="935" y="1489"/>
		</contour>
		<contour>
			<point x="837" y="1747" type="line"/>
			<point x="1009" y="1747" type="line"/>
			<point x="1109" y="1925" type="line"/>
			<point x="906" y="1925" type="line"/>
		</contour>
	</outline>
</glyph>
